SplineFontDB: 3.2
FontName: nasin-nanpa
FullName: nasin-nanpa
FamilyName: nasin-nanpa
Weight: Regular
Copyright: ""
FontLog: "#### toki tan ijo ni: ijo li tan anpa nanpa ####+AAoACgAA### tenpo sike ku nanpa tu la+AAoACgAKAAoA## tenpo mun nanpa tu la+AAoACgAK# tenpo suno nanpa luka luka luka tu tu la+AAoACgAA-wa. ni li ijo anu seme?? ken la mi kepeken ni.+AAoA-tenpo poka la ni li kama lon: linja nanpa!+AAoA-open la ona li sona ala e nasin pi nimi jan (cartouches) li ike lukin.+AAoA-tenpo suno wan pini la mi pali e ni: linja nanpa li pona lukin li sona e nasin pi nimi jan.+AAoA-tenpo lon la nanpa pi linja nanpa li: n2.2.+AAoACgAA---+AAoACgAA-tenpo ilo suli nanpa tu tu pi tenpo pimeja li kama. taso mi awen pali.+AAoA-tenpo lon la nasin pi nimi jan en te pi to suli li pona lukin. pona.+AAoACgAA## tenpo mun nanpa tu wan la+AAoACgAK# tenpo suno nanpa luka tu wan la+AAoACgAA-a. ni li ijo. mi pali e ijo mute lon linja nanpa. mi ante e nimi pi sitelen ale. kin la mi kama sin e +ACIA-Lookup Table+ACIA ale."
Version: 2.5.0
ItalicAngle: 0
UnderlinePosition: 0
UnderlineWidth: 0
Ascent: 1000
Descent: 0
InvalidEm: 0
sfntRevision: 0x00010000
LayerCount: 2
Layer: 0 0 "Back" 1
Layer: 1 0 "Fore" 0
XUID: [1021 511 -2811647 6872]
StyleMap: 0x0000
FSType: 0
OS2Version: 3
OS2_WeightWidthSlopeOnly: 0
OS2_UseTypoMetrics: 0
CreationTime: 1645217081
ModificationTime: 1647316813
PfmFamily: 81
TTFWeight: 400
TTFWidth: 5
LineGap: 0
VLineGap: 0
Panose: 0 0 8 9 0 0 0 6 0 0
OS2TypoAscent: 0
OS2TypoAOffset: 1
OS2TypoDescent: 0
OS2TypoDOffset: 1
OS2TypoLinegap: 0
OS2WinAscent: 0
OS2WinAOffset: 1
OS2WinDescent: 0
OS2WinDOffset: 1
HheadAscent: 0
HheadAOffset: 1
HheadDescent: 0
HheadDOffset: 1
OS2CapHeight: 1000
OS2XHeight: 500
OS2Vendor: 'XXXX'
OS2CodePages: 00000001.00000000
OS2UnicodeRanges: 00000000.00000000.04000000.00000000
Lookup: 4 0 1 "'liga' Joiner Step 1" { "'liga' Joiner Step 1-1"  } ['liga' ('DFLT' <'dflt' > ) ]

StartChar: aTok
Encoding: 0 989440 0
Width: 1000
VWidth: 950
Flags: W
HStem: -50 100<439.527 561.352> 250 100<439.527 561.59>
VStem: 300 100<89.5269 210.473> 450 100<408.438 841.562> 600 200<-12.5 177.5>
LayerCount: 2
Fore
SplineSet
550 800 m 2
 550 450 l 2
 550 422 528 400 500 400 c 0
 472 400 450 422 450 450 c 2
 450 800 l 2
 450 828 472 850 500 850 c 0
 528 850 550 828 550 800 c 2
800 -0 m 0
 800 -25 780 -50 750 -50 c 0
 732 -50 715 -41 706 -24 c 2
 670 44 l 1
 634 -12 572 -50 500 -50 c 0
 390 -50 300 40 300 150 c 0
 300 260 390 350 500 350 c 0
 581 350 650 302 682 233 c 0
 683 232 683 231 684 230 c 2
 794 24 l 2
 798 16 800 8 800 -0 c 0
500 50 m 0
 555 50 600 95 600 150 c 0
 600 205 555 250 500 250 c 0
 445 250 400 205 400 150 c 0
 400 95 445 50 500 50 c 0
EndSplineSet
Validated: 1
Substitution2: "'ss01' Add Cartouche Lines-1" aTok.cart
Substitution2: "'ss02' Add Container Lines-1" aTok.cont
EndChar

StartChar: akesiTok
Encoding: 1 989441 1
Width: 1000
VWidth: 850
Flags: W
HStem: -50 100<353.22 646.78> 112 75<91.5522 200 304 696 800 908.448> 262 76<65.745 200 300 700 800 934.255> 412 76<91.5522 200 304 696 800 908.448> 550 100<353.22 646.78> 700 150<273.417 376.583 623.417 726.583>
VStem: 200 100<188 262 338 412> 250 150<723.417 826.583> 600 150<723.417 826.583> 700 100<188 262 338 412>
LayerCount: 2
Fore
SplineSet
675 700 m 0xfc80
 634 700 600 734 600 775 c 0
 600 816 634 850 675 850 c 0
 716 850 750 816 750 775 c 0
 750 734 716 700 675 700 c 0xfc80
304 112 m 1
 311 93 324 83 348 73 c 0
 385 57 440 50 500 50 c 0
 560 50 615 57 652 73 c 0
 676 83 689 93 696 112 c 1
 304 112 l 1
300 188 m 1xfe40
 700 188 l 1
 700 262 l 1
 300 262 l 1
 300 188 l 1xfe40
300 412 m 1
 300 338 l 1
 700 338 l 1
 700 412 l 1
 300 412 l 1
696 488 m 1
 689 507 676 517 652 527 c 0
 615 543 560 550 500 550 c 0
 440 550 385 543 348 527 c 0
 324 517 311 507 304 488 c 1
 696 488 l 1
202 488 m 1
 219 617 361 650 500 650 c 0
 639 650 781 617 798 488 c 1
 875 488 l 2
 896 488 912 471 912 450 c 0
 912 429 896 412 875 412 c 2
 800 412 l 1
 800 338 l 1
 900 337 l 2
 921 337 938 321 938 300 c 0
 938 279 921 262 900 262 c 2
 800 262 l 1
 800 187 l 1
 875 187 l 2
 896 187 912 171 912 150 c 0
 912 129 896 112 875 112 c 2
 798 112 l 1
 781 -17 639 -50 500 -50 c 0
 361 -50 219 -17 202 112 c 1
 125 112 l 2
 104 112 88 129 88 150 c 0
 88 171 104 187 125 187 c 2
 200 187 l 1
 200 262 l 1
 100 262 l 2
 79 262 62 279 62 300 c 0
 62 321 79 337 100 337 c 2
 200 337 l 1
 200 412 l 1
 125 412 l 2
 104 412 88 429 88 450 c 0
 88 471 104 487 125 487 c 2
 202 488 l 1
400 775 m 0xfd
 400 734 366 700 325 700 c 0
 284 700 250 734 250 775 c 0
 250 816 284 850 325 850 c 0
 366 850 400 816 400 775 c 0xfd
EndSplineSet
Validated: 1
Substitution2: "'ss01' Add Cartouche Lines-1" akesiTok.cart
Substitution2: "'ss02' Add Container Lines-1" akesiTok.cont
EndChar

StartChar: alaTok
Encoding: 2 989442 2
Width: 1000
VWidth: 950
Flags: W
HStem: 0 21G<137 156.5 843.5 863>
LayerCount: 2
Fore
SplineSet
100 750 m 0
 100 776 124 800 150 800 c 0
 163 800 175 795 185 785 c 2
 500 471 l 1
 815 785 l 2
 825 795 837 800 850 800 c 0
 876 800 900 776 900 750 c 0
 900 737 895 725 885 715 c 2
 571 400 l 1
 885 85 l 2
 895 75 900 63 900 50 c 0
 900 24 876 0 850 0 c 0
 837 0 825 5 815 15 c 2
 500 329 l 1
 185 15 l 2
 175 5 163 0 150 0 c 0
 124 0 100 24 100 50 c 0
 100 63 105 75 115 85 c 2
 429 400 l 1
 115 715 l 2
 105 725 100 737 100 750 c 0
EndSplineSet
Validated: 1
Substitution2: "'ss01' Add Cartouche Lines-1" alaTok.cart
Substitution2: "'ss02' Add Container Lines-1" alaTok.cont
EndChar

StartChar: alasaTok
Encoding: 3 989443 3
Width: 1000
VWidth: 950
Flags: W
HStem: 350 100<58.4375 200 300 574 674 779>
VStem: 200 100<52 350 450 748> 574 100<219.922 350 450 580.078>
LayerCount: 2
Fore
SplineSet
750 200 m 0
 723 200 700 223 700 250 c 0
 700 263 705 276 715 285 c 2
 779 350 l 1
 674 350 l 1
 672 288 663 204 622 130 c 0
 559 17 436 -50 250 -50 c 0
 222 -50 200 -28 200 0 c 2
 200 350 l 1
 100 350 l 2
 72 350 50 372 50 400 c 0
 50 428 72 450 100 450 c 2
 200 450 l 1
 200 800 l 2
 200 828 222 850 250 850 c 0
 436 850 559 783 622 670 c 0
 663 596 672 512 674 450 c 1
 779 450 l 1
 715 515 l 2
 705 524 700 537 700 550 c 0
 700 577 723 600 750 600 c 0
 763 600 776 595 785 585 c 2
 935 435 l 1
 944 428 950 415 950 400 c 0
 950 385 944 372 935 365 c 1
 785 215 l 2
 776 205 763 200 750 200 c 0
574 450 m 1
 572 505 564 568 534 622 c 0
 493 696 418 738 300 748 c 1
 300 450 l 1
 574 450 l 1
300 350 m 1
 300 52 l 1
 418 62 493 104 534 178 c 0
 564 232 572 295 574 350 c 1
 300 350 l 1
EndSplineSet
Validated: 1
Substitution2: "'ss01' Add Cartouche Lines-1" alasaTok.cart
Substitution2: "'ss02' Add Container Lines-1" alasaTok.cont
EndChar

StartChar: aleTok
Encoding: 4 989444 4
Width: 1000
VWidth: 950
Flags: W
HStem: 150 100<195.416 317.517 682.483 804.584> 550 100<195.416 317.517 682.483 804.584>
VStem: 50 100<300.773 499.227> 850 100<300.773 499.227>
LayerCount: 2
Fore
SplineSet
103 575 m 0
 139 622 192 650 254 650 c 0
 317 650 367 622 411 582 c 0
 440 555 470 520 500 482 c 1
 530 520 560 555 589 582 c 0
 633 622 683 650 746 650 c 0
 808 650 861 622 897 575 c 0
 933 530 950 468 950 400 c 0
 950 332 933 270 897 225 c 0
 861 178 808 150 746 150 c 0
 683 150 633 178 589 218 c 0
 560 245 530 280 500 318 c 1
 470 280 440 245 411 218 c 0
 367 178 317 150 254 150 c 0
 192 150 139 178 103 225 c 0
 67 270 50 332 50 400 c 0
 50 468 67 530 103 575 c 0
437 400 m 1
 401 446 372 482 343 508 c 0
 310 538 283 550 254 550 c 0
 224 550 200 538 182 515 c 0
 163 490 150 452 150 400 c 0
 150 348 163 310 182 285 c 0
 200 262 224 250 254 250 c 0
 283 250 310 262 343 292 c 0
 372 318 401 354 437 400 c 1
563 400 m 1
 599 354 628 318 657 292 c 0
 690 262 717 250 746 250 c 0
 776 250 800 262 818 285 c 0
 837 310 850 348 850 400 c 0
 850 452 837 490 818 515 c 0
 800 538 776 550 746 550 c 0
 717 550 690 538 657 508 c 0
 628 482 599 446 563 400 c 1
EndSplineSet
Validated: 1
Substitution2: "'ss01' Add Cartouche Lines-1" aleTok.cart
Substitution2: "'ss02' Add Container Lines-1" aleTok.cont
EndChar

StartChar: anpaTok
Encoding: 5 989445 5
Width: 1000
VWidth: 850
Flags: W
HStem: 100 150<448.417 551.583> 300 100<150 850>
VStem: 50 100<400 691.562> 425 150<123.417 226.583> 850 100<400 691.562>
CounterMasks: 1 38
LayerCount: 2
Fore
SplineSet
575 175 m 0
 575 134 541 100 500 100 c 0
 459 100 425 134 425 175 c 0
 425 216 459 250 500 250 c 0
 541 250 575 216 575 175 c 0
100 700 m 0
 128 700 150 678 150 650 c 2
 150 400 l 1
 850 400 l 1
 850 650 l 2
 850 678 872 700 900 700 c 0
 928 700 950 678 950 650 c 2
 950 350 l 2
 950 322 928 300 900 300 c 2
 100 300 l 2
 72 300 50 322 50 350 c 2
 50 650 l 2
 50 678 72 700 100 700 c 0
EndSplineSet
Validated: 1
Substitution2: "'ss01' Add Cartouche Lines-1" anpaTok.cart
Substitution2: "'ss02' Add Container Lines-1" anpaTok.cont
EndChar

StartChar: anteTok
Encoding: 6 989446 6
Width: 1000
VWidth: 850
Flags: W
HStem: -0 21G<137 155 845 863>
LayerCount: 2
Fore
SplineSet
150 -0 m 0
 124 0 100 22 100 50 c 0
 100 65 107 80 120 90 c 2
 470 352 l 2
 479 359 489 362 500 362 c 0
 511 362 521 359 530 352 c 2
 880 90 l 2
 893 80 900 65 900 50 c 0
 900 22 876 0 850 -0 c 0
 840 0 829 3 820 10 c 2
 500 250 l 1
 180 10 l 2
 171 3 160 0 150 -0 c 0
850 800 m 0
 876 800 900 778 900 750 c 0
 900 735 893 720 880 710 c 2
 530 448 l 2
 521 441 511 438 500 438 c 0
 489 438 479 441 470 448 c 2
 120 710 l 2
 107 720 100 735 100 750 c 0
 100 778 124 800 150 800 c 0
 160 800 171 797 180 790 c 2
 500 550 l 1
 820 790 l 2
 829 797 840 800 850 800 c 0
EndSplineSet
Validated: 1
Substitution2: "'ss01' Add Cartouche Lines-1" anteTok.cart
Substitution2: "'ss02' Add Container Lines-1" anteTok.cont
EndChar

StartChar: anuTok
Encoding: 7 989447 7
Width: 1000
VWidth: 850
Flags: W
HStem: 0 21G<486 514>
VStem: 450 100<8.4375 418>
LayerCount: 2
Fore
SplineSet
100 750 m 0
 100 778 124 800 150 800 c 0
 162 800 173 795 183 787 c 2
 500 508 l 1
 817 787 l 2
 827 795 838 800 850 800 c 0
 876 800 900 778 900 750 c 0
 900 736 894 723 883 713 c 2
 550 418 l 1
 550 50 l 2
 550 22 528 0 500 0 c 0
 472 0 450 22 450 50 c 2
 450 418 l 1
 117 713 l 2
 106 723 100 736 100 750 c 0
EndSplineSet
Validated: 1
Substitution2: "'ss01' Add Cartouche Lines-1" anuTok.cart
Substitution2: "'ss02' Add Container Lines-1" anuTok.cont
EndChar

StartChar: awenTok
Encoding: 8 989448 8
Width: 1000
VWidth: 850
Flags: W
HStem: -50 101<149.048 216.181 783.819 850.952>
LayerCount: 2
Fore
SplineSet
50 50 m 0
 50 77 73 100 100 100 c 0
 113 100 125 95 135 85 c 0
 160 60 184 53 214 51 c 1
 452 815 l 2
 459 836 478 850 500 850 c 0
 522 850 541 836 548 815 c 2
 786 51 l 1
 816 53 840 60 865 85 c 0
 875 95 887 100 900 100 c 0
 927 100 950 77 950 50 c 0
 950 37 945 25 935 15 c 0
 871 -49 804 -50 754 -50 c 0
 753 -50 753 -50 752 -50 c 0
 751 -50 751 -50 750 -50 c 0
 728 -50 709 -36 702 -15 c 2
 500 632 l 1
 298 -15 l 2
 291 -36 272 -50 250 -50 c 0
 249 -50 249 -50 248 -50 c 0
 247 -50 247 -50 246 -50 c 0
 196 -50 129 -49 65 15 c 0
 55 25 50 37 50 50 c 0
EndSplineSet
Validated: 1
Substitution2: "'ss01' Add Cartouche Lines-1" awenTok.cart
Substitution2: "'ss02' Add Container Lines-1" awenTok.cont
EndChar

StartChar: eTok
Encoding: 9 989449 9
Width: 1000
VWidth: 950
Flags: W
LayerCount: 2
Fore
SplineSet
50 800 m 0
 50 826 74 850 100 850 c 0
 113 850 125 845 135 835 c 2
 535 435 l 2
 545 425 550 413 550 400 c 0
 550 387 545 375 535 365 c 2
 135 -35 l 2
 125 -45 113 -50 100 -50 c 0
 74 -50 50 -26 50 0 c 0
 50 13 55 25 65 35 c 2
 429 400 l 1
 65 765 l 2
 55 775 50 787 50 800 c 0
450 800 m 0
 450 826 474 850 500 850 c 0
 513 850 525 845 535 835 c 2
 935 435 l 2
 945 425 950 413 950 400 c 0
 950 387 945 375 935 365 c 2
 535 -35 l 2
 525 -45 513 -50 500 -50 c 0
 474 -50 450 -26 450 0 c 0
 450 13 455 25 465 35 c 2
 829 400 l 1
 465 765 l 2
 455 775 450 787 450 800 c 0
EndSplineSet
Validated: 1
Substitution2: "'ss01' Add Cartouche Lines-1" eTok.cart
Substitution2: "'ss02' Add Container Lines-1" eTok.cont
EndChar

StartChar: enTok
Encoding: 10 989450 10
Width: 1000
VWidth: 850
Flags: W
HStem: 0 21G<486 514> 350 100<108.438 450 550 891.562>
VStem: 450 100<8.4375 350 450 791.562>
LayerCount: 2
Fore
SplineSet
550 750 m 2
 550 450 l 1
 850 450 l 2
 878 450 900 428 900 400 c 0
 900 372 878 350 850 350 c 2
 550 350 l 1
 550 50 l 2
 550 22 528 0 500 0 c 0
 472 0 450 22 450 50 c 2
 450 350 l 1
 150 350 l 2
 122 350 100 372 100 400 c 0
 100 428 122 450 150 450 c 2
 450 450 l 1
 450 750 l 2
 450 778 472 800 500 800 c 0
 528 800 550 778 550 750 c 2
EndSplineSet
Validated: 1
Substitution2: "'ss01' Add Cartouche Lines-1" enTok.cart
Substitution2: "'ss02' Add Container Lines-1" enTok.cont
EndChar

StartChar: esunTok
Encoding: 11 989451 11
Width: 1000
VWidth: 850
Flags: W
HStem: -50 100<168.615 313.017> 241 95<531 576.918> 261 100<196.612 397.515> 439 100<600 792.98> 463 96<428.781 468> 750 100<689.506 831.385>
VStem: 50 100<68.6149 213.873 775.285 840.591> 835 115<-22.6746 59.3214> 850 100<589.945 731.385>
LayerCount: 2
Fore
SplineSet
600 542 m 1x9680
 625 540 651 539 678 539 c 0
 759 539 800 559 820 580 c 0
 841 600 850 630 850 667 c 0
 850 703 841 722 831 731 c 0
 822 741 803 750 767 750 c 0
 731 750 705 741 686 726 c 0
 666 712 649 688 636 651 c 0
 628 627 615 589 600 542 c 1x9680
399 256 m 1
 364 259 327 261 287 261 c 0xa6
 227 261 195 243 178 223 c 0
 159 202 150 170 150 133 c 0
 150 97 159 78 169 69 c 0
 178 59 197 50 233 50 c 0
 270 50 296 58 314 72 c 0
 333 86 350 109 364 149 c 0
 372 173 384 211 399 256 c 1
948 13 m 0
 949 9 950 4 950 -0 c 0
 950 -25 930 -50 900 -50 c 0
 856 -50 853 -7 835 25 c 0
 822 50 798 84 760 118 c 0
 708 165 627 214 500 241 c 1xd7
 482 189 468 145 459 118 c 0
 441 64 414 21 374 -9 c 0
 333 -38 285 -50 233 -50 c 0
 181 -50 133 -37 98 -2 c 0
 63 33 50 81 50 133 c 0
 50 185 63 243 102 288 c 0
 143 335 205 361 287 361 c 0
 339 361 387 358 432 353 c 1
 444 389 456 427 468 463 c 1
 345 494 254 550 189 607 c 0
 141 649 108 691 86 724 c 0
 74 742 60 765 54 780 c 0
 51 787 50 793 50 800 c 0
 50 825 70 850 100 850 c 0
 121 850 137 837 147 818 c 0
 153 805 158 796 169 779 c 0
 187 753 215 718 255 682 c 0
 310 634 389 585 500 559 c 1xaf
 518 612 533 657 542 683 c 0
 574 778 647 850 767 850 c 0
 819 850 867 837 902 802 c 0
 937 767 950 719 950 667 c 0
 950 615 937 555 891 509 c 0
 845 463 774 439 678 439 c 0
 639 439 602 441 568 445 c 1
 556 410 543 372 531 336 c 1xd680
 668 306 762 250 827 193 c 0
 875 150 905 106 923 72 c 0
 934 51 943 31 948 13 c 0
EndSplineSet
Validated: 1
Substitution2: "'ss01' Add Cartouche Lines-1" esunTok.cart
Substitution2: "'ss02' Add Container Lines-1" esunTok.cont
EndChar

StartChar: ijoTok
Encoding: 12 989452 12
Width: 1000
VWidth: 950
Flags: W
HStem: -50 100<383.579 616.421> 750 100<383.579 616.421>
VStem: 50 100<283.579 516.421> 850 100<283.579 516.421>
LayerCount: 2
Fore
SplineSet
500 -50 m 0
 251 -50 50 151 50 400 c 0
 50 649 251 850 500 850 c 0
 749 850 950 649 950 400 c 0
 950 151 749 -50 500 -50 c 0
500 50 m 0
 693 50 850 207 850 400 c 0
 850 593 693 750 500 750 c 0
 307 750 150 593 150 400 c 0
 150 207 307 50 500 50 c 0
EndSplineSet
Validated: 1
Substitution2: "'ss01' Add Cartouche Lines-1" ijoTok.cart
Substitution2: "'ss02' Add Container Lines-1" ijoTok.cont
EndChar

StartChar: ikeTok
Encoding: 13 989453 13
Width: 1000
VWidth: 850
Flags: W
HStem: 500 100<376.448 623.552>
VStem: 852 98<209.064 290.063>
LayerCount: 2
Fore
SplineSet
950 250 m 0
 950 225 930 200 900 200 c 0
 878 200 858 215 852 237 c 0
 812 387 670 500 500 500 c 0
 330 500 188 387 148 237 c 0
 142 215 122 200 100 200 c 0
 70 200 50 225 50 250 c 0
 50 254 51 259 52 263 c 0
 104 458 285 600 500 600 c 0
 715 600 896 458 948 263 c 0
 949 259 950 254 950 250 c 0
EndSplineSet
Validated: 1
Substitution2: "'ss01' Add Cartouche Lines-1" ikeTok.cart
EndChar

StartChar: iloTok
Encoding: 14 989454 14
Width: 1000
VWidth: 950
Flags: W
HStem: 350 100<150 450 550 850> 750 100<150 450 550 850>
VStem: 50 100<450 750> 450 100<-41.5625 350 450 750> 850 100<450 750>
CounterMasks: 1 38
LayerCount: 2
Fore
SplineSet
50 800 m 2
 50 828 72 850 100 850 c 2
 900 850 l 2
 928 850 950 828 950 800 c 2
 950 400 l 2
 950 372 928 350 900 350 c 2
 550 350 l 1
 550 0 l 2
 550 -28 528 -50 500 -50 c 0
 472 -50 450 -28 450 0 c 2
 450 350 l 1
 100 350 l 2
 72 350 50 372 50 400 c 2
 50 800 l 2
550 450 m 1
 850 450 l 1
 850 750 l 1
 550 750 l 1
 550 450 l 1
450 750 m 1
 150 750 l 1
 150 450 l 1
 450 450 l 1
 450 750 l 1
EndSplineSet
Validated: 1
Substitution2: "'ss01' Add Cartouche Lines-1" iloTok.cart
Substitution2: "'ss02' Add Container Lines-1" iloTok.cont
EndChar

StartChar: insaTok
Encoding: 15 989455 15
Width: 1000
VWidth: 850
Flags: W
HStem: 50 100<250 750> 300 200<438.358 561.642>
VStem: 150 100<150 741.562> 400 200<338.358 461.642> 750 100<150 741.562>
CounterMasks: 1 38
LayerCount: 2
Fore
SplineSet
200 750 m 0
 228 750 250 728 250 700 c 2
 250 150 l 1
 750 150 l 1
 750 700 l 2
 750 728 772 750 800 750 c 0
 828 750 850 728 850 700 c 2
 850 100 l 2
 850 72 828 50 800 50 c 2
 200 50 l 2
 172 50 150 72 150 100 c 2
 150 700 l 2
 150 728 172 750 200 750 c 0
600 400 m 0
 600 345 555 300 500 300 c 0
 445 300 400 345 400 400 c 0
 400 455 445 500 500 500 c 0
 555 500 600 455 600 400 c 0
EndSplineSet
Validated: 1
Substitution2: "'ss01' Add Cartouche Lines-1" insaTok.cart
Substitution2: "'ss02' Add Container Lines-1" insaTok.cont
EndChar

StartChar: jakiTok
Encoding: 16 989456 16
Width: 1000
VWidth: 850
Flags: W
HStem: -50 100<90.123 196.472 409.202 691.243> 480 100<59.2285 140.866 461.42 549.641> 633 100<671 829.51> 750 100<408.865 533.197>
VStem: 107 100<181.897 430.314> 327 100<366.89 447.813> 848 100<149.674 314.374 501.665 616.106>
LayerCount: 2
Fore
SplineSet
550 479 m 1
 542 480 535 480 528 480 c 0
 464 480 427 435 427 405 c 0
 427 394 435 375 459 357 c 0
 470 349 482 343 494 338 c 1
 517 382 536 431 550 479 c 1
549 231 m 1
 507 163 463 114 407 68 c 1
 449 56 492 50 530 50 c 0
 597 50 681 62 747 91 c 0
 812 120 848 161 848 218 c 0
 848 264 835 304 813 338 c 1
 741 280 646 237 549 231 c 1
742 410 m 1
 713 430 681 447 648 458 c 1
 637 419 624 380 607 342 c 1
 655 355 702 379 742 410 c 1
814 482 m 1
 830 504 850 542 850 570 c 0
 850 594 839 610 826 618 c 0
 810 627 779 633 744 633 c 0
 721 633 697 631 671 628 c 1
 671 623 672 618 672 613 c 0
 672 595 670 576 668 557 c 1
 720 541 771 515 814 482 c 1
338 661 m 1
 414 681 480 695 550 709 c 1
 543 720 534 729 524 736 c 0
 507 745 491 750 474 750 c 0
 455 750 437 745 418 734 c 0
 391 719 364 694 338 661 c 1
199 64 m 1
 139 116 107 176 107 281 c 0
 107 349 120 422 142 493 c 1
 130 488 116 480 100 480 c 0
 75 480 50 500 50 530 c 0
 50 550 62 568 81 576 c 0
 119 591 156 606 193 618 c 1
 235 701 296 780 369 821 c 0
 402 839 437 850 474 850 c 0
 507 850 545 842 577 821 c 0
 613 797 637 764 652 727 c 1
 683 731 715 733 745 733 c 0
 858 733 950 685 950 570 c 0
 950 507 917 450 885 410 c 1
 924 358 948 294 948 218 c 0
 948 19 715 -50 530 -50 c 0
 459 -50 375 -33 302 -0 c 1
 253 -25 192 -50 132 -50 c 2
 131 -50 l 2
 103 -50 81 -28 81 0 c 0
 81 31 105 48 134 50 c 0
 156 52 171 55 199 64 c 1
528 580 m 0
 542 580 556 578 570 577 c 1
 571 589 572 601 572 612 c 1
 472 593 376 571 265 536 c 1
 229 453 207 359 207 281 c 0
 207 262 208 243 211 226 c 0
 218 184 249 145 300 114 c 1
 349 146 404 196 442 251 c 1
 387 277 327 330 327 405 c 0
 327 507 426 580 528 580 c 0
EndSplineSet
Validated: 1
Substitution2: "'ss01' Add Cartouche Lines-1" jakiTok.cart
Substitution2: "'ss02' Add Container Lines-1" jakiTok.cont
EndChar

StartChar: janTok
Encoding: 17 989457 17
Width: 1000
VWidth: 950
Flags: W
HStem: 50 100<388.905 611.095> 750 100<390.166 609.834>
VStem: 100 100<339.974 559.834> 800 100<339.974 559.834>
LayerCount: 2
Fore
SplineSet
101 -50 m 0
 74 -50 51 -28 51 0 c 0
 51 14 57 28 68 38 c 2
 218 166 l 1
 145 239 100 339 100 450 c 0
 100 671 279 850 500 850 c 0
 721 850 900 671 900 450 c 0
 900 339 855 239 782 166 c 1
 932 38 l 2
 944 28 950 14 950 -0 c 0
 950 -27 926 -50 900 -50 c 0
 889 -50 877 -46 868 -38 c 2
 701 104 l 1
 642 70 573 50 500 50 c 0
 427 50 358 70 299 104 c 1
 134 -38 l 2
 124 -46 113 -50 101 -50 c 0
200 450 m 0
 200 284 334 150 500 150 c 0
 666 150 800 284 800 450 c 0
 800 616 666 750 500 750 c 0
 334 750 200 616 200 450 c 0
EndSplineSet
Validated: 1
Substitution2: "'ss01' Add Cartouche Lines-1" janTok.cart
Substitution2: "'ss02' Add Container Lines-1" janTok.cont
EndChar

StartChar: jeloTok
Encoding: 18 989458 18
Width: 1000
VWidth: 950
Flags: W
HStem: -50 100<240 760> 350 100<438.198 561.802> 500 100<208.438 312.045 687.955 791.562> 650 200<458.691 541.309>
VStem: 200 200<508.691 591.309> 450 100<737.955 841.562> 600 200<508.691 591.309>
CounterMasks: 1 0e
LayerCount: 2
Fore
SplineSet
154 -50 m 2
 128 -50 103 -29 103 0 c 0
 103 9 106 17 110 25 c 2
 342 427 l 1
 326 448 313 473 306 500 c 1
 250 500 l 2
 222 500 200 522 200 550 c 0
 200 578 222 600 250 600 c 2
 306 600 l 1
 324 670 380 726 450 744 c 1
 450 800 l 2
 450 828 472 850 500 850 c 0
 528 850 550 828 550 800 c 2
 550 744 l 1
 620 726 676 670 694 600 c 1
 750 600 l 2
 778 600 800 578 800 550 c 0
 800 522 778 500 750 500 c 2
 694 500 l 1
 687 473 674 448 658 427 c 1
 890 25 l 2
 894 17 897 9 897 0 c 0
 897 -29 872 -50 846 -50 c 2
 154 -50 l 2
500 450 m 0
 555 450 600 495 600 550 c 0
 600 605 555 650 500 650 c 0
 445 650 400 605 400 550 c 0
 400 495 445 450 500 450 c 0
500 350 m 0
 472 350 446 356 422 366 c 1
 240 50 l 1
 760 50 l 1
 578 366 l 1
 554 356 528 350 500 350 c 0
EndSplineSet
Validated: 1
Substitution2: "'ss01' Add Cartouche Lines-1" jeloTok.cart
Substitution2: "'ss02' Add Container Lines-1" jeloTok.cont
EndChar

StartChar: joTok
Encoding: 19 989459 19
Width: 1000
VWidth: 950
Flags: W
HStem: -50 100<403.504 598.335> 250 100<508.438 745> 450 100<438.534 560.473> 750 100<439.527 560.473>
VStem: 150 100<203.504 400.645> 300 100<591.101 710.473> 600 100<589.527 710.473>
LayerCount: 2
Fore
SplineSet
700 650 m 0
 700 540 610 450 500 450 c 0
 445 450 396 472 360 507 c 1
 294 462 250 386 250 300 c 0
 250 162 362 50 500 50 c 0
 621 50 722 136 745 250 c 1
 550 250 l 2
 522 250 500 272 500 300 c 0
 500 328 522 350 550 350 c 2
 800 350 l 2
 828 350 850 328 850 300 c 0
 850 107 693 -50 500 -50 c 0
 307 -50 150 107 150 300 c 0
 150 423 213 530 308 593 c 1
 303 611 300 630 300 650 c 0
 300 760 390 850 500 850 c 0
 610 850 700 760 700 650 c 0
600 650 m 0
 600 705 555 750 500 750 c 0
 445 750 400 705 400 650 c 0
 400 595 445 550 500 550 c 0
 555 550 600 595 600 650 c 0
EndSplineSet
Validated: 1
Substitution2: "'ss01' Add Cartouche Lines-1" joTok.cart
Substitution2: "'ss02' Add Container Lines-1" joTok.cont
EndChar

StartChar: kalaTok
Encoding: 20 989460 20
Width: 1000
VWidth: 950
Flags: W
HStem: 150 100<516.339 760.025> 550 100<516.039 760.025>
VStem: 850 100<326.002 473.998>
LayerCount: 2
Fore
SplineSet
324 400 m 1
 414 315 514 250 634 250 c 0
 704 250 758 265 793 289 c 0
 829 314 850 350 850 400 c 0
 850 450 829 486 793 511 c 0
 758 535 704 550 634 550 c 0
 513 550 414 485 324 400 c 1
255 473 m 1
 352 566 477 650 634 650 c 0
 718 650 793 633 850 594 c 0
 914 551 950 483 950 400 c 0
 950 317 914 249 850 206 c 0
 793 167 718 150 634 150 c 0
 477 150 353 235 255 328 c 1
 207 273 175 230 143 175 c 0
 134 159 117 150 100 150 c 0
 71 150 51 175 51 199 c 0
 51 210 54 220 60 230 c 0
 96 290 132 338 186 400 c 1
 130 464 94 511 57 575 c 0
 52 583 50 591 50 600 c 0
 50 625 70 650 99 650 c 0
 118 650 135 639 145 622 c 0
 177 570 209 527 255 473 c 1
EndSplineSet
Validated: 1
Substitution2: "'ss01' Add Cartouche Lines-1" kalaTok.cart
Substitution2: "'ss02' Add Container Lines-1" kalaTok.cont
EndChar

StartChar: kalamaTok
Encoding: 21 989461 21
Width: 1000
VWidth: 950
Flags: W
HStem: -50 100<384.879 615.121> 350 100<154 846> 562 284<459.117 540.883>
VStem: 450 100<570.701 837.562>
LayerCount: 2
Fore
SplineSet
650 500 m 0
 624 500 600 524 600 550 c 0
 600 563 605 575 615 585 c 2
 745 715 l 2
 755 725 767 730 780 730 c 0
 806 730 830 706 830 680 c 0
 830 667 825 655 815 645 c 2
 685 515 l 2
 675 505 663 500 650 500 c 0
170 680 m 0
 170 706 194 730 220 730 c 0
 233 730 245 725 255 715 c 2
 385 585 l 2
 395 575 400 563 400 550 c 0
 400 524 376 500 350 500 c 0
 337 500 325 505 315 515 c 2
 185 645 l 2
 175 655 170 667 170 680 c 0
500 846 m 0
 528 846 550 824 550 796 c 2
 550 612 l 2
 550 585 528 562 500 562 c 0
 472 562 450 585 450 612 c 2
 450 796 l 2
 450 824 472 846 500 846 c 0
50 400 m 0
 50 428 72 450 100 450 c 2
 900 450 l 2
 928 450 950 428 950 400 c 0
 950 151 749 -50 500 -50 c 0
 251 -50 50 151 50 400 c 0
154 350 m 1
 178 180 324 50 500 50 c 0
 676 50 822 180 846 350 c 1
 154 350 l 1
EndSplineSet
Validated: 1
Substitution2: "'ss01' Add Cartouche Lines-1" kalamaTok.cart
Substitution2: "'ss02' Add Container Lines-1" kalamaTok.cont
EndChar

StartChar: kamaTok
Encoding: 22 989462 22
Width: 1000
VWidth: 850
Flags: W
HStem: -50 102<227.551 315.56 559.82 729.375>
LayerCount: 2
Fore
SplineSet
50 100 m 0
 50 127 73 150 100 150 c 0
 112 150 124 145 134 136 c 0
 188 85 244 59 314 52 c 1
 552 815 l 2
 559 838 580 849 600 849 c 0
 620 849 639 839 647 817 c 2
 897 117 l 2
 899 111 900 106 900 101 c 0
 900 80 885 62 872 49 c 0
 860 37 843 23 819 8 c 0
 772 -22 700 -50 600 -50 c 0
 572 -50 550 -28 550 0 c 0
 550 28 572 50 600 50 c 0
 681 50 734 72 766 92 c 0
 777 99 786 106 793 112 c 1
 603 642 l 1
 398 -15 l 2
 391 -36 372 -50 350 -50 c 0
 237 -50 148 -14 66 64 c 0
 56 74 50 87 50 100 c 0
EndSplineSet
Validated: 1
Substitution2: "'ss01' Add Cartouche Lines-1" kamaTok.cart
Substitution2: "'ss02' Add Container Lines-1" kamaTok.cont
EndChar

StartChar: kasiTok
Encoding: 23 989463 23
Width: 1000
VWidth: 950
Flags: W
VStem: 450 100<-40.5625 408.136>
LayerCount: 2
Fore
SplineSet
102 850 m 2
 106 850 l 2
 107 850 110 849 113 849 c 0
 120 849 129 848 140 847 c 0
 163 844 194 840 228 832 c 0
 293 818 381 791 435 736 c 0
 463 708 484 670 500 633 c 1
 516 670 537 707 564 735 c 0
 619 791 707 818 772 832 c 0
 806 839 837 844 860 846 c 0
 871 848 880 849 887 849 c 0
 890 849 893 850 894 850 c 2
 897 850 l 2
 898 850 899 850 900 850 c 0
 926 850 950 828 950 801 c 0
 950 798 950 796 949 793 c 2
 949 790 l 2
 949 789 948 786 948 784 c 0
 943 752 937 728 926 689 c 0
 909 634 882 561 835 514 c 0
 781 459 693 432 628 418 c 0
 598 412 571 408 550 405 c 1
 550 1 l 2
 550 -27 528 -49 500 -49 c 0
 472 -49 450 -27 450 1 c 2
 450 405 l 1
 429 408 401 412 372 419 c 0
 307 433 219 460 164 515 c 0
 118 562 90 635 74 689 c 0
 63 728 57 752 52 784 c 0
 52 786 51 788 51 790 c 2
 51 793 l 2
 50 796 50 798 50 801 c 0
 50 827 73 850 99 850 c 0
 100 850 101 850 102 850 c 2
364 666 m 0
 325 705 240 732 163 743 c 1
 178 684 204 618 235 586 c 0
 274 546 360 519 437 508 c 1
 422 568 396 634 364 666 c 0
563 508 m 1
 640 519 725 545 764 585 c 0
 796 617 822 683 837 742 c 1
 760 731 675 705 635 665 c 0
 604 633 578 567 563 508 c 1
EndSplineSet
Validated: 1
Substitution2: "'ss01' Add Cartouche Lines-1" kasiTok.cart
Substitution2: "'ss02' Add Container Lines-1" kasiTok.cont
EndChar

StartChar: kenTok
Encoding: 24 989464 24
Width: 1000
VWidth: 950
Flags: W
HStem: 349 102<300 431.391>
VStem: 200 100<-41.5625 349 451 841.562> 700 100<-41.5625 100.205 699.795 841.562>
LayerCount: 2
Fore
SplineSet
800 7 m 2
 800 0 l 2
 800 -28 778 -50 750 -50 c 0
 722 -50 700 -28 700 0 c 2
 700 2 l 2
 700 18 698 31 693 52 c 0
 686 86 672 130 645 174 c 0
 596 252 500 336 300 349 c 1
 300 0 l 2
 300 -28 278 -50 250 -50 c 0
 222 -50 200 -28 200 0 c 2
 200 800 l 2
 200 828 222 850 250 850 c 0
 278 850 300 828 300 800 c 2
 300 451 l 1
 500 464 596 548 645 627 c 0
 672 670 686 714 693 748 c 0
 698 769 700 782 700 798 c 2
 700 800 l 2
 700 828 722 850 750 850 c 0
 778 850 800 828 800 800 c 2
 800 793 l 2
 800 790 799 785 799 778 c 0
 798 766 795 748 791 727 c 0
 759 580 671 463 524 400 c 1
 672 337 759 220 791 73 c 0
 795 52 798 34 799 22 c 0
 799 15 800 10 800 7 c 2
EndSplineSet
Validated: 1
Substitution2: "'ss01' Add Cartouche Lines-1" kenTok.cart
Substitution2: "'ss02' Add Container Lines-1" kenTok.cont
EndChar

StartChar: kepekenTok
Encoding: 25 989465 25
Width: 1000
VWidth: 950
Flags: W
HStem: 300 97<392.849 450 550 607.151> 450 100<200 450 550 800> 750 100<200 450 550 800>
VStem: 100 100<550 750> 450 100<394.72 450 550 750> 750 100<-41.5625 172.564> 800 100<550 750>
LayerCount: 2
Fore
SplineSet
50 300 m 0xfc
 50 326 70 350 100 350 c 0
 121 350 141 337 147 316 c 2
 180 217 l 1
 229 313 330 382 450 397 c 1
 450 450 l 1
 150 450 l 2
 122 450 100 472 100 500 c 2
 100 800 l 2
 100 828 122 850 150 850 c 2
 850 850 l 2xfc
 878 850 900 828 900 800 c 2
 900 500 l 2xfa
 900 472 878 450 850 450 c 2
 550 450 l 1
 550 397 l 1
 718 376 850 248 850 90 c 2
 850 0 l 2xfc
 850 -28 828 -50 800 -50 c 0xfa
 772 -50 750 -28 750 0 c 2
 750 90 l 2
 750 197 648 300 500 300 c 0
 352 300 250 197 250 90 c 2
 250 0 l 2
 250 -27 229 -50 200 -50 c 0
 179 -50 159 -36 153 -16 c 2
 53 284 l 2
 51 289 50 295 50 300 c 0xfc
550 550 m 1
 800 550 l 1
 800 750 l 1xfa
 550 750 l 1
 550 550 l 1
450 750 m 1
 200 750 l 1
 200 550 l 1
 450 550 l 1
 450 750 l 1
EndSplineSet
Validated: 1
Substitution2: "'ss01' Add Cartouche Lines-1" kepekenTok.cart
Substitution2: "'ss02' Add Container Lines-1" kepekenTok.cont
EndChar

StartChar: kiliTok
Encoding: 26 989466 26
Width: 1000
VWidth: 850
Flags: W
HStem: -52 100<383.012 616.988> 610 100<189.181 342.534 665.022 809.76>
VStem: 50 100<281.012 554.984> 430 114<714.789 824.691> 460 100<660 766.779> 850 100<281.012 552.633>
LayerCount: 2
Fore
SplineSet
850 398 m 0xe4
 850 512 829 563 813 584 c 0
 802 599 788 606 759 606 c 0
 709 606 627 576 576 561 c 0
 557 555 528 548 500 548 c 0
 471 548 442 556 423 562 c 0
 372 578 288 610 238 610 c 0
 211 610 198 603 187 588 c 0
 171 566 150 515 150 398 c 0
 150 203 305 48 500 48 c 0
 695 48 850 203 850 398 c 0xe4
430 800 m 0xf4
 430 825 450 850 480 850 c 0
 525 850 534 800 544 759 c 0xf4
 551 731 559 693 560 660 c 1
 619 678 690 706 759 706 c 0
 860 706 950 646 950 398 c 0
 950 148 750 -52 500 -52 c 0
 250 -52 50 148 50 398 c 0
 50 648 137 710 237 710 c 0
 315 710 394 674 460 655 c 1xec
 459 693 444 751 433 784 c 0
 431 789 430 795 430 800 c 0xf4
EndSplineSet
Validated: 1
Substitution2: "'ss01' Add Cartouche Lines-1" kiliTok.cart
Substitution2: "'ss02' Add Container Lines-1" kiliTok.cont
EndChar

StartChar: kiwenTok
Encoding: 27 989467 27
Width: 1000
VWidth: 950
Flags: W
HStem: 730 100<290 711>
LayerCount: 2
Fore
SplineSet
530 -20 m 2
 521 -26 510 -30 500 -30 c 0
 490 -30 480 -26 471 -20 c 2
 72 270 l 2
 59 279 51 294 51 310 c 0
 51 315 52 321 54 326 c 2
 206 795 l 2
 213 816 232 830 254 830 c 2
 747 830 l 2
 769 830 788 816 795 795 c 2
 948 326 l 2
 949 321 950 316 950 311 c 0
 950 295 943 279 929 270 c 2
 530 -20 l 2
841 329 m 1
 711 730 l 1
 290 730 l 1
 160 329 l 1
 501 82 l 1
 841 329 l 1
EndSplineSet
Validated: 1
Substitution2: "'ss01' Add Cartouche Lines-1" kiwenTok.cart
Substitution2: "'ss02' Add Container Lines-1" kiwenTok.cont
EndChar

StartChar: koTok
Encoding: 28 989468 28
Width: 1000
VWidth: 1029
Flags: W
HStem: -40 100<291.769 426.935 572.723 709.204> 575 100<206.808 290.828 709.258 794.591> 740 100<429.978 569.003>
VStem: 50 100<381.088 520.825> 136 100<115.974 253.582> 764 100<116.636 253.64> 850 100<381.088 521.268>
LayerCount: 2
Fore
SplineSet
50 450 m 0xf0
 50 587 161 675 275 675 c 0
 278 675 281 675 284 675 c 0
 309 770 396 840 500 840 c 0
 603 840 690 770 716 675 c 1
 727 675 l 2
 840 675 950 587 950 450 c 0xf2
 950 375 912 305 849 263 c 1
 859 238 864 211 864 183 c 0
 864 115 832 47 771 2 c 0
 732 -26 686 -40 640 -40 c 0
 590 -40 540 -24 500 8 c 1
 460 -24 410 -40 360 -40 c 0
 314 -40 268 -26 228 2 c 0
 168 45 136 113 136 183 c 0xec
 136 210 141 238 151 263 c 1
 88 305 50 375 50 450 c 0xf0
641 60 m 0
 711 60 764 120 764 183 c 0xec
 764 208 756 234 740 257 c 0
 733 265 731 275 731 287 c 0
 731 307 744 326 765 333 c 0
 817 350 850 398 850 450 c 0
 850 527 788 575 726 575 c 0
 714 575 701 573 689 568 c 0
 684 566 678 567 673 567 c 0
 647 567 623 587 623 617 c 0
 623 685 568 740 500 740 c 0
 433 740 379 689 376 622 c 0
 376 620 377 617 377 615 c 0
 377 585 351 567 327 567 c 0
 322 567 316 566 311 568 c 0
 298 573 286 575 273 575 c 0
 211 575 150 525 150 450 c 0xf2
 150 398 183 350 235 333 c 0
 256 326 270 307 270 287 c 0
 270 272 265 260 257 253 c 0
 243 231 236 208 236 183 c 0xe8
 236 120 289 60 359 60 c 0
 397 60 435 79 459 112 c 0
 469 124 484 132 500 132 c 0
 515 132 530 124 540 112 c 0
 564 79 603 60 641 60 c 0
EndSplineSet
Validated: 1
Substitution2: "'ss01' Add Cartouche Lines-1" koTok.cart
Substitution2: "'ss02' Add Container Lines-1" koTok.cont
EndChar

StartChar: konTok
Encoding: 29 989469 29
Width: 1000
VWidth: 850
Flags: W
HStem: -50 98<145.925 258.589 545.925 658.589> 752 98<341.411 453.505 741.411 853.505>
VStem: 100 100<516.678 660.89> 400 100<139.11 283.322> 500 100<516.678 660.89> 800 100<139.11 283.322>
LayerCount: 2
Fore
SplineSet
813 850 m 0xec
 838 850 862 830 862 800 c 0
 862 778 847 758 825 752 c 0
 733 727 642 719 609 637 c 0
 603 621 600 605 600 589 c 0
 600 530 641 471 715 448 c 0
 826 413 900 317 900 212 c 0
 900 184 894 155 883 126 c 0
 834 3 729 -14 600 -48 c 0
 596 -49 591 -50 587 -50 c 0
 562 -50 537 -30 537 0 c 0
 537 22 553 42 575 48 c 0
 667 73 758 81 791 163 c 0
 797 179 800 195 800 211 c 0
 800 270 759 329 685 352 c 0
 574 387 500 483 500 588 c 0
 500 616 506 645 517 674 c 0
 566 797 671 814 800 848 c 0
 804 849 809 850 813 850 c 0xec
413 850 m 0
 438 850 462 830 462 800 c 0
 462 778 447 758 425 752 c 0
 333 727 242 719 209 637 c 0
 203 621 200 605 200 589 c 0
 200 530 241 471 315 448 c 0
 426 413 500 317 500 212 c 0
 500 184 494 155 483 126 c 0
 434 3 329 -14 200 -48 c 0
 196 -49 191 -50 187 -50 c 0
 162 -50 137 -30 137 0 c 0
 137 22 153 42 175 48 c 0
 267 73 358 81 391 163 c 0
 397 179 400 195 400 211 c 0
 400 270 359 329 285 352 c 0
 174 387 100 483 100 588 c 0
 100 616 106 645 117 674 c 0
 166 797 271 814 400 848 c 0xf4
 404 849 409 850 413 850 c 0
EndSplineSet
Validated: 1
Substitution2: "'ss01' Add Cartouche Lines-1" konTok.cart
Substitution2: "'ss02' Add Container Lines-1" konTok.cont
EndChar

StartChar: kuleTok
Encoding: 30 989470 30
Width: 1000
VWidth: 950
Flags: W
HStem: 0 100<197 803> 300 100<108.438 197 370 630 803 891.562>
LayerCount: 2
Fore
SplineSet
110 0 m 2
 84 0 60 21 60 50 c 0
 60 59 63 67 67 75 c 2
 197 300 l 1
 150 300 l 2
 122 300 100 322 100 350 c 0
 100 378 122 400 150 400 c 2
 255 400 l 1
 457 750 l 2
 466 765 482 775 500 775 c 0
 518 775 534 765 543 750 c 2
 745 400 l 1
 850 400 l 2
 878 400 900 378 900 350 c 0
 900 322 878 300 850 300 c 2
 803 300 l 1
 933 75 l 2
 937 67 940 59 940 50 c 0
 940 21 916 0 890 0 c 2
 110 0 l 2
630 400 m 1
 500 625 l 1
 370 400 l 1
 630 400 l 1
312 300 m 1
 197 100 l 1
 803 100 l 1
 688 300 l 1
 312 300 l 1
EndSplineSet
Validated: 1
Substitution2: "'ss01' Add Cartouche Lines-1" kuleTok.cart
Substitution2: "'ss02' Add Container Lines-1" kuleTok.cont
EndChar

StartChar: kulupuTok
Encoding: 31 989471 31
Width: 1000
VWidth: 950
Flags: W
HStem: -12 92<205.533 344.842 655.533 794.842> 330 108<205.533 345.301 654.825 794.842> 377 92<431.252 571.204> 719 108<431.533 570.842>
VStem: 53 97<135.435 274.688> 279 97<525.2 663.688> 400 103<135.743 213 215 274.873> 503 97<135.743 213 215 274.354> 626 103<524.983 663.688> 850 103<135.435 274.688>
LayerCount: 2
Fore
SplineSet
400 205 m 0xdec0
 400 274 344 330 275 330 c 0
 206 330 150 274 150 205 c 0
 150 136 206 80 275 80 c 0
 344 80 400 136 400 205 c 0xdec0
725 80 m 0
 794 80 850 136 850 205 c 0
 850 274 794 330 725 330 c 0
 656 330 600 274 600 205 c 0xddc0
 600 136 656 80 725 80 c 0
501 469 m 0xbcc0
 570 469 626 525 626 594 c 0
 626 663 570 719 501 719 c 0
 432 719 376 663 376 594 c 0
 376 525 432 469 501 469 c 0xbcc0
503 215 m 1xbec0
 503 293 542 359 602 399 c 1
 572 385 539 377 504 377 c 0
 465 377 429 387 397 404 c 1
 460 365 503 293 503 215 c 1xbec0
503 213 m 1
 503 89 402 -12 278 -12 c 0
 154 -12 53 89 53 213 c 0
 53 337 154 438 278 438 c 0
 317 438 353 428 385 411 c 1
 322 450 279 521 279 602 c 0
 279 726 380 827 504 827 c 0
 628 827 729 726 729 602 c 0
 729 524 690 456 630 416 c 1
 660 430 693 438 728 438 c 0xdec0
 852 438 953 337 953 213 c 0
 953 89 852 -12 728 -12 c 0
 604 -12 503 89 503 213 c 1
EndSplineSet
Validated: 1
Substitution2: "'ss01' Add Cartouche Lines-1" kulupuTok.cart
Substitution2: "'ss02' Add Container Lines-1" kulupuTok.cont
EndChar

StartChar: kuteTok
Encoding: 32 989472 32
Width: 1000
VWidth: 950
Flags: W
HStem: -44 89<228 267.875> 750 100<467.126 595.418>
VStem: 201 96<512 548.555> 505 95<533.514 591.355> 734 100<451.925 610.833>
LayerCount: 2
Fore
SplineSet
251 -50 m 0
 227 -50 201 -30 201 0 c 0
 201 18 211 35 228 44 c 1
 228 44 228 45 229 45 c 0
 230 45 231 46 233 47 c 0
 258 60 276 71 308 91 c 0
 420 157 579 272 662 375 c 0
 709 434 734 487 734 533 c 0
 734 579 708 633 663 678 c 0
 618 724 563 750 518 750 c 0
 503 750 482 742 454 719 c 0
 396 672 338 585 301 520 c 0
 299 517 297 514 297 512 c 1
 296 512 296 511 295 510 c 0
 286 493 269 483 251 483 c 0
 222 483 201 509 201 533 c 0
 201 541 203 549 207 557 c 1
 207 558 l 1
 209 558 212 566 214 569 c 0
 218 577 224 588 232 601 c 0
 272 665 329 748 392 797 c 0
 426 825 469 850 518 850 c 0
 598 850 677 806 733 749 c 0
 790 692 834 614 834 533 c 0
 834 453 793 378 740 312 c 0
 644 195 483 80 360 5 c 0
 335 -10 313 -23 298 -31 c 0
 291 -35 285 -38 281 -41 c 0
 279 -42 277 -43 276 -43 c 1
 276 -44 275 -44 275 -44 c 1
 274 -44 l 1
 267 -48 259 -50 251 -50 c 0
550 600 m 0
 580 600 600 575 600 550 c 0
 600 543 598 535 595 528 c 0
 539 412 444 324 324 256 c 0
 316 252 308 250 300 250 c 0
 275 250 250 270 250 300 c 0
 250 317 259 334 276 344 c 0
 382 404 460 478 505 572 c 0
 514 590 531 600 550 600 c 0
EndSplineSet
Validated: 1
Substitution2: "'ss01' Add Cartouche Lines-1" kuteTok.cart
Substitution2: "'ss02' Add Container Lines-1" kuteTok.cont
EndChar

StartChar: laTok
Encoding: 33 989473 33
Width: 1000
VWidth: 850
Flags: W
HStem: -50 98<309.064 390.063>
VStem: 600 100<276.448 523.552>
LayerCount: 2
Fore
SplineSet
350 -50 m 0
 325 -50 300 -30 300 0 c 0
 300 22 315 42 337 48 c 0
 487 88 600 230 600 400 c 0
 600 570 487 712 337 752 c 0
 315 758 300 778 300 800 c 0
 300 830 325 850 350 850 c 0
 354 850 359 849 363 848 c 0
 558 796 700 615 700 400 c 0
 700 185 558 4 363 -48 c 0
 359 -49 354 -50 350 -50 c 0
EndSplineSet
Validated: 1
Substitution2: "'ss01' Add Cartouche Lines-1" laTok.cart
Substitution2: "'ss02' Add Container Lines-1" laTok.cont
EndChar

StartChar: lapeTok
Encoding: 34 989474 34
Width: 1000
VWidth: 950
Flags: W
HStem: 200 100<689.893 810.473> 350 100<58.4375 562.179> 500 100<689.893 810.473>
VStem: 850 100<339.527 460.473>
CounterMasks: 1 e0
LayerCount: 2
Fore
SplineSet
750 500 m 0
 695 500 650 455 650 400 c 0
 650 345 695 300 750 300 c 0
 805 300 850 345 850 400 c 0
 850 455 805 500 750 500 c 0
556 350 m 1
 100 350 l 2
 72 350 50 372 50 400 c 0
 50 428 72 450 100 450 c 2
 556 450 l 1
 578 536 657 600 750 600 c 0
 860 600 950 510 950 400 c 0
 950 290 860 200 750 200 c 0
 657 200 578 264 556 350 c 1
EndSplineSet
Validated: 1
Substitution2: "'ss01' Add Cartouche Lines-1" lapeTok.cart
Substitution2: "'ss02' Add Container Lines-1" lapeTok.cont
EndChar

StartChar: lasoTok
Encoding: 35 989475 35
Width: 1000
VWidth: 850
Flags: W
HStem: -51 100<326 673>
VStem: 451 100<466 508.242>
LayerCount: 2
Fore
SplineSet
326 49 m 1
 673 49 l 1
 500 350 l 1
 326 49 l 1
566 609 m 1
 613 618 659 635 680 656 c 0
 697 673 711 705 722 741 c 1
 675 732 629 714 608 693 c 0
 592 676 577 644 566 609 c 1
436 609 m 1
 425 645 411 677 394 694 c 0
 373 715 326 732 279 741 c 1
 290 706 305 674 321 657 c 0
 342 635 389 618 436 609 c 1
239 -51 m 2
 213 -51 189 -30 189 -1 c 0
 189 8 192 16 196 24 c 2
 451 466 l 1
 451 505 l 1
 438 507 422 509 406 513 c 0
 359 523 292 543 250 586 c 0
 214 622 194 678 182 717 c 0
 173 748 169 765 165 792 c 0
 165 795 164 797 164 800 c 0
 164 828 187 850 214 850 c 0
 215 850 216 850 217 850 c 2
 249 848 272 845 309 837 c 0
 356 827 423 807 465 764 c 0
 479 749 491 732 501 714 c 1
 511 732 523 749 537 763 c 0
 579 806 645 827 692 837 c 0
 729 845 753 850 787 850 c 0
 814 850 837 828 837 800 c 0
 837 788 835 781 832 769 c 0
 829 755 825 737 819 716 c 0
 807 677 787 622 751 586 c 0
 709 543 642 523 595 513 c 0
 579 510 564 507 551 505 c 1
 551 461 l 1
 803 24 l 2
 807 16 810 8 810 -1 c 0
 810 -30 786 -51 760 -51 c 2
 239 -51 l 2
EndSplineSet
Validated: 1
Substitution2: "'ss01' Add Cartouche Lines-1" lasoTok.cart
Substitution2: "'ss02' Add Container Lines-1" lasoTok.cont
EndChar

StartChar: lawaTok
Encoding: 36 989476 36
Width: 1000
VWidth: 950
Flags: W
HStem: 25 100<320.142 529.858> 500 100<236 614 787 941.562> 675 100<320.636 529.325>
VStem: 50 100<295.142 496.114> 700 100<295.142 498.522>
LayerCount: 2
Fore
SplineSet
787 500 m 1
 795 468 800 435 800 400 c 0
 800 193 632 25 425 25 c 0
 218 25 50 193 50 400 c 0
 50 607 218 775 425 775 c 0
 559 775 676 705 742 600 c 1
 900 600 l 2
 928 600 950 578 950 550 c 0
 950 522 928 500 900 500 c 2
 787 500 l 1
236 600 m 1
 614 600 l 1
 564 646 498 675 425 675 c 0
 352 675 286 646 236 600 c 1
169 500 m 1
 157 469 150 435 150 400 c 0
 150 248 273 125 425 125 c 0
 577 125 700 248 700 400 c 0
 700 435 693 469 681 500 c 1
 169 500 l 1
EndSplineSet
Validated: 1
Substitution2: "'ss01' Add Cartouche Lines-1" lawaTok.cart
Substitution2: "'ss02' Add Container Lines-1" lawaTok.cont
EndChar

StartChar: lenTok
Encoding: 37 989477 37
Width: 1000
VWidth: 950
Flags: W
HStem: 150 100<250 450 550 750> 750 100<250 750>
VStem: 150 100<-41.5625 150 250 750> 450 100<-41.5625 150> 750 100<-41.5625 150 250 750>
CounterMasks: 1 38
LayerCount: 2
Fore
SplineSet
200 850 m 2
 800 850 l 2
 828 850 850 828 850 800 c 2
 850 0 l 2
 850 -28 828 -50 800 -50 c 0
 772 -50 750 -28 750 0 c 2
 750 150 l 1
 550 150 l 1
 550 0 l 2
 550 -28 528 -50 500 -50 c 0
 472 -50 450 -28 450 0 c 2
 450 150 l 1
 250 150 l 1
 250 0 l 2
 250 -28 228 -50 200 -50 c 0
 172 -50 150 -28 150 0 c 2
 150 800 l 2
 150 828 172 850 200 850 c 2
750 250 m 1
 750 750 l 1
 250 750 l 1
 250 250 l 1
 750 250 l 1
EndSplineSet
Validated: 1
Substitution2: "'ss01' Add Cartouche Lines-1" lenTok.cart
Substitution2: "'ss02' Add Container Lines-1" lenTok.cont
EndChar

StartChar: leteTok
Encoding: 38 989478 38
Width: 1000
VWidth: 950
Flags: W
HStem: 350 100<58.4375 413 587 941.562>
LayerCount: 2
Fore
SplineSet
701 797 m 0
 730 797 750 771 750 746 c 0
 750 737 748 729 743 721 c 2
 587 450 l 1
 900 450 l 2
 928 450 950 428 950 400 c 0
 950 372 928 350 900 350 c 2
 587 350 l 1
 743 79 l 2
 748 71 750 63 750 54 c 0
 750 29 730 3 701 3 c 0
 684 3 666 13 657 29 c 2
 500 300 l 1
 343 29 l 2
 334 13 316 3 299 3 c 0
 270 3 250 29 250 54 c 0
 250 63 252 71 257 79 c 2
 413 350 l 1
 100 350 l 2
 72 350 50 372 50 400 c 0
 50 428 72 450 100 450 c 2
 413 450 l 1
 257 721 l 2
 252 729 250 737 250 746 c 0
 250 771 270 797 299 797 c 0
 316 797 334 787 343 771 c 2
 500 500 l 1
 657 771 l 2
 666 787 684 797 701 797 c 0
EndSplineSet
Validated: 1
Substitution2: "'ss01' Add Cartouche Lines-1" leteTok.cart
Substitution2: "'ss02' Add Container Lines-1" leteTok.cont
EndChar

StartChar: liTok
Encoding: 39 989479 39
Width: 1000
VWidth: 950
Flags: W
LayerCount: 2
Fore
SplineSet
250 800 m 0
 250 826 274 850 300 850 c 0
 313 850 325 845 335 835 c 2
 735 435 l 2
 745 425 750 413 750 400 c 0
 750 387 745 375 735 365 c 2
 335 -35 l 2
 325 -45 313 -50 300 -50 c 0
 274 -50 250 -26 250 0 c 0
 250 13 255 25 265 35 c 2
 629 400 l 1
 265 765 l 2
 255 775 250 787 250 800 c 0
EndSplineSet
Validated: 1
Substitution2: "'ss01' Add Cartouche Lines-1" liTok.cart
Substitution2: "'ss02' Add Container Lines-1" liTok.cont
EndChar

StartChar: liliTok
Encoding: 40 989480 40
Width: 1000
VWidth: 950
Flags: W
HStem: 250 300.003
LayerCount: 2
Fore
SplineSet
649.959538997 550.003115261 m 0
 675.676944419 550.003115261 700.002138699 528.360965533 700.002138699 500.03948444 c 0
 700.002138699 484.838203649 693.095799617 469.823305841 679.999023438 460 c 0
 636.424804688 427.319335938 603.861328125 385.756835938 581.482421875 350.0234375 c 0
 565.148693662 323.943784017 556.234251861 308.232027609 547.298828125 283.791015625 c 0
 540.3671875 263.57421875 521.36328125 250 499.999023438 250 c 0
 465.813430438 250 456.287985419 278.121729281 443.716796875 304.388671875 c 0
 437.965820312 316.40234375 429.618164062 332.297851562 418.515625 350.0234375 c 0
 396.13671875 385.756835938 363.573242188 427.319335938 319.999023438 460 c 0
 306.902247258 469.823305841 299.995908176 484.838203649 299.995908176 500.03948444 c 0
 299.995908176 528.339079771 324.316738406 550.003115261 350.038507878 550.003115261 c 0
 360.477793733 550.003115261 371.004979305 546.746030096 379.999023438 540 c 0
 433.530273438 499.8515625 472.897460938 450.541015625 499.999023438 408.259765625 c 1
 527.100585938 450.541015625 566.467773438 499.8515625 619.999023438 540 c 0
 628.99306757 546.746030096 639.520253142 550.003115261 649.959538997 550.003115261 c 0
EndSplineSet
Substitution2: "'ss01' Add Cartouche Lines-1" liliTok.cart
Substitution2: "'ss02' Add Container Lines-1" liliTok.cont
EndChar

StartChar: linjaTok
Encoding: 41 989481 41
Width: 1000
VWidth: 850
Flags: W
HStem: 200 100<239.11 383.322> 500 100<616.678 760.89>
VStem: 852 98<246.495 358.589>
LayerCount: 2
Fore
SplineSet
950 287 m 0
 950 262 930 238 900 238 c 0
 878 238 858 253 852 275 c 0
 827 367 819 458 737 491 c 0
 721 497 705 500 689 500 c 0
 630 500 571 459 548 385 c 0
 513 274 417 200 312 200 c 0
 284 200 255 206 226 217 c 0
 103 266 86 371 52 500 c 0
 51 504 50 509 50 513 c 0
 50 538 70 563 100 563 c 0
 122 563 142 547 148 525 c 0
 173 433 181 342 263 309 c 0
 279 303 295 300 311 300 c 0
 370 300 429 341 452 415 c 0
 487 526 583 600 688 600 c 0
 716 600 745 594 774 583 c 0
 897 534 914 429 948 300 c 0
 949 296 950 291 950 287 c 0
EndSplineSet
Validated: 1
Substitution2: "'ss01' Add Cartouche Lines-1" linjaTok.cart
Substitution2: "'ss02' Add Container Lines-1" linjaTok.cont
EndChar

StartChar: lipuTok
Encoding: 42 989482 42
Width: 1000
VWidth: 950
Flags: W
HStem: -50 100<250 750> 750 100<250 750>
VStem: 150 100<50 750> 750 100<50 750>
LayerCount: 2
Fore
SplineSet
150 800 m 2
 150 828 172 850 200 850 c 2
 800 850 l 2
 828 850 850 828 850 800 c 2
 850 0 l 2
 850 -28 828 -50 800 -50 c 2
 200 -50 l 2
 172 -50 150 -28 150 0 c 2
 150 800 l 2
250 750 m 1
 250 50 l 1
 750 50 l 1
 750 750 l 1
 250 750 l 1
EndSplineSet
Validated: 1
Substitution2: "'ss01' Add Cartouche Lines-1" lipuTok.cart
Substitution2: "'ss02' Add Container Lines-1" lipuTok.cont
EndChar

StartChar: lojeTok
Encoding: 43 989483 43
Width: 1000
VWidth: 950
Flags: W
HStem: -26 100<240 760> 400 100<426.221 573.779> 750 100<204 796>
LayerCount: 2
Fore
SplineSet
154 -26 m 2
 128 -26 103 -5 103 24 c 0
 103 33 106 41 110 49 c 2
 334 436 l 1
 196 499 100 638 100 800 c 0
 100 828 122 850 150 850 c 2
 850 850 l 2
 878 850 900 828 900 800 c 0
 900 638 804 499 666 436 c 1
 890 49 l 2
 894 41 897 33 897 24 c 0
 897 -5 872 -26 846 -26 c 2
 154 -26 l 2
568 406 m 1
 546 402 523 400 500 400 c 0
 477 400 454 402 432 406 c 1
 240 74 l 1
 760 74 l 1
 568 406 l 1
500 500 m 0
 649 500 772 608 796 750 c 1
 204 750 l 1
 228 608 351 500 500 500 c 0
EndSplineSet
Validated: 1
Substitution2: "'ss01' Add Cartouche Lines-1" lojeTok.cart
Substitution2: "'ss02' Add Container Lines-1" lojeTok.cont
EndChar

StartChar: lonTok
Encoding: 44 989484 44
Width: 1000
VWidth: 900
Flags: W
HStem: 150 100<58.4375 941.562> 400 200<438.358 561.642>
VStem: 400 200<438.358 561.642>
LayerCount: 2
Fore
SplineSet
50 200 m 0
 50 228 72 250 100 250 c 2
 900 250 l 2
 928 250 950 228 950 200 c 0
 950 172 928 150 900 150 c 2
 100 150 l 2
 72 150 50 172 50 200 c 0
600 500 m 0
 600 445 555 400 500 400 c 0
 445 400 400 445 400 500 c 0
 400 555 445 600 500 600 c 0
 555 600 600 555 600 500 c 0
EndSplineSet
Validated: 1
Substitution2: "'ss01' Add Cartouche Lines-1" lonTok.cart
Substitution2: "'ss02' Add Container Lines-1" lonTok.cont
EndChar

StartChar: lukaTok
Encoding: 45 989485 45
Width: 1000
VWidth: 950
Flags: W
HStem: 700 100<503.504 696.496>
VStem: 250 100<187 545.711> 850 100<-41.5625 545.711>
LayerCount: 2
Fore
SplineSet
49 348 m 0
 49 374 71 398 100 398 c 0
 117 398 134 389 143 373 c 2
 250 187 l 1
 250 450 l 2
 250 643 407 800 600 800 c 0
 793 800 950 643 950 450 c 2
 950 0 l 2
 950 -28 928 -50 900 -50 c 0
 872 -50 850 -28 850 0 c 2
 850 450 l 2
 850 588 738 700 600 700 c 0
 462 700 350 588 350 450 c 2
 350 0 l 2
 350 -26 330 -51 300 -51 c 0
 282 -51 266 -41 257 -25 c 2
 56 323 l 2
 51 331 49 340 49 348 c 0
EndSplineSet
Validated: 1
Substitution2: "'ss01' Add Cartouche Lines-1" lukaTok.cart
Substitution2: "'ss02' Add Container Lines-1" lukaTok.cont
EndChar

StartChar: lukinTok
Encoding: 46 989486 46
Width: 1000
VWidth: 950
Flags: W
HStem: 125 100<370.405 629.595> 300 200<438.358 561.642> 575 100<370.405 629.595>
VStem: 400 200<338.358 461.642>
CounterMasks: 1 e0
LayerCount: 2
Fore
SplineSet
600 400 m 0
 600 345 555 300 500 300 c 0
 445 300 400 345 400 400 c 0
 400 455 445 500 500 500 c 0
 555 500 600 455 600 400 c 0
880 500 m 1
 881 499 l 1
 906 469 929 436 947 400 c 1
 928 364 906 330 880 300 c 0
 788 193 652 125 500 125 c 0
 348 125 212 193 120 300 c 0
 94 330 72 364 53 400 c 1
 72 436 94 470 120 500 c 0
 212 607 348 675 500 675 c 0
 652 675 788 607 880 500 c 1
831 400 m 1
 759 506 637 575 500 575 c 0
 363 575 241 506 169 400 c 1
 241 294 363 225 500 225 c 0
 637 225 759 294 831 400 c 1
EndSplineSet
Validated: 1
Substitution2: "'ss01' Add Cartouche Lines-1" lukinTok.cart
Substitution2: "'ss02' Add Container Lines-1" lukinTok.cont
EndChar

StartChar: lupaTok
Encoding: 47 989487 47
Width: 1000
VWidth: 950
Flags: W
HStem: -50 100<383.579 616.421>
VStem: 50 100<287.381 841.562> 850 100<287.381 841.562>
LayerCount: 2
Fore
SplineSet
500 50 m 0
 693 50 850 207 850 400 c 2
 850 800 l 2
 850 828 872 850 900 850 c 0
 928 850 950 828 950 800 c 2
 950 400 l 2
 950 151 749 -50 500 -50 c 0
 251 -50 50 151 50 400 c 2
 50 800 l 2
 50 828 72 850 100 850 c 0
 128 850 150 828 150 800 c 2
 150 400 l 2
 150 207 307 50 500 50 c 0
EndSplineSet
Validated: 1
Substitution2: "'ss01' Add Cartouche Lines-1" lupaTok.cart
Substitution2: "'ss02' Add Container Lines-1" lupaTok.cont
EndChar

StartChar: maTok
Encoding: 48 989488 48
Width: 1000
VWidth: 950
Flags: W
HStem: -50 104<376.64 450 550 623.36> 350 100<154 450 550 846> 746 104<376.64 450 550 623.36>
VStem: 50 104<276.64 350 450 523.36> 450 100<54 350 450 746> 846 104<276.64 350 450 523.36>
CounterMasks: 1 fc
LayerCount: 2
Fore
SplineSet
500 -50 m 0
 251 -50 50 151 50 400 c 0
 50 649 251 850 500 850 c 0
 749 850 950 649 950 400 c 0
 950 151 749 -50 500 -50 c 0
550 54 m 1
 703 75 825 197 846 350 c 1
 550 350 l 1
 550 54 l 1
450 54 m 1
 450 350 l 1
 154 350 l 1
 175 197 297 75 450 54 c 1
550 450 m 1
 846 450 l 1
 825 603 703 725 550 746 c 1
 550 450 l 1
450 746 m 1
 297 725 175 603 154 450 c 1
 450 450 l 1
 450 746 l 1
EndSplineSet
Validated: 1
Substitution2: "'ss01' Add Cartouche Lines-1" maTok.cart
Substitution2: "'ss02' Add Container Lines-1" maTok.cont
EndChar

StartChar: mamaTok
Encoding: 49 989489 49
Width: 1000
VWidth: 950
Flags: W
HStem: -50 100<439.527 560.473> 150 100<402.587 597.413> 750 100<403.504 596.496>
VStem: 150 100<401.679 596.496> 300 100<89.5269 163.855> 600 100<89.5269 163.855> 750 100<401.679 596.496>
LayerCount: 2
Fore
SplineSet
500 850 m 0
 693 850 850 693 850 500 c 0
 850 377 787 270 692 207 c 1
 697 189 700 170 700 150 c 0
 700 40 610 -50 500 -50 c 0
 390 -50 300 40 300 150 c 0
 300 170 303 189 308 207 c 1
 213 270 150 377 150 500 c 0
 150 693 307 850 500 850 c 0
250 500 m 0
 250 362 362 250 500 250 c 0
 638 250 750 362 750 500 c 0
 750 638 638 750 500 750 c 0
 362 750 250 638 250 500 c 0
599 164 m 1
 568 155 534 150 500 150 c 0
 466 150 432 155 401 164 c 1
 400 160 400 155 400 150 c 0
 400 95 445 50 500 50 c 0
 555 50 600 95 600 150 c 0
 600 155 600 160 599 164 c 1
EndSplineSet
Validated: 1
Substitution2: "'ss01' Add Cartouche Lines-1" mamaTok.cart
Substitution2: "'ss02' Add Container Lines-1" mamaTok.cont
EndChar

StartChar: maniTok
Encoding: 50 989490 50
Width: 1000
VWidth: 950
Flags: W
HStem: -50 100<390.166 609.834> 650 100<388.966 611.034>
VStem: 50 98<759.719 841.505> 100 100<240.166 461.242> 800 100<240.166 461.242>
LayerCount: 2
Fore
SplineSet
50 800 m 0xe8
 50 826 70 850 100 850 c 0xd8
 122 850 142 835 148 813 c 0xe8
 158 775 172 751 191 733 c 0
 210 714 237 699 281 686 c 1
 282 686 l 1
 345 726 420 750 500 750 c 0
 580 750 655 726 718 686 c 1
 719 686 l 1
 763 699 790 714 809 733 c 0
 828 751 842 775 852 813 c 0
 858 835 878 850 900 850 c 0
 930 850 950 826 950 800 c 0
 950 796 949 791 948 787 c 0
 935 737 914 695 879 661 c 0
 858 640 832 624 803 611 c 1
 864 541 900 450 900 350 c 0
 900 129 721 -50 500 -50 c 0
 279 -50 100 129 100 350 c 0xd8
 100 450 136 541 197 611 c 1
 168 624 142 640 121 661 c 0
 86 695 65 737 52 787 c 0
 51 791 50 796 50 800 c 0xe8
800 350 m 0
 800 516 666 650 500 650 c 0
 334 650 200 516 200 350 c 0
 200 184 334 50 500 50 c 0
 666 50 800 184 800 350 c 0
EndSplineSet
Validated: 1
Substitution2: "'ss01' Add Cartouche Lines-1" maniTok.cart
Substitution2: "'ss02' Add Container Lines-1" maniTok.cont
EndChar

StartChar: meliTok
Encoding: 51 989491 51
Width: 1000
VWidth: 950
Flags: W
HStem: 100 100<409.912 590.088> 600 100<409.912 590.088> 750 100<383.579 616.421>
VStem: 50 100<-41.5625 512.619> 200 100<309.912 490.088> 700 100<309.912 490.088> 850 100<-41.5625 512.619>
LayerCount: 2
Fore
SplineSet
500 750 m 0
 307 750 150 593 150 400 c 2
 150 0 l 2
 150 -28 128 -50 100 -50 c 0
 72 -50 50 -28 50 0 c 2
 50 400 l 2
 50 649 251 850 500 850 c 0
 749 850 950 649 950 400 c 2
 950 0 l 2
 950 -28 928 -50 900 -50 c 0
 872 -50 850 -28 850 0 c 2
 850 400 l 2
 850 593 693 750 500 750 c 0
500 600 m 0
 390 600 300 510 300 400 c 0
 300 290 390 200 500 200 c 0
 610 200 700 290 700 400 c 0
 700 510 610 600 500 600 c 0
200 400 m 0
 200 566 334 700 500 700 c 0
 666 700 800 566 800 400 c 0
 800 234 666 100 500 100 c 0
 334 100 200 234 200 400 c 0
EndSplineSet
Validated: 1
Substitution2: "'ss01' Add Cartouche Lines-1" meliTok.cart
Substitution2: "'ss02' Add Container Lines-1" meliTok.cont
EndChar

StartChar: miTok
Encoding: 52 989492 52
Width: 1000
VWidth: 850
Flags: W
HStem: 0 21G<427 465> 400 100<438.571 560.473> 700 100<439.527 560.473>
VStem: 300 100<541.852 660.473> 386 114<25.961 133.307> 600 100<539.527 660.473>
LayerCount: 2
Fore
SplineSet
600 600 m 0xec
 600 655 555 700 500 700 c 0xec
 445 700 400 655 400 600 c 0xf4
 400 545 445 500 500 500 c 0
 555 500 600 545 600 600 c 0xec
500 51 m 0
 500 26 480 0 450 0 c 0
 404 0 397 51 386 93 c 0xec
 349 230 300 438 300 600 c 0xf4
 300 710 390 800 500 800 c 0
 610 800 700 710 700 600 c 0
 700 490 610 400 500 400 c 0
 470 400 442 406 417 418 c 1
 436 296 468 166 498 65 c 0
 499 60 500 56 500 51 c 0
EndSplineSet
Validated: 1
Substitution2: "'ss01' Add Cartouche Lines-1" miTok.cart
Substitution2: "'ss02' Add Container Lines-1" miTok.cont
EndChar

StartChar: mijeTok
Encoding: 53 989493 53
Width: 1000
VWidth: 950
Flags: W
HStem: -50 250<58.4375 141.562 858.438 941.562> 50 100<389.634 610.366> 100 100<150 188 812 850> 750 100<390.166 609.834>
VStem: 50 100<-41.5625 100> 100 100<339.393 559.834> 800 100<339.393 559.834> 850 100<-41.5625 100>
LayerCount: 2
Fore
SplineSet
100 450 m 0x34
 100 671 279 850 500 850 c 0
 721 850 900 671 900 450 c 0
 900 355 867 268 812 200 c 1x36
 900 200 l 2x96
 928 200 950 178 950 150 c 2
 950 0 l 2x51
 950 -28 928 -50 900 -50 c 0x92
 872 -50 850 -28 850 0 c 2
 850 100 l 1
 694 100 l 1x31
 636 68 570 50 500 50 c 0x51
 430 50 364 68 306 100 c 1
 150 100 l 1
 150 0 l 2x39
 150 -28 128 -50 100 -50 c 0x94
 72 -50 50 -28 50 0 c 2
 50 150 l 2x58
 50 178 72 200 100 200 c 2x94
 188 200 l 1
 133 268 100 355 100 450 c 0x34
500 750 m 0
 334 750 200 616 200 450 c 0
 200 284 334 150 500 150 c 0x56
 666 150 800 284 800 450 c 0
 800 616 666 750 500 750 c 0
EndSplineSet
Validated: 1
Substitution2: "'ss01' Add Cartouche Lines-1" mijeTok.cart
Substitution2: "'ss02' Add Container Lines-1" mijeTok.cont
EndChar

StartChar: mokuTok
Encoding: 54 989494 54
Width: 1000
VWidth: 850
Flags: W
HStem: 300 175<419.288 608.375> 750 100<179 821>
VStem: 775 100<-41.5625 172.564>
LayerCount: 2
Fore
SplineSet
500 475 m 0
 662 475 797 594 821 750 c 1
 179 750 l 1
 203 594 338 475 500 475 c 0
75 300 m 0
 75 325 95 350 125 350 c 0
 146 350 165 337 172 316 c 2
 205 217 l 1
 245 296 321 356 413 384 c 1
 220 424 75 595 75 800 c 0
 75 828 97 850 125 850 c 2
 875 850 l 2
 903 850 925 828 925 800 c 0
 925 604 793 439 613 390 c 1
 763 356 875 236 875 90 c 2
 875 0 l 2
 875 -28 853 -50 825 -50 c 0
 797 -50 775 -28 775 0 c 2
 775 90 l 2
 775 197 673 300 525 300 c 0
 377 300 275 197 275 90 c 2
 275 0 l 2
 275 -26 254 -50 225 -50 c 0
 204 -50 185 -37 178 -16 c 2
 78 284 l 2
 76 289 75 295 75 300 c 0
EndSplineSet
Validated: 1
Substitution2: "'ss01' Add Cartouche Lines-1" mokuTok.cart
Substitution2: "'ss02' Add Container Lines-1" mokuTok.cont
EndChar

StartChar: moliTok
Encoding: 55 989495 55
Width: 1000
VWidth: 950
Flags: W
HStem: -50 100<383.579 616.421> 275 250<249 316.875 383.125 451 549 616.875 683.125 751> 750 100<383.579 616.421>
VStem: 50 100<283.579 516.421> 850 100<283.579 516.421>
CounterMasks: 1 e0
LayerCount: 2
Fore
SplineSet
225 475 m 0
 225 501 249 525 275 525 c 0
 288 525 300 520 310 510 c 2
 350 471 l 1
 390 510 l 2
 400 520 412 525 425 525 c 0
 451 525 475 501 475 475 c 0
 475 462 470 450 460 440 c 2
 421 400 l 1
 460 360 l 2
 470 350 475 338 475 325 c 0
 475 299 451 275 425 275 c 0
 412 275 400 280 390 290 c 2
 350 329 l 1
 310 290 l 2
 300 280 288 275 275 275 c 0
 249 275 225 299 225 325 c 0
 225 338 230 350 240 360 c 2
 279 400 l 1
 240 440 l 2
 230 450 225 462 225 475 c 0
525 475 m 0
 525 501 549 525 575 525 c 0
 588 525 600 520 610 510 c 2
 650 471 l 1
 690 510 l 2
 700 520 712 525 725 525 c 0
 751 525 775 501 775 475 c 0
 775 462 770 450 760 440 c 2
 721 400 l 1
 760 360 l 2
 770 350 775 338 775 325 c 0
 775 299 751 275 725 275 c 0
 712 275 700 280 690 290 c 2
 650 329 l 1
 610 290 l 2
 600 280 588 275 575 275 c 0
 549 275 525 299 525 325 c 0
 525 338 530 350 540 360 c 2
 579 400 l 1
 540 440 l 2
 530 450 525 462 525 475 c 0
950 400 m 0
 950 151 749 -50 500 -50 c 0
 251 -50 50 151 50 400 c 0
 50 649 251 850 500 850 c 0
 749 850 950 649 950 400 c 0
850 400 m 0
 850 593 693 750 500 750 c 0
 307 750 150 593 150 400 c 0
 150 207 307 50 500 50 c 0
 693 50 850 207 850 400 c 0
EndSplineSet
Validated: 1
Substitution2: "'ss01' Add Cartouche Lines-1" moliTok.cart
Substitution2: "'ss02' Add Container Lines-1" moliTok.cont
EndChar

StartChar: monsiTok
Encoding: 56 989496 56
Width: 1000
VWidth: 850
Flags: W
HStem: -50 100<500 791.562> 325 150<223.417 326.583> 750 100<500 791.562>
VStem: 200 150<348.417 451.583> 400 100<50 750>
CounterMasks: 1 e0
LayerCount: 2
Fore
SplineSet
275 475 m 0
 316 475 350 441 350 400 c 0
 350 359 316 325 275 325 c 0
 234 325 200 359 200 400 c 0
 200 441 234 475 275 475 c 0
800 0 m 0
 800 -28 778 -50 750 -50 c 2
 450 -50 l 2
 422 -50 400 -28 400 0 c 2
 400 800 l 2
 400 828 422 850 450 850 c 2
 750 850 l 2
 778 850 800 828 800 800 c 0
 800 772 778 750 750 750 c 2
 500 750 l 1
 500 50 l 1
 750 50 l 2
 778 50 800 28 800 0 c 0
EndSplineSet
Validated: 1
Substitution2: "'ss01' Add Cartouche Lines-1" monsiTok.cart
Substitution2: "'ss02' Add Container Lines-1" monsiTok.cont
EndChar

StartChar: muTok
Encoding: 57 989497 57
Width: 1000
VWidth: 950
Flags: W
HStem: -50 100<390.166 609.834> 125 150<448.417 551.583> 450 100<214.821 310.202 689.798 785.179> 650 100<450.141 549.859> 750 100<189.527 311.767 688.233 810.473>
VStem: 50 100<589.057 710.473> 100 100<240.166 451.826> 350 100<592.077 648.873> 425 150<148.417 251.583> 550 100<592.077 648.873> 800 100<240.166 451.826> 850 100<589.057 710.473>
LayerCount: 2
Fore
SplineSet
500 125 m 0xe080
 459 125 425 159 425 200 c 0
 425 241 459 275 500 275 c 0
 541 275 575 241 575 200 c 0
 575 159 541 125 500 125 c 0xe080
900 350 m 0xf020
 900 129 721 -50 500 -50 c 0
 279 -50 100 129 100 350 c 0xf220
 100 400 109 448 126 493 c 1
 80 529 50 586 50 650 c 0xf4
 50 760 140 850 250 850 c 0xec
 327 850 393 807 427 743 c 1
 451 748 475 750 500 750 c 0xf4
 525 750 549 748 573 743 c 1
 607 807 673 850 750 850 c 0xec
 860 850 950 760 950 650 c 0xf410
 950 586 920 529 874 493 c 1
 891 448 900 400 900 350 c 0xf020
350 650 m 0xf5
 350 705 305 750 250 750 c 0xed
 195 750 150 705 150 650 c 0
 150 595 195 550 250 550 c 0
 305 550 350 595 350 650 c 0xf5
450 646 m 1
 448 537 359 450 250 450 c 0
 239 450 228 451 218 453 c 1
 206 421 200 386 200 350 c 0
 200 184 334 50 500 50 c 0
 666 50 800 184 800 350 c 0
 800 386 794 421 782 453 c 1
 772 451 761 450 750 450 c 0
 641 450 552 537 550 646 c 1
 534 649 517 650 500 650 c 0xf360
 483 650 466 649 450 646 c 1
750 550 m 0
 805 550 850 595 850 650 c 0xf050
 850 705 805 750 750 750 c 0xe850
 695 750 650 705 650 650 c 0
 650 595 695 550 750 550 c 0
EndSplineSet
Validated: 1
Substitution2: "'ss01' Add Cartouche Lines-1" muTok.cart
Substitution2: "'ss02' Add Container Lines-1" muTok.cont
EndChar

StartChar: munTok
Encoding: 58 989498 58
Width: 1000
VWidth: 950
Flags: W
HStem: -50 100<332.678 568.254> 750 100<332.678 568.254>
VStem: 252 100<297.995 502.005> 802 100<283.579 516.421>
LayerCount: 2
Fore
SplineSet
227 668 m 1
 303 604 352 508 352 400 c 0
 352 292 303 196 227 132 c 1
 288 81 366 50 452 50 c 0
 645 50 802 207 802 400 c 0
 802 593 645 750 452 750 c 0
 366 750 288 719 227 668 c 1
111 694 m 0
 194 790 316 850 452 850 c 0
 700 850 902 649 902 400 c 0
 902 151 700 -50 452 -50 c 0
 316 -50 194 10 111 106 c 0
 103 115 99 125 99 137 c 0
 99 158 108 174 125 182 c 0
 201 225 252 307 252 400 c 0
 252 493 201 575 124 618 c 0
 109 626 99 642 99 663 c 0
 99 675 103 685 111 694 c 0
EndSplineSet
Validated: 1
Substitution2: "'ss01' Add Cartouche Lines-1" munTok.cart
Substitution2: "'ss02' Add Container Lines-1" munTok.cont
EndChar

StartChar: musiTok
Encoding: 59 989499 59
Width: 1000
VWidth: 950
Flags: W
HStem: -50 100<390.166 609.834> 450 100<214.821 310.473 689.527 785.179> 750 100<189.527 310.473 689.527 810.473>
VStem: 50 100<589.057 710.473> 100 100<240.166 451.826> 350 100<589.527 710.473> 550 100<589.527 710.473> 800 100<240.166 451.826> 850 100<589.057 710.473>
LayerCount: 2
Fore
SplineSet
250 450 m 0xf6
 239 450 228 451 218 453 c 1
 206 421 200 386 200 350 c 0
 200 184 334 50 500 50 c 0
 666 50 800 184 800 350 c 0xef
 800 386 794 421 782 453 c 1
 772 451 761 450 750 450 c 0
 640 450 550 540 550 650 c 0
 550 760 640 850 750 850 c 0
 860 850 950 760 950 650 c 0xe680
 950 586 920 529 874 493 c 1
 891 448 900 400 900 350 c 0
 900 129 721 -50 500 -50 c 0
 279 -50 100 129 100 350 c 0xef
 100 400 109 448 126 493 c 1
 80 529 50 586 50 650 c 0
 50 760 140 850 250 850 c 0
 360 850 450 760 450 650 c 0
 450 540 360 450 250 450 c 0xf6
250 550 m 0
 305 550 350 595 350 650 c 0
 350 705 305 750 250 750 c 0
 195 750 150 705 150 650 c 0xf6
 150 595 195 550 250 550 c 0
850 650 m 0xe680
 850 705 805 750 750 750 c 0
 695 750 650 705 650 650 c 0
 650 595 695 550 750 550 c 0
 805 550 850 595 850 650 c 0xe680
EndSplineSet
Validated: 1
Substitution2: "'ss01' Add Cartouche Lines-1" musiTok.cart
Substitution2: "'ss02' Add Container Lines-1" musiTok.cont
EndChar

StartChar: muteTok
Encoding: 60 989500 60
Width: 1000
VWidth: 950
Flags: W
VStem: 200 100<-16.5625 816.562> 450 100<-41.5625 841.562> 700 100<-16.5625 816.562>
CounterMasks: 1 e0
LayerCount: 2
Fore
SplineSet
750 -25 m 0
 722 -25 700 -3 700 25 c 2
 700 775 l 2
 700 803 722 825 750 825 c 0
 778 825 800 803 800 775 c 2
 800 25 l 2
 800 -3 778 -25 750 -25 c 0
500 -50 m 0
 472 -50 450 -28 450 0 c 2
 450 800 l 2
 450 828 472 850 500 850 c 0
 528 850 550 828 550 800 c 2
 550 0 l 2
 550 -28 528 -50 500 -50 c 0
250 -25 m 0
 222 -25 200 -3 200 25 c 2
 200 775 l 2
 200 803 222 825 250 825 c 0
 278 825 300 803 300 775 c 2
 300 25 l 2
 300 -3 278 -25 250 -25 c 0
EndSplineSet
Validated: 1
Substitution2: "'ss01' Add Cartouche Lines-1" muteTok.cart
Substitution2: "'ss02' Add Container Lines-1" muteTok.cont
EndChar

StartChar: nanpaTok
Encoding: 61 989501 61
Width: 1000
VWidth: 950
Flags: W
HStem: 200 100<58.4375 300 400 600 700 931.562> 500 100<68.4375 300 400 600 700 941.562>
VStem: 300 100<-41.5625 200 300 500 600 841.562> 600 100<-41.5625 200 300 500 600 831.562>
LayerCount: 2
Fore
SplineSet
940 250 m 0
 940 222 918 200 890 200 c 2
 700 200 l 1
 700 0 l 2
 700 -28 678 -50 650 -50 c 0
 622 -50 600 -28 600 0 c 2
 600 200 l 1
 400 200 l 1
 400 0 l 2
 400 -28 378 -50 350 -50 c 0
 322 -50 300 -28 300 0 c 2
 300 200 l 1
 100 200 l 2
 72 200 50 222 50 250 c 0
 50 278 72 300 100 300 c 2
 300 300 l 1
 300 500 l 1
 110 500 l 2
 82 500 60 522 60 550 c 0
 60 578 82 600 110 600 c 2
 300 600 l 1
 300 800 l 2
 300 828 322 850 350 850 c 0
 378 850 400 828 400 800 c 2
 400 600 l 1
 600 600 l 1
 600 790 l 2
 600 818 622 840 650 840 c 0
 678 840 700 818 700 790 c 2
 700 600 l 1
 900 600 l 2
 928 600 950 578 950 550 c 0
 950 522 928 500 900 500 c 2
 700 500 l 1
 700 300 l 1
 890 300 l 2
 918 300 940 278 940 250 c 0
600 500 m 1
 400 500 l 1
 400 300 l 1
 600 300 l 1
 600 500 l 1
EndSplineSet
Validated: 1
Substitution2: "'ss01' Add Cartouche Lines-1" nanpaTok.cart
Substitution2: "'ss02' Add Container Lines-1" nanpaTok.cont
EndChar

StartChar: nasaTok
Encoding: 62 989502 62
Width: 1000
VWidth: 950
Flags: W
HStem: -24 100<379.037 576.25> 174 101<423.995 538.631> 354 100<486.735 549.889> 531 84<459.542 634.568> 729 100<417.476 677.865>
VStem: 95 100<279.217 507.598> 293 100<310.015 469.722> 553 100<290.816 350.4> 749 100<246.501 419.496>
LayerCount: 2
Fore
SplineSet
476 275 m 0
 521 275 553 297 553 330 c 0
 553 346 538 351 519 354 c 0
 495 358 477 378 477 402 c 0
 477 432 501 454 528 454 c 0
 627 454 653 404 653 337 c 0
 653 255 572 174 473 174 c 0
 362 174 293 288 293 396 c 0
 293 540 419 615 551 615 c 0
 696 615 849 523 849 330 c 0
 849 126 682 -24 484 -24 c 0
 271 -24 95 155 95 371 c 0
 95 618 282 829 528 829 c 0
 708 829 933 724 933 628 c 0
 933 602 912 578 884 578 c 0
 848 578 847 599 815 630 c 0
 777 667 710 729 533 729 c 0
 348 729 195 578 195 397 c 0
 195 229 315 76 482 76 c 0
 626 76 749 223 749 331 c 0
 749 443 656 531 544 531 c 0
 451 531 393 474 393 394 c 0
 393 316 428 275 476 275 c 0
EndSplineSet
Validated: 1
Substitution2: "'ss01' Add Cartouche Lines-1" nasaTok.cart
Substitution2: "'ss02' Add Container Lines-1" nasaTok.cont
EndChar

StartChar: nasinTok
Encoding: 63 989503 63
Width: 1000
VWidth: 950
Flags: W
VStem: 450 100<-41.5625 429 571 841.562>
LayerCount: 2
Fore
SplineSet
250 250 m 0
 224 250 200 274 200 300 c 0
 200 313 205 325 215 335 c 2
 450 571 l 1
 450 800 l 2
 450 828 472 850 500 850 c 0
 528 850 550 828 550 800 c 2
 550 571 l 1
 785 335 l 2
 795 325 800 313 800 300 c 0
 800 274 776 250 750 250 c 0
 737 250 725 255 715 265 c 2
 550 429 l 1
 550 0 l 2
 550 -28 528 -50 500 -50 c 0
 472 -50 450 -28 450 0 c 2
 450 429 l 1
 285 265 l 2
 275 255 263 250 250 250 c 0
EndSplineSet
Validated: 1
Substitution2: "'ss01' Add Cartouche Lines-1" nasinTok.cart
Substitution2: "'ss02' Add Container Lines-1" nasinTok.cont
EndChar

StartChar: nenaTok
Encoding: 64 989504 64
Width: 1000
VWidth: 950
Flags: W
HStem: 750 100<383.579 616.421>
VStem: 50 100<-41.5625 512.619> 850 100<-41.5625 512.619>
LayerCount: 2
Fore
SplineSet
500 750 m 0
 307 750 150 593 150 400 c 2
 150 0 l 2
 150 -28 128 -50 100 -50 c 0
 72 -50 50 -28 50 0 c 2
 50 400 l 2
 50 649 251 850 500 850 c 0
 749 850 950 649 950 400 c 2
 950 0 l 2
 950 -28 928 -50 900 -50 c 0
 872 -50 850 -28 850 0 c 2
 850 400 l 2
 850 593 693 750 500 750 c 0
EndSplineSet
Validated: 1
Substitution2: "'ss01' Add Cartouche Lines-1" nenaTok.cart
Substitution2: "'ss02' Add Container Lines-1" nenaTok.cont
EndChar

StartChar: niTok
Encoding: 65 989505 65
Width: 1000
VWidth: 950
Flags: W
VStem: 450 100<121 841.562>
LayerCount: 2
Fore
SplineSet
200 250 m 0
 200 276 224 300 250 300 c 0
 263 300 275 295 285 285 c 2
 450 121 l 1
 450 800 l 2
 450 828 472 850 500 850 c 0
 528 850 550 828 550 800 c 2
 550 121 l 1
 715 285 l 2
 725 295 737 300 750 300 c 0
 776 300 800 276 800 250 c 0
 800 237 795 225 785 215 c 2
 535 -35 l 1
 528 -44 515 -50 500 -50 c 0
 485 -50 472 -44 465 -35 c 1
 215 215 l 2
 205 225 200 237 200 250 c 0
EndSplineSet
Validated: 1
Substitution2: "'ss01' Add Cartouche Lines-1" niTok.cart
Substitution2: "'ss02' Add Container Lines-1" niTok.cont
EndChar

StartChar: nimiTok
Encoding: 66 989506 66
Width: 1000
VWidth: 950
Flags: W
HStem: 150 100<198.081 801.919> 550 100<198.081 801.919>
VStem: 50 100<298.081 501.919> 850 100<298.081 501.919>
LayerCount: 2
Fore
SplineSet
261 150 m 2
 144 150 50 244 50 361 c 2
 50 439 l 2
 50 556 144 650 261 650 c 2
 739 650 l 2
 856 650 950 556 950 439 c 2
 950 361 l 2
 950 244 856 150 739 150 c 2
 261 150 l 2
150 361 m 2
 150 300 200 250 261 250 c 2
 739 250 l 2
 800 250 850 300 850 361 c 2
 850 439 l 2
 850 500 800 550 739 550 c 2
 261 550 l 2
 200 550 150 500 150 439 c 2
 150 361 l 2
EndSplineSet
Validated: 1
Substitution2: "'ss01' Add Cartouche Lines-1" nimiTok.cart
Substitution2: "'ss02' Add Container Lines-1" nimiTok.cont
EndChar

StartChar: nokaTok
Encoding: 67 989507 67
Width: 1000
VWidth: 950
Flags: W
HStem: -50 100<200 759.304> 250 100<500 759.304>
VStem: 100 100<50 841.562> 400 100<350 841.562> 800 100<89.5269 210.473>
LayerCount: 2
Fore
SplineSet
150 850 m 0
 178 850 200 828 200 800 c 2
 200 50 l 1
 700 50 l 2
 755 50 800 95 800 150 c 0
 800 205 755 250 700 250 c 2
 450 250 l 2
 422 250 400 272 400 300 c 2
 400 800 l 2
 400 828 422 850 450 850 c 0
 478 850 500 828 500 800 c 2
 500 350 l 1
 700 350 l 2
 810 350 900 260 900 150 c 0
 900 40 810 -50 700 -50 c 2
 150 -50 l 2
 122 -50 100 -28 100 0 c 2
 100 800 l 2
 100 828 122 850 150 850 c 0
EndSplineSet
Validated: 1
Substitution2: "'ss01' Add Cartouche Lines-1" nokaTok.cart
Substitution2: "'ss02' Add Container Lines-1" nokaTok.cont
EndChar

StartChar: oTok
Encoding: 68 989508 68
Width: 1000
VWidth: 950
Flags: W
HStem: -50 100<439.527 560.473> 250 100<439.527 560.473>
VStem: 300 100<89.5269 210.473> 450 100<408.438 841.562> 600 100<89.5269 210.473>
CounterMasks: 1 38
LayerCount: 2
Fore
SplineSet
500 -50 m 0
 390 -50 300 40 300 150 c 0
 300 260 390 350 500 350 c 0
 610 350 700 260 700 150 c 0
 700 40 610 -50 500 -50 c 0
500 50 m 0
 555 50 600 95 600 150 c 0
 600 205 555 250 500 250 c 0
 445 250 400 205 400 150 c 0
 400 95 445 50 500 50 c 0
500 850 m 0
 528 850 550 828 550 800 c 2
 550 450 l 2
 550 422 528 400 500 400 c 0
 472 400 450 422 450 450 c 2
 450 800 l 2
 450 828 472 850 500 850 c 0
EndSplineSet
Validated: 1
Substitution2: "'ss01' Add Cartouche Lines-1" oTok.cart
Substitution2: "'ss02' Add Container Lines-1" oTok.cont
EndChar

StartChar: olinTok
Encoding: 69 989509 69
Width: 1000
VWidth: 950
Flags: W
HStem: 300 100<359.08 436.889 563.081 640.92> 750 100<359.08 436.894 563.076 640.92>
VStem: 250 100<198.901 290.92 648.901 740.92> 650 100<198.901 290.92 648.901 740.92>
LayerCount: 2
Fore
SplineSet
400 300 m 0
 372.385742188 300 350 277.614257812 350 250 c 0
 350 240.029296875 355.762695312 222.120117188 372.852539062 196.485351562 c 0
 402.615045316 151.839797964 460.663987914 96.8854805009 500 64.0439453125 c 1
 539.281867914 96.8402756718 597.425798401 151.901066001 627.147460938 196.485351562 c 0
 644.237304688 222.120117188 650 240.029296875 650 250 c 0
 650 277.614257812 627.614257812 300 600 300 c 0
 571.49012618 300 554.239273605 265.833067189 541.345703125 246.884765625 c 0
 532.037109375 233.1953125 516.5546875 225 500 225 c 0
 483.4453125 225 467.962890625 233.1953125 458.654296875 246.884765625 c 0
 445.549798564 266.146222009 428.579748379 300 400 300 c 0
500 356.927734375 m 1
 522.166990618 378.908447761 555.004161198 400 600 400 c 0
 682.842773438 400 750 332.842773438 750 250 c 0
 750 209.970703125 730.762695312 171.629882812 710.352539062 141.014648438 c 0
 663.915251969 71.3608467757 592.27136866 6.48915342521 530.034179688 -39.9736328125 c 0
 521.136393079 -46.6470949576 510.56054959 -49.9869478943 499.986334565 -49.9869478943 c 0
 483.964509017 -49.9869478943 471.385660134 -41.217098486 460.514648438 -32.6748046875 c 0
 403.453550029 12.1547943652 333.556565363 75.1530048699 289.647460938 141.014648438 c 0
 269.237304688 171.629882812 250 209.970703125 250 250 c 0
 250 332.842773438 317.157226562 400 400 400 c 0
 444.995859255 400 477.833218391 378.908240508 500 356.927734375 c 1
400 750 m 0
 372.385742188 750 350 727.614257812 350 700 c 0
 350 690.029296875 355.762695312 672.120117188 372.852539062 646.485351562 c 0
 402.615045316 601.839797964 460.663987914 546.885480501 500 514.043945312 c 1
 539.281867914 546.840275672 597.425798401 601.901066001 627.147460938 646.485351562 c 0
 644.237304688 672.120117188 650 690.029296875 650 700 c 0
 650 727.614257812 627.614257812 750 600 750 c 0
 571.491835594 750 554.236223092 715.833501771 541.345703125 696.883789062 c 0
 532.037109375 683.1953125 516.5546875 675 500 675 c 0
 483.4453125 675 467.962890625 683.1953125 458.654296875 696.883789062 c 0
 445.552748712 716.146897125 428.578389292 750 400 750 c 0
500 806.928710938 m 1
 522.231963903 828.880440001 554.955752119 850 600 850 c 0
 682.842773438 850 750 782.842773438 750 700 c 0
 750 659.970703125 730.762695312 621.629882812 710.352539062 591.014648438 c 0
 663.915251969 521.360846776 592.27136866 456.489153425 530.034179688 410.026367188 c 0
 521.136393079 403.352905042 510.56054959 400.013052106 499.986334565 400.013052106 c 0
 483.964509017 400.013052106 471.385660134 408.782901514 460.514648438 417.325195312 c 0
 403.453550029 462.154794365 333.556565363 525.15300487 289.647460938 591.014648438 c 0
 269.237304688 621.629882812 250 659.970703125 250 700 c 0
 250 782.842773438 317.157226562 850 400 850 c 0
 445.043624065 850 477.768474923 828.880006707 500 806.928710938 c 1
EndSplineSet
Substitution2: "'ss01' Add Cartouche Lines-1" olinTok.cart
Substitution2: "'ss02' Add Container Lines-1" olinTok.cont
EndChar

StartChar: onaTok
Encoding: 70 989510 70
Width: 1000
VWidth: 850
Flags: W
HStem: 200 100<638.02 760.473> 302 98<109.172 211.329> 500 100<639.527 760.473>
VStem: 500 100<338.571 460.473> 800 100<339.527 460.473>
LayerCount: 2
Fore
SplineSet
700 500 m 0
 645 500 600 455 600 400 c 0
 600 345 645 300 700 300 c 0
 755 300 800 345 800 400 c 0
 800 455 755 500 700 500 c 0
100 350 m 0
 100 380 126 400 151 400 c 0
 162 400 169 397 179 394 c 0
 274 367 403 335 518 317 c 1
 506 342 500 370 500 400 c 0
 500 510 590 600 700 600 c 0
 810 600 900 510 900 400 c 0
 900 290 810 200 700 200 c 0
 514 200 288 257 136 302 c 0
 114 308 100 328 100 350 c 0
EndSplineSet
Validated: 1
Substitution2: "'ss01' Add Cartouche Lines-1" onaTok.cart
Substitution2: "'ss02' Add Container Lines-1" onaTok.cont
EndChar

StartChar: openTok
Encoding: 71 989511 71
Width: 1000
VWidth: 850
Flags: W
HStem: 0 100<200 800> 200 100<200 800>
VStem: 100 100<100 200 300 791.562> 800 100<100 200 300 791.562>
LayerCount: 2
Fore
SplineSet
200 200 m 1
 200 100 l 1
 800 100 l 1
 800 200 l 1
 200 200 l 1
200 750 m 2
 200 300 l 1
 800 300 l 1
 800 750 l 2
 800 778 822 800 850 800 c 0
 878 800 900 778 900 750 c 2
 900 50 l 2
 900 22 878 0 850 0 c 2
 150 0 l 2
 122 0 100 22 100 50 c 2
 100 750 l 2
 100 778 122 800 150 800 c 0
 178 800 200 778 200 750 c 2
EndSplineSet
Validated: 1
Substitution2: "'ss01' Add Cartouche Lines-1" openTok.cart
Substitution2: "'ss02' Add Container Lines-1" openTok.cont
EndChar

StartChar: pakalaTok
Encoding: 72 989512 72
Width: 1000
VWidth: 950
Flags: W
HStem: -50 100<250 343 462 750> 350 100<462 538> 750 100<250 538 657 750>
VStem: 150 100<50 750> 750 100<50 750>
CounterMasks: 1 e0
LayerCount: 2
Fore
SplineSet
200 850 m 2
 800 850 l 2
 828 850 850 828 850 800 c 2
 850 0 l 2
 850 -28 828 -50 800 -50 c 2
 200 -50 l 2
 172 -50 150 -28 150 0 c 2
 150 800 l 2
 150 828 172 850 200 850 c 2
370 350 m 2
 345 350 320 371 320 400 c 0
 320 410 323 419 328 427 c 2
 538 750 l 1
 250 750 l 1
 250 50 l 1
 343 50 l 1
 538 350 l 1
 370 350 l 2
630 450 m 2
 655 450 680 429 680 400 c 0
 680 390 677 381 672 373 c 2
 462 50 l 1
 750 50 l 1
 750 750 l 1
 657 750 l 1
 462 450 l 1
 630 450 l 2
EndSplineSet
Validated: 1
Substitution2: "'ss01' Add Cartouche Lines-1" pakalaTok.cart
Substitution2: "'ss02' Add Container Lines-1" pakalaTok.cont
EndChar

StartChar: paliTok
Encoding: 73 989513 73
Width: 1000
VWidth: 950
Flags: W
HStem: 300 100<416.429 583.571> 750 100<417.304 582.696>
VStem: 225 100<492.292 657.696> 675 100<492.292 657.696> 750 100<-41.5625 172.564>
LayerCount: 2
Fore
SplineSet
50 300 m 0xe8
 50 326 70 350 100 350 c 0
 121 350 141 337 147 316 c 2
 180 217 l 1
 211 278 263 328 328 360 c 1
 265 411 225 488 225 575 c 0
 225 727 348 850 500 850 c 0
 652 850 775 727 775 575 c 0xf0
 775 488 735 411 672 360 c 1
 778 307 850 207 850 90 c 2
 850 0 l 2
 850 -28 828 -50 800 -50 c 0
 772 -50 750 -28 750 0 c 2
 750 90 l 2
 750 197 648 300 500 300 c 0
 352 300 250 197 250 90 c 2
 250 0 l 2
 250 -27 229 -50 200 -50 c 0
 179 -50 159 -36 153 -16 c 2
 53 284 l 2
 51 289 50 295 50 300 c 0xe8
500 400 m 0
 597 400 675 478 675 575 c 0
 675 672 597 750 500 750 c 0
 403 750 325 672 325 575 c 0
 325 478 403 400 500 400 c 0
EndSplineSet
Validated: 1
Substitution2: "'ss01' Add Cartouche Lines-1" paliTok.cart
Substitution2: "'ss02' Add Container Lines-1" paliTok.cont
EndChar

StartChar: palisaTok
Encoding: 74 989514 74
Width: 1000
VWidth: 950
Flags: W
HStem: -50 100<440.765 561.235> 750 100<440.765 561.235>
VStem: 302 100<89.7881 710.212> 600 100<89.7881 710.212>
LayerCount: 2
Fore
SplineSet
302 651 m 2
 302 761 391 850 501 850 c 0
 611 850 700 761 700 651 c 2
 700 149 l 2
 700 39 611 -50 501 -50 c 0
 391 -50 302 39 302 149 c 2
 302 651 l 2
501 750 m 0
 446 750 402 706 402 651 c 2
 402 149 l 2
 402 94 446 50 501 50 c 0
 556 50 600 94 600 149 c 2
 600 651 l 2
 600 706 556 750 501 750 c 0
EndSplineSet
Validated: 1
Substitution2: "'ss01' Add Cartouche Lines-1" palisaTok.cart
Substitution2: "'ss02' Add Container Lines-1" palisaTok.cont
EndChar

StartChar: panTok
Encoding: 75 989515 75
Width: 1000
VWidth: 950
Flags: W
LayerCount: 2
Fore
SplineSet
200 800 m 0
 200 826 224 850 250 850 c 0
 263 850 275 845 285 835 c 2
 500 621 l 1
 715 835 l 2
 725 845 737 850 750 850 c 0
 776 850 800 826 800 800 c 0
 800 787 795 775 785 765 c 2
 535 515 l 2
 525 505 513 500 500 500 c 0
 487 500 475 505 465 515 c 2
 215 765 l 2
 205 775 200 787 200 800 c 0
200 525 m 0
 200 551 224 575 250 575 c 0
 263 575 275 570 285 560 c 2
 500 346 l 1
 715 560 l 2
 725 570 737 575 750 575 c 0
 776 575 800 551 800 525 c 0
 800 512 795 500 785 490 c 2
 535 240 l 2
 525 230 513 225 500 225 c 0
 487 225 475 230 465 240 c 2
 215 490 l 2
 205 500 200 512 200 525 c 0
200 250 m 0
 200 276 224 300 250 300 c 0
 263 300 275 295 285 285 c 2
 500 71 l 1
 715 285 l 2
 725 295 737 300 750 300 c 0
 776 300 800 276 800 250 c 0
 800 237 795 225 785 215 c 2
 535 -35 l 2
 525 -45 513 -50 500 -50 c 0
 487 -50 475 -45 465 -35 c 2
 215 215 l 2
 205 225 200 237 200 250 c 0
EndSplineSet
Validated: 1
Substitution2: "'ss01' Add Cartouche Lines-1" panTok.cart
Substitution2: "'ss02' Add Container Lines-1" panTok.cont
EndChar

StartChar: panaTok
Encoding: 76 989516 76
Width: 1000
VWidth: 950
Flags: W
HStem: 548 100<503.504 696.496> 649 152<369.654 432.153 769.968 832.153> 700 150<559.701 642.562>
VStem: 250 100<187 393.711> 342 117<683.172 769.116> 551 100<709.117 840.883> 742 117<680.1 766.828> 850 100<-41.5625 393.711>
LayerCount: 2
Fore
SplineSet
50 348 m 0x95
 50 373 70 398 100 398 c 0
 118 398 134 389 143 373 c 2
 250 187 l 1
 250 298 l 2
 250 491 407 648 600 648 c 0
 793 648 950 491 950 298 c 2
 950 0 l 2
 950 -28 928 -50 900 -50 c 0
 872 -50 850 -28 850 0 c 2
 850 298 l 2
 850 436 738 548 600 548 c 0
 462 548 350 436 350 298 c 2
 350 0 l 2
 350 -26 329 -50 299 -50 c 0
 282 -50 266 -41 257 -25 c 2
 57 323 l 2
 52 331 50 339 50 348 c 0x95
601 850 m 0xa4
 629 850 651 828 651 800 c 2
 651 750 l 2
 651 722 629 700 601 700 c 0
 574 700 551 722 551 750 c 2
 551 800 l 2
 551 828 574 850 601 850 c 0xa4
809 801 m 0xc6
 840 801 859 773 859 748 c 0
 859 742 858 736 856 730 c 2
 837 680 l 2
 830 661 811 649 792 649 c 0
 761 649 742 677 742 703 c 0
 742 709 743 715 745 721 c 2
 765 770 l 1
 772 789 790 801 809 801 c 0xc6
342 748 m 0xcc
 342 773 362 801 393 801 c 0
 412 801 430 789 437 770 c 2
 456 721 l 2
 458 715 459 708 459 702 c 0
 459 677 440 649 409 649 c 0
 390 649 372 661 365 680 c 2
 346 730 l 2
 344 736 342 742 342 748 c 0xcc
EndSplineSet
Validated: 1
Substitution2: "'ss01' Add Cartouche Lines-1" panaTok.cart
Substitution2: "'ss02' Add Container Lines-1" panaTok.cont
EndChar

StartChar: piTok
Encoding: 77 989517 77
Width: 1000
VWidth: 950
Flags: W
HStem: 0 100<200 891.562>
VStem: 100 100<100 791.562>
LayerCount: 2
Fore
SplineSet
150 800 m 0
 178 800 200 778 200 750 c 2
 200 100 l 1
 850 100 l 2
 878 100 900 78 900 50 c 0
 900 22 878 0 850 0 c 2
 150 0 l 2
 122 0 100 22 100 50 c 2
 100 750 l 2
 100 778 122 800 150 800 c 0
EndSplineSet
Validated: 1
Substitution2: "'ss01' Add Cartouche Lines-1" piTok.cart
Substitution2: "'ss02' Add Container Lines-1" piTok.cont
EndChar

StartChar: pilinTok
Encoding: 78 989518 78
Width: 1000
VWidth: 950
Flags: W
HStem: 0 112<475.168 525.516> 10 102<475.083 499.531 500.469 525.386> 700 100<223.917 374.245 626.326 776.083>
VStem: 50 100<471.52 626.083> 850 100<471.52 626.083>
LayerCount: 2
Fore
SplineSet
469 11 m 2x78
 464 16 460 19 452 24 c 0
 390 75 335 118 265 190 c 0
 213 241 161 300 121 360 c 0
 82 419 50 485 50 550 c 0
 50 688 162 800 300 800 c 0
 371 800 430 768 471 731 c 0
 480 723 488 699 496 699 c 0
 497 699 499 700 500 701 c 0
 542 753 612 800 700 800 c 0
 838 800 950 688 950 550 c 0
 950 485 918 419 879 360 c 0
 809 254 686 136 595 62 c 0
 568 41 556 28 535 14 c 0
 533 13 532 12 531 11 c 2
 531 11 531 10 530 10 c 0x78
 521 4 510 0 500 0 c 0xb8
 490 0 479 4 470 10 c 0
 469 10 469 11 469 11 c 2x78
300 700 m 0
 217 700 150 633 150 550 c 0
 150 515 168 469 204 415 c 0
 239 363 287 309 335 260 c 0
 384 212 433 169 470 138 c 0
 481 129 491 120 500 113 c 0
 501 112 502 112 503 112 c 0xb8
 511 112 520 130 530 138 c 0
 567 169 616 212 665 260 c 0
 713 309 761 363 796 415 c 0
 832 469 850 515 850 550 c 0
 850 633 783 700 700 700 c 0
 660 700 624 682 596 656 c 0
 566 630 551 601 549 590 c 0
 544 567 524 550 500 550 c 0
 476 550 456 567 451 590 c 0
 449 601 434 630 404 656 c 0
 376 682 340 700 300 700 c 0
EndSplineSet
Validated: 1
Substitution2: "'ss01' Add Cartouche Lines-1" pilinTok.cart
Substitution2: "'ss02' Add Container Lines-1" pilinTok.cont
EndChar

StartChar: pimejaTok
Encoding: 79 989519 79
Width: 1000
VWidth: 850
Flags: W
HStem: 0 100<197 321 437 563 679 803>
LayerCount: 2
Fore
SplineSet
562 517 m 1
 500 625 l 1
 438 517 l 1
 500 410 l 1
 562 517 l 1
679 100 m 1
 803 100 l 1
 620 417 l 1
 558 310 l 1
 679 100 l 1
437 100 m 1
 563 100 l 1
 500 210 l 1
 437 100 l 1
321 100 m 1
 442 310 l 1
 380 417 l 1
 197 100 l 1
 321 100 l 1
110 0 m 2
 84 0 60 21 60 50 c 0
 60 59 63 67 67 75 c 2
 457 750 l 2
 466 765 482 775 500 775 c 0
 518 775 534 765 543 750 c 2
 933 75 l 2
 937 67 940 59 940 50 c 0
 940 21 916 0 890 0 c 2
 110 0 l 2
EndSplineSet
Validated: 1
Substitution2: "'ss01' Add Cartouche Lines-1" pimejaTok.cart
Substitution2: "'ss02' Add Container Lines-1" pimejaTok.cont
EndChar

StartChar: piniTok
Encoding: 80 989520 80
Width: 1000
VWidth: 850
Flags: W
HStem: 0 100<108.438 450 550 891.562> 700 100<108.438 450 550 891.562>
VStem: 450 100<100 700>
LayerCount: 2
Fore
SplineSet
550 700 m 1
 550 100 l 1
 850 100 l 2
 878 100 900 78 900 50 c 0
 900 22 878 0 850 0 c 2
 150 0 l 2
 122 0 100 22 100 50 c 0
 100 78 122 100 150 100 c 2
 450 100 l 1
 450 700 l 1
 150 700 l 2
 122 700 100 722 100 750 c 0
 100 778 122 800 150 800 c 2
 850 800 l 2
 878 800 900 778 900 750 c 0
 900 722 878 700 850 700 c 2
 550 700 l 1
EndSplineSet
Validated: 1
Substitution2: "'ss01' Add Cartouche Lines-1" piniTok.cart
Substitution2: "'ss02' Add Container Lines-1" piniTok.cont
EndChar

StartChar: pipiTok
Encoding: 81 989521 81
Width: 1000
VWidth: 850
Flags: W
HStem: 88 75<185.552 450 550 814.448> 288 75<165.745 450 550 834.255> 488 75<187.745 450 550 818.448> 700 150<273.417 376.583 623.417 726.583>
VStem: 250 150<723.417 826.583> 450 100<-41.5625 88 163 288 363 488 563 691.562> 600 150<723.417 826.583>
CounterMasks: 1 0e
LayerCount: 2
Fore
SplineSet
750 775 m 0
 750 734 716 700 675 700 c 0
 634 700 600 734 600 775 c 0
 600 816 634 850 675 850 c 0
 716 850 750 816 750 775 c 0
184 525 m 0
 184 546 201 563 222 563 c 2
 450 563 l 1
 450 650 l 2
 450 678 472 700 500 700 c 0
 528 700 550 678 550 650 c 2
 550 563 l 1
 785 563 l 2
 806 563 822 546 822 525 c 0
 822 504 806 488 785 488 c 2
 550 488 l 1
 550 363 l 1
 800 363 l 2
 821 363 838 346 838 325 c 0
 838 304 821 288 800 288 c 2
 550 288 l 1
 550 163 l 1
 781 163 l 2
 802 163 818 146 818 125 c 0
 818 104 802 88 781 88 c 2
 550 88 l 1
 550 0 l 2
 550 -28 528 -50 500 -50 c 0
 472 -50 450 -28 450 0 c 2
 450 88 l 1
 219 88 l 2
 198 88 182 104 182 125 c 0
 182 146 198 163 219 163 c 2
 450 163 l 1
 450 288 l 1
 200 288 l 2
 179 288 162 304 162 325 c 0
 162 346 179 363 200 363 c 2
 450 363 l 1
 450 488 l 1
 222 488 l 2
 201 488 184 504 184 525 c 0
325 700 m 0
 284 700 250 734 250 775 c 0
 250 816 284 850 325 850 c 0
 366 850 400 816 400 775 c 0
 400 734 366 700 325 700 c 0
EndSplineSet
Validated: 1
Substitution2: "'ss01' Add Cartouche Lines-1" pipiTok.cart
Substitution2: "'ss02' Add Container Lines-1" pipiTok.cont
EndChar

StartChar: pokaTok
Encoding: 82 989522 82
Width: 1000
VWidth: 850
Flags: W
HStem: 200 100<150 650> 325 150<823.417 926.583>
VStem: 50 100<300 591.562> 650 100<300 591.562> 800 150<348.417 451.583>
LayerCount: 2
Fore
SplineSet
100 600 m 0
 128 600 150 578 150 550 c 2
 150 300 l 1
 650 300 l 1
 650 550 l 2
 650 578 672 600 700 600 c 0
 728 600 750 578 750 550 c 2
 750 250 l 2
 750 222 728 200 700 200 c 2
 100 200 l 2
 72 200 50 222 50 250 c 2
 50 550 l 2
 50 578 72 600 100 600 c 0
950 400 m 0
 950 359 916 325 875 325 c 0
 834 325 800 359 800 400 c 0
 800 441 834 475 875 475 c 0
 916 475 950 441 950 400 c 0
EndSplineSet
Validated: 1
Substitution2: "'ss01' Add Cartouche Lines-1" pokaTok.cart
Substitution2: "'ss02' Add Container Lines-1" pokaTok.cont
EndChar

StartChar: pokiTok
Encoding: 83 989523 83
Width: 1000
VWidth: 850
Flags: W
HStem: 50 100<250 750>
VStem: 150 100<150 741.562> 750 100<150 741.562>
LayerCount: 2
Fore
SplineSet
200 750 m 0
 228 750 250 728 250 700 c 2
 250 150 l 1
 750 150 l 1
 750 700 l 2
 750 728 772 750 800 750 c 0
 828 750 850 728 850 700 c 2
 850 100 l 2
 850 72 828 50 800 50 c 2
 200 50 l 2
 172 50 150 72 150 100 c 2
 150 700 l 2
 150 728 172 750 200 750 c 0
EndSplineSet
Validated: 1
Substitution2: "'ss01' Add Cartouche Lines-1" pokiTok.cart
Substitution2: "'ss02' Add Container Lines-1" pokiTok.cont
EndChar

StartChar: ponaTok
Encoding: 84 989524 84
Width: 1000
VWidth: 850
Flags: W
HStem: 200 100<376.448 623.552>
VStem: 50 98<509.937 590.936>
LayerCount: 2
Fore
SplineSet
50 550 m 0
 50 575 70 600 100 600 c 0
 122 600 142 585 148 563 c 0
 188 413 330 300 500 300 c 0
 670 300 812 413 852 563 c 0
 858 585 878 600 900 600 c 0
 930 600 950 575 950 550 c 0
 950 546 949 541 948 537 c 0
 896 342 715 200 500 200 c 0
 285 200 104 342 52 537 c 0
 51 541 50 546 50 550 c 0
EndSplineSet
Validated: 1
Substitution2: "'ss01' Add Cartouche Lines-1" ponaTok.cart
Substitution2: "'ss02' Add Container Lines-1" ponaTok.cont
EndChar

StartChar: puTok
Encoding: 85 989525 85
Width: 1000
VWidth: 950
Flags: W
HStem: -50 100<250 750> 100 60<419.923 580.077> 200 60<449.259 550.741> 500 60<419.923 580.077> 535 100<652 702> 584 121<476.214 526.785> 750 100<250 750>
VStem: 150 100<50 750> 270 60<249.923 410.077> 276 100<560 610> 370 60<279.312 358.894> 476 51<584.416 704.616> 570 60<279.312 358.894> 626 101<560 610> 670 60<249.923 410.077> 750 100<50 750>
LayerCount: 2
Fore
SplineSet
150 800 m 2xe311
 150 828 172 850 200 850 c 2
 800 850 l 2
 828 850 850 828 850 800 c 2
 850 0 l 2
 850 -28 828 -50 800 -50 c 2
 200 -50 l 2
 172 -50 150 -28 150 0 c 2
 150 800 l 2xe311
250 750 m 1
 250 50 l 1
 750 50 l 1
 750 750 l 1
 250 750 l 1
670 330 m 0xf393
 670 424 594 500 500 500 c 0
 406 500 330 424 330 330 c 0
 330 236 406 160 500 160 c 0
 594 160 670 236 670 330 c 0xf393
500 100 m 0
 373 100 270 203 270 330 c 0
 270 457 373 560 500 560 c 0
 627 560 730 457 730 330 c 0
 730 203 627 100 500 100 c 0
570 330 m 0xe339
 570 347 583 360 600 360 c 0
 617 360 630 347 630 330 c 0
 630 258 572 200 500 200 c 0
 428 200 370 258 370 330 c 0
 370 347 383 360 400 360 c 0
 417 360 430 347 430 330 c 0
 430 291 461 260 500 260 c 0
 539 260 570 291 570 330 c 0xe339
276 610 m 0xeb51
 276 623 286 635 300 635 c 0xeb51
 306 635 313 632 318 628 c 2
 368 578 l 2
 373 573 376 566 376 560 c 0xf351
 376 547 364 535 350 535 c 0
 344 535 338 538 333 542 c 2
 283 592 l 2
 278 597 276 604 276 610 c 0xeb51
652 535 m 0
 638 535 626 546 626 560 c 0xf315
 626 566 629 573 634 578 c 2
 684 628 l 2
 689 632 696 635 702 635 c 0
 716 635 727 624 727 610 c 0xeb15
 727 604 724 597 720 592 c 2
 669 542 l 2
 665 538 658 535 652 535 c 0
501 705 m 0xe711
 515 705 527 694 527 680 c 2
 527 609 l 2
 527 596 515 584 501 584 c 0
 488 584 476 596 476 609 c 2
 476 680 l 2
 476 694 488 705 501 705 c 0xe711
EndSplineSet
Validated: 1
Substitution2: "'ss01' Add Cartouche Lines-1" puTok.cart
Substitution2: "'ss02' Add Container Lines-1" puTok.cont
EndChar

StartChar: samaTok
Encoding: 86 989526 86
Width: 1000
VWidth: 950
Flags: W
HStem: 100 100<58.4375 941.562> 600 100<58.4375 941.562>
LayerCount: 2
Fore
SplineSet
950 650 m 0
 950 622 928 600 900 600 c 2
 100 600 l 2
 72 600 50 622 50 650 c 0
 50 678 72 700 100 700 c 2
 900 700 l 2
 928 700 950 678 950 650 c 0
950 150 m 0
 950 122 928 100 900 100 c 2
 100 100 l 2
 72 100 50 122 50 150 c 0
 50 178 72 200 100 200 c 2
 900 200 l 2
 928 200 950 178 950 150 c 0
EndSplineSet
Validated: 1
Substitution2: "'ss01' Add Cartouche Lines-1" samaTok.cart
Substitution2: "'ss02' Add Container Lines-1" samaTok.cont
EndChar

StartChar: seliTok
Encoding: 87 989527 87
Width: 1000
VWidth: 850
Flags: W
HStem: -50 150<448.417 551.583>
VStem: 425 150<-26.5827 76.5827> 450 100<283.438 841.562>
LayerCount: 2
Fore
SplineSet
100 731 m 0x80
 100 756 120 781 150 781 c 0
 169 781 187 770 195 752 c 2
 395 321 l 2
 398 314 400 307 400 300 c 0
 400 275 380 250 350 250 c 0
 331 250 313 261 305 279 c 2
 105 710 l 2
 102 717 100 724 100 731 c 0x80
850 781 m 0
 880 781 900 756 900 731 c 0
 900 724 899 717 896 710 c 2
 695 279 l 2
 687 261 669 250 650 250 c 0
 620 250 600 275 600 300 c 0
 600 307 602 314 605 321 c 2
 805 752 l 2
 813 770 831 781 850 781 c 0
500 850 m 0
 528 850 550 828 550 800 c 2
 550 325 l 2
 550 297 528 275 500 275 c 0
 472 275 450 297 450 325 c 2
 450 800 l 2xa0
 450 828 472 850 500 850 c 0
575 25 m 0xc0
 575 -16 541 -50 500 -50 c 0
 459 -50 425 -16 425 25 c 0
 425 66 459 100 500 100 c 0
 541 100 575 66 575 25 c 0xc0
EndSplineSet
Validated: 1
Substitution2: "'ss01' Add Cartouche Lines-1" seliTok.cart
Substitution2: "'ss02' Add Container Lines-1" seliTok.cont
EndChar

StartChar: seloTok
Encoding: 88 989528 88
Width: 1000
VWidth: 850
Flags: W
HStem: 0 21G<136 164 836 864> 700 100<200 250 350 650 750 800>
VStem: 100 100<8.4375 700> 250 100<58.4375 700> 650 100<58.4375 700> 800 100<8.4375 700>
LayerCount: 2
Fore
SplineSet
200 50 m 2
 200 22 178 0 150 0 c 0
 122 0 100 22 100 50 c 2
 100 750 l 2
 100 778 122 800 150 800 c 2
 850 800 l 2
 878 800 900 778 900 750 c 2
 900 50 l 2
 900 22 878 0 850 0 c 0
 822 0 800 22 800 50 c 2
 800 700 l 1
 750 700 l 1
 750 100 l 2
 750 72 728 50 700 50 c 0
 672 50 650 72 650 100 c 2
 650 700 l 1
 350 700 l 1
 350 100 l 2
 350 72 328 50 300 50 c 0
 272 50 250 72 250 100 c 2
 250 700 l 1
 200 700 l 1
 200 50 l 2
EndSplineSet
Validated: 1
Substitution2: "'ss01' Add Cartouche Lines-1" seloTok.cart
Substitution2: "'ss02' Add Container Lines-1" seloTok.cont
EndChar

StartChar: semeTok
Encoding: 89 989529 89
Width: 1000
VWidth: 950
Flags: W
HStem: -50 150<448.417 551.583> 750 100<358.49 641.51>
VStem: 150 100<558.438 668.588> 425 150<-26.5827 76.5827> 450 100<208.438 344.495> 750 100<561.291 669.505>
LayerCount: 2
Fore
SplineSet
575 25 m 0xf4
 575 -16 541 -50 500 -50 c 0
 459 -50 425 -16 425 25 c 0
 425 66 459 100 500 100 c 0
 541 100 575 66 575 25 c 0xf4
500 850 m 0
 680 850 850 778 850 600 c 0
 850 544 819 505 784 478 c 0
 726 430 632 400 580 355 c 0
 559 337 550 320 550 300 c 2
 550 250 l 2
 550 222 528 200 500 200 c 0
 472 200 450 222 450 250 c 2
 450 300 l 2xec
 450 414 556 465 632 503 c 0
 669 522 700 538 722 556 c 0
 744 573 750 587 750 600 c 0
 750 649 727 684 686 709 c 0
 643 735 578 750 500 750 c 0
 422 750 357 735 314 709 c 0
 273 684 250 649 250 600 c 0
 250 572 228 550 200 550 c 0
 172 550 150 572 150 600 c 0
 150 777 320 850 500 850 c 0
EndSplineSet
Validated: 1
Substitution2: "'ss01' Add Cartouche Lines-1" semeTok.cart
Substitution2: "'ss02' Add Container Lines-1" semeTok.cont
EndChar

StartChar: sewiTok
Encoding: 90 989530 90
Width: 1000
VWidth: 850
Flags: W
HStem: -50 500<220 340> -50 100<58.4375 118.012>
VStem: 170 100<164.102 441.562> 410 100<265.397 615.883> 650 100<458.777 791.562> 850 100<-51.5625 831.562>
LayerCount: 2
Fore
SplineSet
170 399 m 2x7c
 170 400 l 0
 170 428 192 450 220 450 c 0xbc
 248 450 270 428 270 400 c 2
 271 297 282 158 316 83 c 0
 324 66 330 55 339 50 c 1
 348 58 354 70 362 93 c 0
 377 133 388 191 395 256 c 0
 406 356 409 464 410 530 c 0
 410 534 410 539 410 543 c 0
 410 556 410 568 410 576 c 0
 410 603 433 625 460 625 c 0
 488 625 510 603 510 575 c 2
 510 564 510 548 510 529 c 0
 510 463 512 356 524 256 c 0
 531 191 542 133 557 93 c 0
 565 71 572 59 579 52 c 1
 586 60 594 74 602 98 c 0
 648 236 650 507 650 691 c 0
 650 712 650 732 650 750 c 0
 650 778 672 800 700 800 c 0
 728 800 750 778 750 750 c 2
 750 749 l 2
 750 740 750 731 750 721 c 0
 750 528 749 222 697 66 c 0
 688 38 675 11 658 -10 c 0
 640 -32 615 -50 580 -50 c 0x7c
 510 -50 478 16 460 69 c 1
 450 39 436 10 417 -12 c 0
 399 -32 374 -50 340 -50 c 0xbc
 273 -50 238 9 220 54 c 1
 202 9 167 -50 100 -50 c 0
 72 -50 50 -28 50 0 c 0
 50 28 72 50 100 50 c 0
 101 50 102 51 105 53 c 0
 110 58 117 67 124 83 c 0
 158 157 170 296 170 399 c 2x7c
900 -60 m 0
 872 -60 850 -38 850 -10 c 2
 850 790 l 2
 850 818 872 840 900 840 c 0
 928 840 950 818 950 790 c 2
 950 -10 l 2
 950 -38 928 -60 900 -60 c 0
EndSplineSet
Validated: 1
Substitution2: "'ss01' Add Cartouche Lines-1" sewiTok.cart
Substitution2: "'ss02' Add Container Lines-1" sewiTok.cont
EndChar

StartChar: sijeloTok
Encoding: 91 989531 91
Width: 1000
VWidth: 850
Flags: W
HStem: 0 21G<136 164 836 864> 700 100<200 450 550 800>
VStem: 100 100<8.4375 700> 450 100<58.4375 700> 800 100<8.4375 700>
CounterMasks: 1 38
LayerCount: 2
Fore
SplineSet
200 50 m 2
 200 22 178 0 150 0 c 0
 122 0 100 22 100 50 c 2
 100 750 l 2
 100 778 122 800 150 800 c 0
 383 800 617 800 850 800 c 0
 878 800 900 778 900 750 c 2
 900 50 l 2
 900 22 878 0 850 0 c 0
 822 0 800 22 800 50 c 2
 800 700 l 1
 550 700 l 1
 550 100 l 2
 550 72 528 50 500 50 c 0
 472 50 450 72 450 100 c 2
 450 700 l 1
 200 700 l 1
 200 50 l 2
EndSplineSet
Validated: 1
Substitution2: "'ss01' Add Cartouche Lines-1" sijeloTok.cart
Substitution2: "'ss02' Add Container Lines-1" sijeloTok.cont
EndChar

StartChar: sikeTok
Encoding: 92 989532 92
Width: 1000
VWidth: 950
Flags: W
HStem: -50 100<383.579 616.421> 150 100<423.917 576.083> 550 100<423.917 576.083> 750 100<383.579 616.421>
VStem: 50 100<283.579 516.421> 250 100<323.917 476.083> 650 100<323.917 476.083> 850 100<283.579 516.421>
LayerCount: 2
Fore
SplineSet
500 50 m 0
 693 50 850 207 850 400 c 0
 850 593 693 750 500 750 c 0
 307 750 150 593 150 400 c 0
 150 207 307 50 500 50 c 0
500 -50 m 0
 251 -50 50 151 50 400 c 0
 50 649 251 850 500 850 c 0
 749 850 950 649 950 400 c 0
 950 151 749 -50 500 -50 c 0
650 400 m 0
 650 483 583 550 500 550 c 0
 417 550 350 483 350 400 c 0
 350 317 417 250 500 250 c 0
 583 250 650 317 650 400 c 0
500 150 m 0
 362 150 250 262 250 400 c 0
 250 538 362 650 500 650 c 0
 638 650 750 538 750 400 c 0
 750 262 638 150 500 150 c 0
EndSplineSet
Validated: 1
Substitution2: "'ss01' Add Cartouche Lines-1" sikeTok.cart
Substitution2: "'ss02' Add Container Lines-1" sikeTok.cont
EndChar

StartChar: sinTok
Encoding: 93 989533 93
Width: 1000
VWidth: 950
Flags: W
HStem: 150 100<58.4375 391.562 608.438 941.562>
VStem: 450 100<308.438 641.562>
LayerCount: 2
Fore
SplineSet
600 200 m 0
 600 228 622 250 650 250 c 2
 900 250 l 2
 928 250 950 228 950 200 c 0
 950 172 928 150 900 150 c 2
 650 150 l 2
 622 150 600 172 600 200 c 0
500 650 m 0
 528 650 550 628 550 600 c 2
 550 350 l 2
 550 322 528 300 500 300 c 0
 472 300 450 322 450 350 c 2
 450 600 l 2
 450 628 472 650 500 650 c 0
50 200 m 0
 50 228 72 250 100 250 c 2
 350 250 l 2
 378 250 400 228 400 200 c 0
 400 172 378 150 350 150 c 2
 100 150 l 2
 72 150 50 172 50 200 c 0
EndSplineSet
Validated: 1
Substitution2: "'ss01' Add Cartouche Lines-1" sinTok.cart
Substitution2: "'ss02' Add Container Lines-1" sinTok.cont
EndChar

StartChar: sinaTok
Encoding: 94 989534 94
Width: 1000
VWidth: 850
Flags: W
HStem: 0 100<439.527 560.473> 300 100<438.571 560.473>
VStem: 300 100<139.527 257.573> 402 98<688.671 790.828> 600 100<139.527 260.473>
LayerCount: 2
Fore
SplineSet
600 200 m 0
 600 255 555 300 500 300 c 0
 445 300 400 255 400 200 c 0
 400 145 445 100 500 100 c 0
 555 100 600 145 600 200 c 0
450 800 m 0
 480 800 500 774 500 749 c 0
 500 738 497 731 494 721 c 0
 467 626 435 497 417 382 c 1
 442 394 470 400 500 400 c 0
 610 400 700 310 700 200 c 0
 700 90 610 0 500 0 c 0
 390 0 300 90 300 200 c 0
 300 387 357 612 402 764 c 0
 408 786 428 800 450 800 c 0
EndSplineSet
Validated: 1
Substitution2: "'ss01' Add Cartouche Lines-1" sinaTok.cart
Substitution2: "'ss02' Add Container Lines-1" sinaTok.cont
EndChar

StartChar: sinpinTok
Encoding: 95 989535 95
Width: 1000
VWidth: 850
Flags: W
HStem: -50 100<208.438 500> 325 150<673.417 776.583> 750 100<208.438 500>
VStem: 500 100<50 750> 650 150<348.417 451.583>
CounterMasks: 1 e0
LayerCount: 2
Fore
SplineSet
725 475 m 0
 766 475 800 441 800 400 c 0
 800 359 766 325 725 325 c 0
 684 325 650 359 650 400 c 0
 650 441 684 475 725 475 c 0
200 0 m 0
 200 28 222 50 250 50 c 2
 500 50 l 1
 500 750 l 1
 250 750 l 2
 222 750 200 772 200 800 c 0
 200 828 222 850 250 850 c 2
 550 850 l 2
 578 850 600 828 600 800 c 2
 600 0 l 2
 600 -28 578 -50 550 -50 c 2
 250 -50 l 2
 222 -50 200 -28 200 0 c 0
EndSplineSet
Validated: 1
Substitution2: "'ss01' Add Cartouche Lines-1" sinpinTok.cart
Substitution2: "'ss02' Add Container Lines-1" sinpinTok.cont
EndChar

StartChar: sitelenTok
Encoding: 96 989536 96
Width: 1000
VWidth: 950
Flags: W
HStem: -50 100<250 750> 350 100<308.438 391.562 458.438 541.562 608.438 691.562> 750 100<250 750>
VStem: 150 100<50 750> 300 100<358.438 441.562> 450 100<358.438 441.562> 600 100<358.438 441.562> 750 100<50 750>
CounterMasks: 1 e0
LayerCount: 2
Fore
SplineSet
150 800 m 2
 150 828 172 850 200 850 c 2
 800 850 l 2
 828 850 850 828 850 800 c 2
 850 0 l 2
 850 -28 828 -50 800 -50 c 2
 200 -50 l 2
 172 -50 150 -28 150 0 c 2
 150 800 l 2
250 750 m 1
 250 50 l 1
 750 50 l 1
 750 750 l 1
 250 750 l 1
400 400 m 0
 400 372 378 350 350 350 c 0
 322 350 300 372 300 400 c 0
 300 428 322 450 350 450 c 0
 378 450 400 428 400 400 c 0
550 400 m 0
 550 372 528 350 500 350 c 0
 472 350 450 372 450 400 c 0
 450 428 472 450 500 450 c 0
 528 450 550 428 550 400 c 0
700 400 m 0
 700 372 678 350 650 350 c 0
 622 350 600 372 600 400 c 0
 600 428 622 450 650 450 c 0
 678 450 700 428 700 400 c 0
EndSplineSet
Validated: 1
Substitution2: "'ss01' Add Cartouche Lines-1" sitelenTok.cart
Substitution2: "'ss02' Add Container Lines-1" sitelenTok.cont
EndChar

StartChar: sonaTok
Encoding: 97 989537 97
Width: 1000
VWidth: 950
Flags: W
HStem: -50 100<250 750> 550 100<250 750> 690 146<268.398 330.602 668.398 730.602> 700 150<458.438 541.562>
VStem: 150 100<50 550> 240 119<724.082 802.125> 450 100<708.438 841.562> 640 119<724.082 802.125> 750 100<50 550>
LayerCount: 2
Fore
SplineSet
150 600 m 2xca80
 150 628 172 650 200 650 c 2
 800 650 l 2
 828 650 850 628 850 600 c 2
 850 0 l 2
 850 -28 828 -50 800 -50 c 2
 200 -50 l 2
 172 -50 150 -28 150 0 c 2
 150 600 l 2xca80
250 550 m 1
 250 50 l 1
 750 50 l 1
 750 550 l 1
 250 550 l 1
500 850 m 0xd2
 528 850 550 828 550 800 c 2
 550 750 l 2
 550 722 528 700 500 700 c 0
 472 700 450 722 450 750 c 2
 450 800 l 2
 450 828 472 850 500 850 c 0xd2
709 836 m 0xe3
 739 836 759 811 759 786 c 0
 759 779 758 773 755 767 c 2
 736 721 l 2
 729 702 709 690 690 690 c 0
 660 690 640 714 640 739 c 0
 640 746 641 752 644 759 c 2
 663 805 l 2
 671 824 690 836 709 836 c 0xe3
240 786 m 0xe6
 240 811 260 836 290 836 c 0
 309 836 329 824 336 805 c 2
 355 759 l 2
 358 752 359 746 359 739 c 0
 359 714 339 690 309 690 c 0
 290 690 271 702 263 721 c 2
 244 767 l 2
 241 773 240 779 240 786 c 0xe6
EndSplineSet
Validated: 1
Substitution2: "'ss01' Add Cartouche Lines-1" sonaTok.cart
Substitution2: "'ss02' Add Container Lines-1" sonaTok.cont
EndChar

StartChar: soweliTok
Encoding: 98 989538 98
Width: 1000
VWidth: 950
Flags: W
HStem: -50 300<158.438 241.562 358.438 441.562 558.438 638.056> 425 150<373.417 476.583 623.417 726.583> 750 100<58.4375 695.711>
VStem: 150 100<-41.5625 241.562> 350 150<448.417 551.583> 350 100<-41.5625 241.562> 550 100<-41.5625 156.605> 600 150<448.417 551.583> 850 100<403.745 596.496>
LayerCount: 2
Fore
SplineSet
50 800 m 0xf180
 50 828 72 850 100 850 c 2
 600 850 l 2xf180
 793 850 950 693 950 500 c 0
 950 324 820 178 650 154 c 1
 650 0 l 2xf280
 650 -28 628 -50 600 -50 c 0xf180
 572 -50 550 -28 550 0 c 2
 550 200 l 2xf280
 550 228 572 250 600 250 c 0
 738 250 850 362 850 500 c 0
 850 638 738 750 600 750 c 2
 100 750 l 2
 72 750 50 772 50 800 c 0xf180
450 200 m 2xf480
 450 0 l 2
 450 -28 428 -50 400 -50 c 0
 372 -50 350 -28 350 0 c 2
 350 200 l 2
 350 228 372 250 400 250 c 0
 428 250 450 228 450 200 c 2xf480
200 250 m 0
 228 250 250 228 250 200 c 2
 250 0 l 2
 250 -28 228 -50 200 -50 c 0
 172 -50 150 -28 150 0 c 2
 150 200 l 2
 150 228 172 250 200 250 c 0
750 500 m 0xf180
 750 459 716 425 675 425 c 0
 634 425 600 459 600 500 c 0
 600 541 634 575 675 575 c 0
 716 575 750 541 750 500 c 0xf180
425 425 m 0
 384 425 350 459 350 500 c 0
 350 541 384 575 425 575 c 0
 466 575 500 541 500 500 c 0xf880
 500 459 466 425 425 425 c 0
EndSplineSet
Validated: 1
Substitution2: "'ss01' Add Cartouche Lines-1" soweliTok.cart
Substitution2: "'ss02' Add Container Lines-1" soweliTok.cont
EndChar

StartChar: suliTok
Encoding: 99 989539 99
Width: 1000
VWidth: 950
Flags: W
LayerCount: 2
Fore
SplineSet
850 850 m 0
 878 850 900 827 900 800 c 0
 900 789 896 778 889 769 c 0
 777 625 695 443 638 289 c 0
 582 135 554 13 549 -10 c 0
 544 -33 524 -50 500 -50 c 0
 476 -50 456 -33 451 -10 c 0
 446 13 418 135 362 289 c 0
 305 443 223 625 111 769 c 0
 104 778 100 789 100 800 c 0
 100 827 122 850 150 850 c 0
 165 850 180 843 189 831 c 0
 311 675 398 482 456 323 c 0
 473 276 488 232 500 192 c 1
 512 232 527 276 544 323 c 0
 602 482 689 675 811 831 c 0
 820 843 835 850 850 850 c 0
EndSplineSet
Validated: 1
Substitution2: "'ss01' Add Cartouche Lines-1" suliTok.cart
Substitution2: "'ss02' Add Container Lines-1" suliTok.cont
EndChar

StartChar: sunoTok
Encoding: 100 989540 100
Width: 1000
VWidth: 950
Flags: W
HStem: 104 96<409.692 450 550 590.308> 350 100<58.4375 207.462 792.538 941.562> 600 96<409.692 450 550 590.308>
VStem: 204 96<309.692 350 450 490.308> 450 100<-41.5625 107.462 692.538 841.562> 700 96<309.692 350 450 490.308>
CounterMasks: 1 fc
LayerCount: 2
Fore
SplineSet
450 800 m 2
 450 828 472 850 500 850 c 0
 528 850 550 828 550 800 c 2
 550 696 l 1
 676 675 775 576 796 450 c 1
 900 450 l 2
 928 450 950 428 950 400 c 0
 950 372 928 350 900 350 c 2
 796 350 l 1
 775 224 676 125 550 104 c 1
 550 0 l 2
 550 -28 528 -50 500 -50 c 0
 472 -50 450 -28 450 0 c 2
 450 104 l 1
 324 125 225 224 204 350 c 1
 100 350 l 2
 72 350 50 372 50 400 c 0
 50 428 72 450 100 450 c 2
 204 450 l 1
 225 576 324 675 450 696 c 1
 450 800 l 2
500 600 m 0
 390 600 300 510 300 400 c 0
 300 290 390 200 500 200 c 0
 610 200 700 290 700 400 c 0
 700 510 610 600 500 600 c 0
EndSplineSet
Validated: 1
Substitution2: "'ss01' Add Cartouche Lines-1" sunoTok.cart
Substitution2: "'ss02' Add Container Lines-1" sunoTok.cont
EndChar

StartChar: supaTok
Encoding: 101 989541 101
Width: 1000
VWidth: 950
Flags: W
HStem: 600 100<58.4375 300 400 600 700 941.562>
VStem: 300 100<108.438 600> 600 100<108.438 600>
LayerCount: 2
Fore
SplineSet
100 700 m 2
 900 700 l 2
 928 700 950 678 950 650 c 0
 950 622 928 600 900 600 c 2
 700 600 l 1
 700 150 l 2
 700 122 678 100 650 100 c 0
 622 100 600 122 600 150 c 2
 600 600 l 1
 400 600 l 1
 400 150 l 2
 400 122 378 100 350 100 c 0
 322 100 300 122 300 150 c 2
 300 600 l 1
 100 600 l 2
 72 600 50 622 50 650 c 0
 50 678 72 700 100 700 c 2
EndSplineSet
Validated: 1
Substitution2: "'ss01' Add Cartouche Lines-1" supaTok.cart
Substitution2: "'ss02' Add Container Lines-1" supaTok.cont
EndChar

StartChar: suwiTok
Encoding: 102 989542 102
Width: 1000
VWidth: 850
Flags: W
HStem: 100 150<453.417 556.583>
VStem: 430 150<123.417 226.583>
LayerCount: 2
Fore
SplineSet
580 175 m 0
 580 134 546 100 505 100 c 0
 464 100 430 134 430 175 c 0
 430 216 464 250 505 250 c 0
 546 250 580 216 580 175 c 0
600 450 m 0
 573 450 550 473 550 500 c 0
 550 513 555 525 565 535 c 2
 715 685 l 2
 725 695 737 700 750 700 c 0
 763 700 775 695 785 685 c 2
 935 535 l 2
 945 525 950 513 950 500 c 0
 950 473 927 450 900 450 c 0
 887 450 875 455 865 465 c 2
 750 579 l 1
 635 465 l 2
 625 455 613 450 600 450 c 0
100 450 m 0
 73 450 50 473 50 500 c 0
 50 513 55 525 65 535 c 2
 215 685 l 2
 225 695 237 700 250 700 c 0
 263 700 275 695 285 685 c 2
 435 535 l 2
 445 525 450 513 450 500 c 0
 450 473 427 450 400 450 c 0
 387 450 375 455 365 465 c 2
 250 579 l 1
 135 465 l 2
 125 455 113 450 100 450 c 0
EndSplineSet
Validated: 1
Substitution2: "'ss01' Add Cartouche Lines-1" suwiTok.cart
Substitution2: "'ss02' Add Container Lines-1" suwiTok.cont
EndChar

StartChar: tanTok
Encoding: 103 989543 103
Width: 1000
VWidth: 850
Flags: W
HStem: 550 100<469.635 679.858>
VStem: 841 99<159.018 273.595> 850 100<183.37 379.858>
LayerCount: 2
Fore
SplineSet
891 150 m 0xc0
 861 150 841 175 841 200 c 0xc0
 841 204 842 207 843 211 c 0
 848 231 850 253 850 275 c 0
 850 427 727 550 575 550 c 0
 440 550 329 453 305 325 c 1
 365 385 l 2
 375 395 387 400 400 400 c 0
 427 400 450 377 450 350 c 0
 450 337 445 325 435 315 c 2
 285 165 l 2
 275 155 263 150 250 150 c 0
 237 150 225 155 215 165 c 2
 65 315 l 2
 55 325 50 337 50 350 c 0
 50 377 73 400 100 400 c 0
 113 400 125 395 135 385 c 2
 202 318 l 1
 223 505 383 650 575 650 c 0
 782 650 950 482 950 275 c 0xa0
 950 245 947 217 940 189 c 0
 935 166 914 150 891 150 c 0xc0
EndSplineSet
Validated: 1
Substitution2: "'ss01' Add Cartouche Lines-1" tanTok.cart
Substitution2: "'ss02' Add Container Lines-1" tanTok.cont
EndChar

StartChar: tasoTok
Encoding: 104 989544 104
Width: 1000
VWidth: 850
Flags: W
HStem: 350 106<314.882 432.478>
VStem: 600 100<-41.5625 398 496.397 841.562>
LayerCount: 2
Fore
SplineSet
350 350 m 0
 325 350 300 370 300 400 c 0
 300 436 330 447 362 456 c 0
 430 475 509 492 600 498 c 1
 600 800 l 2
 600 828 622 850 650 850 c 0
 678 850 700 828 700 800 c 2
 700 450 l 2
 700 0 l 2
 700 -28 678 -50 650 -50 c 0
 622 -50 600 -28 600 0 c 2
 600 398 l 1
 511 392 434 374 366 353 c 0
 361 351 355 350 350 350 c 0
EndSplineSet
Validated: 1
Substitution2: "'ss01' Add Cartouche Lines-1" tasoTok.cart
Substitution2: "'ss02' Add Container Lines-1" tasoTok.cont
EndChar

StartChar: tawaTok
Encoding: 105 989545 105
Width: 1000
VWidth: 850
Flags: W
HStem: -50 100<274.729 441.562 683.822 767.896>
LayerCount: 2
Fore
SplineSet
900 150 m 0
 927 150 950 127 950 100 c 0
 950 87 944 74 934 64 c 0
 852 -14 763 -50 650 -50 c 0
 628 -50 609 -36 602 -15 c 2
 397 642 l 1
 207 112 l 1
 214 106 223 99 234 92 c 0
 266 72 319 50 400 50 c 0
 428 50 450 28 450 0 c 0
 450 -28 428 -50 400 -50 c 0
 300 -50 228 -22 181 8 c 0
 147 30 127 46 109 72 c 0
 103 80 100 90 100 100 c 0
 100 106 101 112 103 117 c 2
 353 817 l 2
 361 839 380 849 400 849 c 0
 420 849 441 838 448 815 c 2
 686 52 l 1
 756 59 812 85 866 136 c 0
 876 145 888 150 900 150 c 0
EndSplineSet
Validated: 1
Substitution2: "'ss01' Add Cartouche Lines-1" tawaTok.cart
Substitution2: "'ss02' Add Container Lines-1" tawaTok.cont
EndChar

StartChar: teloTok
Encoding: 106 989546 106
Width: 1000
VWidth: 850
Flags: W
HStem: -0 100<616.678 760.999> 300 100<239.001 383.322> 400 100<616.678 760.999> 700 100<239.001 383.322>
VStem: 50 98<46.4952 157.582 446.495 557.582> 852 98<242.824 354.075 642.824 754.075>
LayerCount: 2
Fore
SplineSet
900 363 m 0xdc
 930 363 950 338 950 313 c 0
 950 295 943 279 939 263 c 0
 910 148 883 61 774 17 c 0
 745 6 716 0 688 -0 c 0
 583 0 487 74 452 185 c 0
 429 259 370 300 311 300 c 0
 248 300 209 261 190 218 c 0
 173 180 161 124 148 75 c 0
 142 53 122 38 100 38 c 0
 70 38 50 62 50 87 c 0
 50 105 57 121 61 137 c 0
 90 252 117 339 226 383 c 0
 255 394 284 400 312 400 c 0
 417 400 513 326 548 215 c 0
 571 141 630 100 689 100 c 0
 752 100 791 139 810 182 c 0
 827 221 839 276 852 325 c 0
 858 347 878 363 900 363 c 0xdc
900 763 m 0
 930 763 950 738 950 713 c 0
 950 695 943 679 939 663 c 0
 910 548 883 461 774 417 c 0
 745 406 716 400 688 400 c 0
 583 400 487 474 452 585 c 0
 429 659 370 700 311 700 c 0
 248 700 209 661 190 618 c 0
 173 580 161 524 148 475 c 0
 142 453 122 438 100 438 c 0
 70 438 50 462 50 487 c 0
 50 505 57 521 61 537 c 0
 90 652 117 739 226 783 c 0
 255 794 284 800 312 800 c 0
 417 800 513 726 548 615 c 0
 571 541 630 500 689 500 c 0xbc
 752 500 791 539 810 582 c 0
 827 621 839 676 852 725 c 0
 858 747 878 763 900 763 c 0
EndSplineSet
Validated: 1
Substitution2: "'ss01' Add Cartouche Lines-1" teloTok.cart
Substitution2: "'ss02' Add Container Lines-1" teloTok.cont
EndChar

StartChar: tenpoTok
Encoding: 107 989547 107
Width: 1000
VWidth: 950
Flags: W
HStem: -50 100<383.579 616.421> 350 100<550 691.562> 750 100<383.579 616.421>
VStem: 50 100<283.579 516.421> 450 250<358.438 441.562> 450 100<450 691.562> 850 100<283.579 516.421>
CounterMasks: 1 e0
LayerCount: 2
Fore
SplineSet
500 50 m 0xf2
 693 50 850 207 850 400 c 0
 850 593 693 750 500 750 c 0
 307 750 150 593 150 400 c 0
 150 207 307 50 500 50 c 0xf2
500 -50 m 0
 251 -50 50 151 50 400 c 0
 50 649 251 850 500 850 c 0
 749 850 950 649 950 400 c 0
 950 151 749 -50 500 -50 c 0
500 700 m 0
 528 700 550 678 550 650 c 2
 550 450 l 1xf6
 650 450 l 2
 678 450 700 428 700 400 c 0
 700 372 678 350 650 350 c 2
 500 350 l 2
 472 350 450 372 450 400 c 2xfa
 450 650 l 2xf6
 450 678 472 700 500 700 c 0
EndSplineSet
Validated: 1
Substitution2: "'ss01' Add Cartouche Lines-1" tenpoTok.cart
Substitution2: "'ss02' Add Container Lines-1" tenpoTok.cont
EndChar

StartChar: tokiTok
Encoding: 108 989548 108
Width: 1000
VWidth: 850
Flags: W
HStem: 0 100<409.912 590.088> 500 100<409.912 590.088> 650 200<458.438 541.562>
VStem: 200 100<209.912 390.088> 450 100<658.438 841.562> 700 100<209.912 390.088>
CounterMasks: 1 1c
LayerCount: 2
Fore
SplineSet
750 783 m 0
 779 783 800 758 800 733 c 0
 800 725 798 716 793 708 c 2
 743 621 l 2
 734 605 717 596 700 596 c 0
 671 596 650 621 650 646 c 0
 650 654 652 663 657 671 c 2
 707 758 l 2
 716 774 733 783 750 783 c 0
200 733 m 0
 200 758 221 783 250 783 c 0
 267 783 284 774 293 758 c 2
 343 671 l 2
 348 663 350 654 350 646 c 0
 350 621 329 596 300 596 c 0
 283 596 266 605 257 621 c 2
 207 708 l 2
 202 716 200 725 200 733 c 0
500 850 m 0
 528 850 550 828 550 800 c 2
 550 700 l 2
 550 672 528 650 500 650 c 0
 472 650 450 672 450 700 c 2
 450 800 l 2
 450 828 472 850 500 850 c 0
200 300 m 0
 200 466 334 600 500 600 c 0
 666 600 800 466 800 300 c 0
 800 134 666 0 500 0 c 0
 334 0 200 134 200 300 c 0
500 500 m 0
 390 500 300 410 300 300 c 0
 300 190 390 100 500 100 c 0
 610 100 700 190 700 300 c 0
 700 410 610 500 500 500 c 0
EndSplineSet
Validated: 1
Substitution2: "'ss01' Add Cartouche Lines-1" tokiTok.cart
Substitution2: "'ss02' Add Container Lines-1" tokiTok.cont
EndChar

StartChar: tomoTok
Encoding: 109 989549 109
Width: 1000
VWidth: 850
Flags: W
HStem: 0 100<200 800>
VStem: 100 100<100 427> 800 100<100 427>
LayerCount: 2
Fore
SplineSet
200 427 m 1
 200 100 l 1
 800 100 l 1
 800 427 l 1
 500 684 l 1
 200 427 l 1
467 788 m 2
 476 796 488 800 500 800 c 0
 512 800 524 796 533 788 c 2
 883 488 l 2
 894 479 900 465 900 450 c 2
 900 50 l 2
 900 22 878 0 850 0 c 2
 150 0 l 2
 122 0 100 22 100 50 c 2
 100 450 l 2
 100 465 106 479 117 488 c 2
 467 788 l 2
EndSplineSet
Validated: 1
Substitution2: "'ss01' Add Cartouche Lines-1" tomoTok.cart
Substitution2: "'ss02' Add Container Lines-1" tomoTok.cont
EndChar

StartChar: tuTok
Encoding: 110 989550 110
Width: 1000
VWidth: 950
Flags: W
VStem: 200 100<-41.5625 841.562> 700 100<-41.5625 841.562>
LayerCount: 2
Fore
SplineSet
750 -50 m 0
 722 -50 700 -28 700 0 c 2
 700 800 l 2
 700 828 722 850 750 850 c 0
 778 850 800 828 800 800 c 2
 800 0 l 2
 800 -28 778 -50 750 -50 c 0
250 -50 m 0
 222 -50 200 -28 200 0 c 2
 200 800 l 2
 200 828 222 850 250 850 c 0
 278 850 300 828 300 800 c 2
 300 0 l 2
 300 -28 278 -50 250 -50 c 0
EndSplineSet
Validated: 1
Substitution2: "'ss01' Add Cartouche Lines-1" tuTok.cart
Substitution2: "'ss02' Add Container Lines-1" tuTok.cont
EndChar

StartChar: unpaTok
Encoding: 111 989551 111
Width: 1000
VWidth: 950
Flags: W
HStem: -18 100<407.892 592.52> 275 100<378.993 622.002> 718 100<226.676 379.6 620.752 773.324>
VStem: 50 100<486.946 630.656> 243 100<149.832 286.484> 658 100<149.781 286.597> 850 100<485.964 630.656>
LayerCount: 2
Fore
SplineSet
382 124 m 0
 405 99 442 82 500 82 c 0
 558 82 595 99 619 124 c 0
 642 150 658 191 658 251 c 0
 658 261 657 273 654 287 c 1
 606 279 553 275 500 275 c 0
 448 275 395 279 347 287 c 1
 344 273 343 261 343 251 c 0
 343 191 359 150 382 124 c 0
500 738 m 1
 550 781 632 818 703 818 c 0
 717 818 732 817 746 814 c 0
 814 802 870 758 910 689 c 0
 936 644 950 599 950 554 c 0
 950 531 946 508 939 486 c 0
 917 422 867 371 802 333 c 0
 787 324 770 317 751 311 c 1
 756 290 758 270 758 251 c 0
 758 175 738 106 692 56 c 0
 645 6 579 -18 500 -18 c 0
 422 -18 355 6 309 57 c 0
 263 106 243 175 243 251 c 0
 243 270 245 290 249 310 c 1
 162 344 88 406 61 486 c 0
 54 508 50 531 50 554 c 0
 50 599 64 644 90 689 c 0
 130 758 186 802 254 814 c 0
 268 817 283 818 297 818 c 0
 367 818 453 782 500 738 c 1
624 383 m 1
 592 457 547 535 500 593 c 1
 454 534 409 457 377 383 c 1
 416 378 458 375 500 375 c 0
 543 375 585 378 624 383 c 1
570 666 m 1
 629 593 686 499 722 406 c 1
 734 411 744 415 752 420 c 0
 804 450 833 484 844 517 c 0
 848 528 850 541 850 554 c 0
 850 579 842 606 824 639 c 0
 795 688 762 710 728 716 c 0
 720 717 712 718 704 718 c 0
 673 718 636 707 594 683 c 0
 587 679 579 673 570 666 c 1
279 406 m 1
 315 499 372 594 431 666 c 1
 422 673 414 679 406 683 c 0
 365 707 328 718 296 718 c 0
 288 718 280 717 272 716 c 0
 238 710 205 688 176 639 c 0
 158 606 150 579 150 554 c 0
 150 541 152 528 156 517 c 0
 168 480 218 426 279 406 c 1
EndSplineSet
Validated: 1
Substitution2: "'ss01' Add Cartouche Lines-1" unpaTok.cart
Substitution2: "'ss02' Add Container Lines-1" unpaTok.cont
EndChar

StartChar: utaTok
Encoding: 112 989552 112
Width: 1000
VWidth: 950
Flags: W
HStem: 50 150<448.417 551.583> 250 100<384.879 615.121> 650 100<154 846>
VStem: 425 150<73.4173 176.583>
LayerCount: 2
Fore
SplineSet
50 700 m 0
 50 728 72 750 100 750 c 2
 900 750 l 2
 928 750 950 728 950 700 c 0
 950 451 749 250 500 250 c 0
 251 250 50 451 50 700 c 0
154 650 m 1
 178 480 324 350 500 350 c 0
 676 350 822 480 846 650 c 1
 154 650 l 1
575 125 m 0
 575 84 541 50 500 50 c 0
 459 50 425 84 425 125 c 0
 425 166 459 200 500 200 c 0
 541 200 575 166 575 125 c 0
EndSplineSet
Validated: 1
Substitution2: "'ss01' Add Cartouche Lines-1" utaTok.cart
Substitution2: "'ss02' Add Container Lines-1" utaTok.cont
EndChar

StartChar: utalaTok
Encoding: 113 989553 113
Width: 1000
VWidth: 850
Flags: W
HStem: -0 21G<225 245 755 775>
LayerCount: 2
Fore
SplineSet
762 800 m 0
 790 800 812 776 812 750 c 0
 812 740 809 729 802 720 c 2
 562 400 l 1
 745 156 l 1
 803 328 l 2
 810 349 829 363 850 363 c 0
 880 363 900 338 900 313 c 0
 900 308 899 302 897 297 c 2
 810 34 l 2
 804 15 787 0 763 -0 c 0
 747 0 733 7 723 20 c 2
 500 317 l 1
 277 20 l 2
 267 7 253 0 237 -0 c 0
 213 0 196 15 190 34 c 2
 103 297 l 2
 101 302 100 308 100 313 c 0
 100 338 120 363 150 363 c 0
 171 363 190 349 197 328 c 2
 255 156 l 1
 438 400 l 1
 198 720 l 2
 191 729 188 740 188 750 c 0
 188 776 210 800 238 800 c 0
 253 800 268 793 278 780 c 2
 500 484 l 1
 722 780 l 2
 732 793 747 800 762 800 c 0
EndSplineSet
Validated: 1
Substitution2: "'ss01' Add Cartouche Lines-1" utalaTok.cart
Substitution2: "'ss02' Add Container Lines-1" utalaTok.cont
EndChar

StartChar: waloTok
Encoding: 114 989554 114
Width: 1000
VWidth: 950
Flags: W
HStem: 0 100<197 803>
LayerCount: 2
Fore
SplineSet
50 505 m 0
 50 534 74 555 100 555 c 0
 109 555 117 553 125 548 c 2
 287 455 l 1
 457 750 l 2
 466 765 482 775 500 775 c 0
 518 775 534 765 543 750 c 2
 713 455 l 1
 875 548 l 2
 883 553 891 555 900 555 c 0
 925 555 950 534 950 505 c 0
 950 488 941 471 925 462 c 2
 763 369 l 1
 933 75 l 2
 937 67 940 59 940 50 c 0
 940 21 916 0 890 0 c 2
 110 0 l 2
 84 0 60 21 60 50 c 0
 60 59 63 67 67 75 c 2
 237 369 l 1
 75 462 l 2
 59 471 50 488 50 505 c 0
649 368 m 1
 500 625 l 1
 350 366 l 1
 350 364 349 363 348 362 c 0
 348 361 347 359 346 358 c 2
 197 100 l 1
 803 100 l 1
 655 356 l 2
 653 359 649 363 649 368 c 1
EndSplineSet
Validated: 1
Substitution2: "'ss01' Add Cartouche Lines-1" waloTok.cart
Substitution2: "'ss02' Add Container Lines-1" waloTok.cont
EndChar

StartChar: wanTok
Encoding: 115 989555 115
Width: 1000
VWidth: 950
Flags: W
VStem: 550 100<-41.5625 679>
LayerCount: 2
Fore
SplineSet
599 850 m 0
 629 850 650 825 650 800 c 2
 650 0 l 2
 650 -28 628 -50 600 -50 c 0
 572 -50 550 -28 550 0 c 2
 550 679 l 1
 385 515 l 2
 375 505 363 500 350 500 c 0
 324 500 300 524 300 550 c 0
 300 563 305 575 315 585 c 2
 565 835 l 2
 574 845 586 850 599 850 c 0
EndSplineSet
Validated: 1
Substitution2: "'ss01' Add Cartouche Lines-1" wanTok.cart
Substitution2: "'ss02' Add Container Lines-1" wanTok.cont
EndChar

StartChar: wasoTok
Encoding: 116 989556 116
Width: 1000
VWidth: 950
Flags: W
HStem: -50 300<208.438 291.562> 150 100<300 750> 300 150<203.417 306.583 453.417 556.583>
VStem: 180 150<323.417 426.583> 200 100<-41.5625 150> 430 150<323.417 426.583>
LayerCount: 2
Fore
SplineSet
350 800 m 0x6c
 350 825 372 850 400 850 c 0
 415 850 430 843 440 830 c 2
 890 230 l 2
 897 221 900 211 900 200 c 0
 900 170 875 150 850 150 c 2
 300 150 l 1x6c
 300 0 l 2
 300 -28 278 -50 250 -50 c 0
 222 -50 200 -28 200 0 c 2
 200 200 l 2
 200 228 222 250 250 250 c 2xac
 750 250 l 1
 360 770 l 2
 353 779 350 790 350 800 c 0x6c
580 375 m 0
 580 334 546 300 505 300 c 0
 464 300 430 334 430 375 c 0
 430 416 464 450 505 450 c 0
 546 450 580 416 580 375 c 0
330 375 m 0x34
 330 334 296 300 255 300 c 0
 214 300 180 334 180 375 c 0
 180 416 214 450 255 450 c 0
 296 450 330 416 330 375 c 0x34
EndSplineSet
Validated: 1
Substitution2: "'ss01' Add Cartouche Lines-1" wasoTok.cart
Substitution2: "'ss02' Add Container Lines-1" wasoTok.cont
EndChar

StartChar: wawaTok
Encoding: 117 989557 117
Width: 1000
VWidth: 850
Flags: W
HStem: 50 100<409.912 590.088> 550 100<409.912 590.088>
VStem: 50 100<678 790.982> 100 100<159.018 272> 200 100<259.912 440.088> 700 100<259.912 440.088> 800 100<159.018 272> 850 100<678 790.982>
LayerCount: 2
Fore
SplineSet
50 745 m 2xe0
 50 746 50 748 50 749 c 0xe0
 50 776 70 800 100 800 c 0xd0
 126 800 147 780 150 755 c 2xe0
 200 205 l 2
 200 204 200 202 200 201 c 0xd0
 200 174 180 150 150 150 c 0xe0
 124 150 103 170 100 195 c 2xd0
 50 745 l 2xe0
900 800 m 0xc2
 930 800 950 776 950 749 c 0
 950 748 950 746 950 745 c 2xc1
 900 195 l 2xc2
 897 170 876 150 850 150 c 0xc1
 820 150 800 174 800 201 c 0
 800 202 800 204 800 205 c 2xc2
 850 755 l 2xc1
 853 780 874 800 900 800 c 0xc2
200 350 m 0xcc
 200 516 334 650 500 650 c 0
 666 650 800 516 800 350 c 0
 800 184 666 50 500 50 c 0
 334 50 200 184 200 350 c 0xcc
500 550 m 0
 390 550 300 460 300 350 c 0
 300 240 390 150 500 150 c 0
 610 150 700 240 700 350 c 0
 700 460 610 550 500 550 c 0
EndSplineSet
Validated: 1
Substitution2: "'ss01' Add Cartouche Lines-1" wawaTok.cart
Substitution2: "'ss02' Add Container Lines-1" wawaTok.cont
EndChar

StartChar: wekaTok
Encoding: 118 989558 118
Width: 1000
VWidth: 950
Flags: W
LayerCount: 2
Fore
SplineSet
50 800 m 0
 50 826 74 850 100 850 c 0
 113 850 125 845 135 835 c 2
 410 560 l 2
 420 550 425 538 425 525 c 0
 425 499 401 475 375 475 c 0
 362 475 350 480 340 490 c 2
 65 765 l 2
 55 775 50 787 50 800 c 0
600 250 m 0
 600 276 624 300 650 300 c 0
 663 300 675 295 685 285 c 2
 935 35 l 2
 945 25 950 13 950 0 c 0
 950 -26 926 -50 900 -50 c 0
 887 -50 875 -45 865 -35 c 2
 615 215 l 2
 605 225 600 237 600 250 c 0
100 -50 m 0
 74 -50 50 -26 50 0 c 0
 50 13 55 25 65 35 c 2
 340 310 l 2
 350 320 362 325 375 325 c 0
 401 325 425 301 425 275 c 0
 425 262 420 250 410 240 c 2
 135 -35 l 2
 125 -45 113 -50 100 -50 c 0
650 500 m 0
 624 500 600 524 600 550 c 0
 600 563 605 575 615 585 c 2
 865 835 l 2
 875 845 887 850 900 850 c 0
 926 850 950 826 950 800 c 0
 950 787 945 775 935 765 c 2
 685 515 l 2
 675 505 663 500 650 500 c 0
EndSplineSet
Validated: 1
Substitution2: "'ss01' Add Cartouche Lines-1" wekaTok.cart
EndChar

StartChar: wileTok
Encoding: 119 989559 119
Width: 1000
VWidth: 950
Flags: W
HStem: -50 100<231.481 377.387 622.613 768.519>
VStem: 50 100<172.911 503.343> 450 100<122.15 241.562> 850 100<168.216 503.343>
CounterMasks: 1 70
LayerCount: 2
Fore
SplineSet
250 750 m 0
 276 750 300 728 300 700 c 0
 300 686 294 672 283 662 c 0
 232 617 199 573 179 525 c 0
 159 476 150 420 150 350 c 0
 150 237 169 122 231 71 c 0
 249 58 270 50 300 50 c 0
 383 50 450 117 450 200 c 0
 450 228 472 250 500 250 c 0
 528 250 550 228 550 200 c 0
 550 117 617 50 700 50 c 0
 730 50 752 58 769 71 c 0
 833 119 850 238 850 350 c 0
 850 420 841 476 821 525 c 0
 801 573 768 617 717 662 c 0
 706 672 700 686 700 700 c 0
 700 728 724 750 750 750 c 0
 762 750 774 746 783 738 c 0
 890 645 950 534 950 350 c 0
 950 264 940 168 906 92 c 0
 872 17 806 -50 700 -50 c 0
 618 -50 546 -11 500 50 c 1
 454 -11 382 -50 300 -50 c 0
 194 -50 128 17 94 92 c 0
 60 168 50 264 50 350 c 0
 50 534 110 645 217 738 c 0
 226 746 238 750 250 750 c 0
EndSplineSet
Validated: 1
Substitution2: "'ss01' Add Cartouche Lines-1" wileTok.cart
Substitution2: "'ss02' Add Container Lines-1" wileTok.cont
EndChar

StartChar: namakoTok
Encoding: 120 989560 120
Width: 1000
VWidth: 950
Flags: W
HStem: 350 100<58.4375 391.562 608.438 941.562>
VStem: 450 100<-41.5625 291.562 508.438 841.562>
LayerCount: 2
Fore
SplineSet
600 400 m 0
 600 428 622 450 650 450 c 2
 900 450 l 2
 928 450 950 428 950 400 c 0
 950 372 928 350 900 350 c 2
 650 350 l 2
 622 350 600 372 600 400 c 0
500 850 m 0
 528 850 550 828 550 800 c 2
 550 550 l 2
 550 522 528 500 500 500 c 0
 472 500 450 522 450 550 c 2
 450 800 l 2
 450 828 472 850 500 850 c 0
500 300 m 0
 528 300 550 278 550 250 c 2
 550 0 l 2
 550 -28 528 -50 500 -50 c 0
 472 -50 450 -28 450 0 c 2
 450 250 l 2
 450 278 472 300 500 300 c 0
50 400 m 0
 50 428 72 450 100 450 c 2
 350 450 l 2
 378 450 400 428 400 400 c 0
 400 372 378 350 350 350 c 2
 100 350 l 2
 72 350 50 372 50 400 c 0
EndSplineSet
Validated: 1
Substitution2: "'ss01' Add Cartouche Lines-1" namakoTok.cart
Substitution2: "'ss02' Add Container Lines-1" namakoTok.cont
EndChar

StartChar: kinTok
Encoding: 121 989561 121
Width: 1000
VWidth: 950
Flags: W
VStem: 450 100<-41.5625 63 237 341.562 408.438 841.562>
LayerCount: 2
Fore
SplineSet
550 800 m 2
 550 450 l 2
 550 422 528 400 500 400 c 0
 472 400 450 422 450 450 c 2
 450 800 l 2
 450 828 472 850 500 850 c 0
 528 850 550 828 550 800 c 2
320 225 m 0
 320 254 345 275 370 275 c 0
 379 275 387 273 395 268 c 2
 450 237 l 1
 450 300 l 2
 450 328 472 350 500 350 c 0
 528 350 550 328 550 300 c 2
 550 237 l 1
 605 268 l 2
 613 273 621 275 630 275 c 0
 655 275 680 254 680 225 c 0
 680 208 671 191 655 182 c 2
 600 150 l 1
 655 118 l 2
 671 109 680 92 680 75 c 0
 680 46 655 25 630 25 c 0
 621 25 613 27 605 32 c 2
 550 63 l 1
 550 0 l 2
 550 -28 528 -50 500 -50 c 0
 472 -50 450 -28 450 0 c 2
 450 63 l 1
 395 32 l 2
 387 27 379 25 370 25 c 0
 345 25 320 46 320 75 c 0
 320 92 329 109 345 118 c 2
 400 150 l 1
 345 182 l 2
 329 191 320 208 320 225 c 0
EndSplineSet
Validated: 1
Substitution2: "'ss01' Add Cartouche Lines-1" kinTok.cart
Substitution2: "'ss02' Add Container Lines-1" kinTok.cont
EndChar

StartChar: okoTok
Encoding: 122 989562 122
Width: 1000
VWidth: 950
Flags: W
HStem: 125 100<370.405 629.595> 300 200<438.358 561.642> 575 100<370.405 629.595>
VStem: 400 200<338.358 461.642>
CounterMasks: 1 e0
LayerCount: 2
Fore
SplineSet
600 400 m 0
 600 345 555 300 500 300 c 0
 445 300 400 345 400 400 c 0
 400 455 445 500 500 500 c 0
 555 500 600 455 600 400 c 0
880 500 m 1
 881 499 l 1
 906 469 929 436 947 400 c 1
 928 364 906 330 880 300 c 0
 788 193 652 125 500 125 c 0
 348 125 212 193 120 300 c 0
 94 330 72 364 53 400 c 1
 72 436 94 470 120 500 c 0
 212 607 348 675 500 675 c 0
 652 675 788 607 880 500 c 1
831 400 m 1
 759 506 637 575 500 575 c 0
 363 575 241 506 169 400 c 1
 241 294 363 225 500 225 c 0
 637 225 759 294 831 400 c 1
EndSplineSet
Validated: 1
Substitution2: "'ss01' Add Cartouche Lines-1" okoTok.cart
Substitution2: "'ss02' Add Container Lines-1" okoTok.cont
EndChar

StartChar: kipisiTok
Encoding: 123 989563 123
Width: 1000
VWidth: 850
Flags: W
HStem: 100 200<638.358 761.642> 500 200<238.358 361.642>
VStem: 200 200<538.358 661.642> 600 200<138.358 261.642>
LayerCount: 2
Fore
SplineSet
800 200 m 0
 800 145 755 100 700 100 c 0
 645 100 600 145 600 200 c 0
 600 255 645 300 700 300 c 0
 755 300 800 255 800 200 c 0
400 600 m 0
 400 545 355 500 300 500 c 0
 245 500 200 545 200 600 c 0
 200 655 245 700 300 700 c 0
 355 700 400 655 400 600 c 0
750 700 m 0
 777 700 800 677 800 650 c 0
 800 637 795 625 785 615 c 2
 285 115 l 2
 275 105 263 100 250 100 c 0
 223 100 200 123 200 150 c 0
 200 163 205 175 215 185 c 2
 715 685 l 2
 725 695 737 700 750 700 c 0
EndSplineSet
Validated: 1
Substitution2: "'ss01' Add Cartouche Lines-1" kipisiTok.cart
Substitution2: "'ss02' Add Container Lines-1" kipisiTok.cont
EndChar

StartChar: lekoTok
Encoding: 124 989564 124
Width: 1000
VWidth: 850
Flags: W
HStem: 0 100<200 800> 200 100<400 600> 500 100<400 600> 700 100<200 800>
VStem: 100 100<100 700> 300 100<300 500> 600 100<300 500> 800 100<100 700>
LayerCount: 2
Fore
SplineSet
400 500 m 1
 400 300 l 1
 600 300 l 1
 600 500 l 1
 400 500 l 1
300 550 m 2
 300 578 322 600 350 600 c 2
 650 600 l 2
 678 600 700 578 700 550 c 2
 700 250 l 2
 700 222 678 200 650 200 c 2
 350 200 l 2
 322 200 300 222 300 250 c 2
 300 550 l 2
200 700 m 1
 200 100 l 1
 800 100 l 1
 800 700 l 1
 200 700 l 1
100 750 m 2
 100 778 122 800 150 800 c 2
 850 800 l 2
 878 800 900 778 900 750 c 2
 900 50 l 2
 900 22 878 0 850 0 c 2
 150 0 l 2
 122 0 100 22 100 50 c 2
 100 750 l 2
EndSplineSet
Validated: 1
Substitution2: "'ss01' Add Cartouche Lines-1" lekoTok.cart
Substitution2: "'ss02' Add Container Lines-1" lekoTok.cont
EndChar

StartChar: monsutaTok
Encoding: 125 989565 125
Width: 1000
VWidth: 950
Flags: W
LayerCount: 2
Fore
SplineSet
950 352 m 0
 950 327 930 302 900 302 c 0
 880 302 862 314 854 334 c 2
 838 371 l 1
 793 257 l 2
 785 238 766 226 746 226 c 0
 725 226 707 239 699 258 c 2
 628 446 l 1
 548 185 l 2
 541 164 522 150 500 150 c 0
 478 150 459 164 452 185 c 2
 372 446 l 1
 301 258 l 2
 293 239 275 226 254 226 c 0
 234 226 215 238 207 257 c 2
 162 371 l 1
 146 334 l 2
 138 314 120 302 100 302 c 0
 70 302 50 327 50 352 c 0
 50 358 51 365 54 371 c 2
 115 523 l 2
 123 542 141 555 162 555 c 0
 182 555 200 542 208 523 c 2
 252 413 l 1
 330 618 l 2
 338 637 356 650 377 650 c 0
 400 650 418 635 425 615 c 2
 500 370 l 1
 575 615 l 2
 582 635 600 650 623 650 c 0
 644 650 662 637 670 618 c 2
 748 413 l 1
 792 523 l 2
 800 542 818 555 838 555 c 0
 859 555 877 542 885 523 c 2
 946 371 l 2
 949 365 950 358 950 352 c 0
EndSplineSet
Validated: 1
Substitution2: "'ss01' Add Cartouche Lines-1" monsutaTok.cart
Substitution2: "'ss02' Add Container Lines-1" monsutaTok.cont
EndChar

StartChar: tonsiTok
Encoding: 126 989566 126
Width: 1000
VWidth: 950
Flags: W
HStem: 214 96<411.02 450 550 588.98> 710 100<411.513 588.736>
VStem: 200 100<421.092 600.721> 450 100<6.4375 218.02> 700 100<421.092 600.721>
CounterMasks: 1 38
LayerCount: 2
Fore
SplineSet
50 741 m 0
 50 770 75 791 100 791 c 0
 109 791 117 789 125 784 c 2
 269 701 l 1
 324 768 407 810 500 810 c 0
 593 810 676 768 731 701 c 1
 875 784 l 2
 883 789 891 791 900 791 c 0
 925 791 950 772 950 742 c 0
 950 725 941 707 925 698 c 2
 781 615 l 1
 793 582 800 547 800 510 c 0
 800 361 692 238 550 214 c 1
 550 48 l 2
 550 20 528 -2 500 -2 c 0
 472 -2 450 20 450 48 c 2
 450 214 l 1
 308 238 200 361 200 510 c 0
 200 547 207 582 219 615 c 1
 75 698 l 2
 59 707 50 724 50 741 c 0
500 310 m 0
 611 310 700 400 700 510 c 0
 700 546 691 579 674 609 c 1
 674 609 674 610 673 610 c 1
 673 611 l 1
 638 670 574 710 500 710 c 0
 427 710 362 670 328 611 c 0
 327 611 327 610 327 610 c 1
 326 609 l 1
 310 579 300 546 300 510 c 0
 300 400 390 310 500 310 c 0
EndSplineSet
Validated: 1
Substitution2: "'ss01' Add Cartouche Lines-1" tonsiTok.cart
Substitution2: "'ss02' Add Container Lines-1" tonsiTok.cont
EndChar

StartChar: jasimaTok
Encoding: 127 989567 127
Width: 1000
VWidth: 850
Flags: W
HStem: -0 100<617.15 760.999> 300 100<239.001 382.85> 400 100<617.15 760.999> 700 100<239.001 382.85>
VStem: 50 98<46.4952 157.582 446.495 557.582> 450 100<-41.5625 46 166.719 233.281 354 446 566.719 633.281 754 841.562> 852 98<242.824 354.075 642.824 754.075>
CounterMasks: 1 0e
LayerCount: 2
Fore
SplineSet
100 438 m 0xde
 70 438 50 462 50 487 c 0
 50 505 57 521 61 537 c 0
 90 652 117 739 226 783 c 0
 255 794 284 800 312 800 c 0
 362 800 410 784 450 754 c 1
 450 800 l 2
 450 828 472 850 500 850 c 0
 528 850 550 828 550 800 c 2
 550 608 l 1
 575 538 632 500 689 500 c 0
 752 500 791 539 810 582 c 0
 827 621 839 676 852 725 c 0
 858 747 878 763 900 763 c 0
 930 763 950 738 950 713 c 0
 950 695 943 679 939 663 c 0
 910 548 883 461 774 417 c 0
 745 406 716 400 688 400 c 0xbe
 638 400 590 416 550 446 c 1
 550 208 l 1
 575 138 632 100 689 100 c 0
 752 100 791 139 810 182 c 0
 827 221 839 276 852 325 c 0
 858 347 878 363 900 363 c 0
 930 363 950 338 950 313 c 0
 950 295 943 279 939 263 c 0
 910 148 883 61 774 17 c 0
 745 6 716 0 688 -0 c 0
 638 0 590 16 550 46 c 1
 550 0 l 2
 550 -28 528 -50 500 -50 c 0
 472 -50 450 -28 450 0 c 2
 450 192 l 1
 425 262 368 300 311 300 c 0
 248 300 209 261 190 218 c 0
 173 180 161 124 148 75 c 0
 142 53 122 38 100 38 c 0
 70 38 50 62 50 87 c 0
 50 105 57 121 61 137 c 0
 90 252 117 339 226 383 c 0
 255 394 284 400 312 400 c 0
 362 400 410 384 450 354 c 1
 450 592 l 1
 425 662 368 700 311 700 c 0
 248 700 209 661 190 618 c 0
 173 580 161 524 148 475 c 0
 142 453 122 438 100 438 c 0xde
EndSplineSet
Validated: 1
Substitution2: "'ss01' Add Cartouche Lines-1" jasimaTok.cart
EndChar

StartChar: kijetesantakaluTok
Encoding: 128 989568 128
Width: 1000
VWidth: 950
Flags: W
HStem: -50 222<594.393 665.607> -50 100<280 320 400 461> 450 100<508.438 591.562 664.701 747.562>
VStem: 50 100<69.0167 224.938> 200 80<52 258> 320 80<50 270> 440 98<134 191.226> 443 118<50.2351 161.29> 500 100<458.438 541.562> 590 80<-45.607 167.607> 641 100<700.425 747.695> 656 100<459.117 540.883> 700 100<-41.5625 337.592> 850 100<473.77 532.997>
LayerCount: 2
Fore
SplineSet
741 740 m 2x7d24
 741 738 l 2x7d24
 741 722 741 709 742 700 c 1
 800 669 848 643 881 619 c 0
 917 593 950 558 950 508 c 0
 950 460 919 421 890 393 c 0
 865 368 833 345 800 323 c 1
 800 0 l 2
 800 -28 778 -50 750 -50 c 0
 722 -50 700 -28 700 0 c 2
 700 377 l 1x7c0c
 723 392 l 2
 763 418 797 442 820 465 c 0
 846 490 850 503 850 508 c 0
 850 509 850 518 822 538 c 0
 794 559 749 583 683 618 c 0
 645 640 641 681 641 736 c 2
 641 748 l 1
 566 738 510 696 471 631 c 0
 424 554 400 444 400 320 c 2
 400 50 l 1
 461 50 l 1
 460 55 460 61 459 67 c 0
 455 88 450 111 444 129 c 0
 444 131 443 133 443 133 c 1
 443 134 l 1x7d24
 442 134 l 1
 442 135 l 1
 440 140 440 145 440 150 c 0
 440 174 459 200 490 200 c 0
 511 200 531 187 538 165 c 1
 538 163 l 1x7e04
 542 159 543 147 545 140 c 0
 552 113 561 74 561 38 c 0
 561 -9 537 -50 490 -50 c 2
 225 -50 l 2
 164 -50 117 -29 87 10 c 0
 58 47 50 93 50 133 c 0
 50 194 68 250 97 293 c 0
 126 334 170 368 225 368 c 0
 248 368 271 369 292 369 c 2
 301 369 l 1
 314 617 422 850 675 850 c 0
 711 850 735 820 738 789 c 0
 741 774 741 754 741 740 c 2x7d24
320 50 m 1
 320 270 l 1
 314 270 307 269 301 269 c 2
 280 269 l 1
 280 50 l 1
 320 50 l 1
200 258 m 1
 169 236 150 188 150 133 c 0
 150 104 156 84 166 71 c 0
 171 64 181 56 200 52 c 1
 200 258 l 1
670 132 m 2xbc44
 670 -10 l 2
 670 -32 652 -50 630 -50 c 0
 608 -50 590 -32 590 -10 c 2
 590 132 l 2
 590 154 608 172 630 172 c 0
 652 172 670 154 670 132 c 2xbc44
756 500 m 0x3c14
 756 472 734 450 706 450 c 0
 679 450 656 472 656 500 c 0
 656 528 679 550 706 550 c 0
 734 550 756 528 756 500 c 0x3c14
550 450 m 0
 522 450 500 472 500 500 c 0
 500 528 522 550 550 550 c 0
 578 550 600 528 600 500 c 0x3c84
 600 472 578 450 550 450 c 0
EndSplineSet
Validated: 1
Substitution2: "'ss01' Add Cartouche Lines-1" kijetesantakaluTok.cart
Substitution2: "'ss02' Add Container Lines-1" kijetesantakaluTok.cont
EndChar

StartChar: sokoTok
Encoding: 129 989569 129
Width: 1000
VWidth: 950
Flags: W
HStem: 0 21G<485 513> 400 100<184 449 549 817> 700 100<383.956 616.196>
VStem: 449 100<8.4375 400>
LayerCount: 2
Fore
SplineSet
817 500 m 1
 761 618 640 700 500 700 c 0
 360 700 240 618 184 500 c 1
 817 500 l 1
888 400 m 2
 549 400 l 1
 549 50 l 2
 549 22 527 0 499 0 c 0
 471 0 449 22 449 50 c 2
 449 400 l 1
 113 400 l 2
 87 400 63 422 63 450 c 0
 63 454 64 458 65 462 c 0
 115 656 290 800 500 800 c 0
 710 800 886 656 936 462 c 0
 937 458 938 454 938 450 c 0
 938 422 914 400 888 400 c 2
EndSplineSet
Validated: 1
Substitution2: "'ss01' Add Cartouche Lines-1" sokoTok.cart
Substitution2: "'ss02' Add Container Lines-1" sokoTok.cont
EndChar

StartChar: mesoTok
Encoding: 130 989570 130
Width: 1000
VWidth: 950
Flags: W
HStem: 300 200<438.358 561.642>
VStem: 150 100<-41.5625 841.562> 400 200<338.358 461.642> 750 100<-41.5625 841.562>
CounterMasks: 1 70
LayerCount: 2
Fore
SplineSet
200 850 m 0
 228 850 250 828 250 800 c 2
 250 0 l 2
 250 -28 228 -50 200 -50 c 0
 172 -50 150 -28 150 0 c 2
 150 800 l 2
 150 828 172 850 200 850 c 0
800 850 m 0
 828 850 850 828 850 800 c 2
 850 0 l 2
 850 -28 828 -50 800 -50 c 0
 772 -50 750 -28 750 0 c 2
 750 800 l 2
 750 828 772 850 800 850 c 0
600 400 m 0
 600 345 555 300 500 300 c 0
 445 300 400 345 400 400 c 0
 400 455 445 500 500 500 c 0
 555 500 600 455 600 400 c 0
EndSplineSet
Validated: 1
Substitution2: "'ss01' Add Cartouche Lines-1" mesoTok.cart
Substitution2: "'ss02' Add Container Lines-1" mesoTok.cont
EndChar

StartChar: epikuTok
Encoding: 131 989571 131
Width: 1000
VWidth: 950
Flags: W
HStem: -50 100<383.579 616.421> 562 284<459.117 540.883>
VStem: 50 100<287.381 441.562> 450 100<570.701 837.562> 850 100<287.381 441.562>
CounterMasks: 1 38
LayerCount: 2
Fore
SplineSet
500 846 m 0
 528 846 550 824 550 796 c 2
 550 612 l 2
 550 585 528 562 500 562 c 0
 472 562 450 585 450 612 c 2
 450 796 l 2
 450 824 472 846 500 846 c 0
200 744 m 0
 200 769 220 794 250 794 c 0
 269 794 288 782 296 763 c 2
 366 593 l 2
 369 587 370 581 370 574 c 0
 370 549 350 524 320 524 c 0
 301 524 282 536 274 555 c 2
 204 725 l 2
 201 731 200 737 200 744 c 0
680 524 m 0
 650 524 630 549 630 574 c 0
 630 581 631 587 634 593 c 2
 704 763 l 2
 712 782 731 794 750 794 c 0
 780 794 800 769 800 744 c 0
 800 737 799 731 796 725 c 2
 726 555 l 2
 718 536 699 524 680 524 c 0
100 450 m 0
 128 450 150 428 150 400 c 0
 150 207 307 50 500 50 c 0
 693 50 850 207 850 400 c 0
 850 428 872 450 900 450 c 0
 928 450 950 428 950 400 c 0
 950 151 749 -50 500 -50 c 0
 251 -50 50 151 50 400 c 0
 50 428 72 450 100 450 c 0
EndSplineSet
Validated: 1
Substitution2: "'ss01' Add Cartouche Lines-1" epikuTok.cart
Substitution2: "'ss02' Add Container Lines-1" epikuTok.cont
EndChar

StartChar: kokosilaTok
Encoding: 132 989572 132
Width: 1000
VWidth: 850
Flags: W
HStem: 0 100<410.192 590.088> 500 100<409.912 589.808> 650 200<458.438 541.562>
VStem: 200 100<235.43 390.088> 450 100<658.438 841.562> 700 100<209.912 364.57>
CounterMasks: 1 1c
LayerCount: 2
Fore
SplineSet
750 783 m 0
 779 783 800 758 800 733 c 0
 800 725 798 716 793 708 c 2
 743 621 l 2
 734 605 717 596 700 596 c 0
 671 596 650 621 650 646 c 0
 650 654 652 663 657 671 c 2
 707 758 l 2
 716 774 733 783 750 783 c 0
200 733 m 0
 200 758 221 783 250 783 c 0
 267 783 284 774 293 758 c 2
 343 671 l 2
 348 663 350 654 350 646 c 0
 350 621 329 596 300 596 c 0
 283 596 266 605 257 621 c 2
 207 708 l 2
 202 716 200 725 200 733 c 0
689 366 m 1
 367 151 l 1
 402 119 449 100 500 100 c 0
 610 100 700 190 700 300 c 0
 700 323 696 345 689 366 c 1
500 500 m 0
 390 500 300 410 300 300 c 0
 300 277 304 255 311 234 c 1
 633 449 l 1
 598 481 551 500 500 500 c 0
200 50 m 0
 175 50 150 71 150 100 c 0
 150 116 158 132 172 142 c 2
 226 177 l 1
 209 214 200 256 200 300 c 0
 200 466 334 600 500 600 c 0
 586 600 663 564 718 506 c 1
 772 542 l 2
 781 548 790 550 800 550 c 0
 825 550 850 529 850 500 c 0
 850 484 842 468 828 458 c 2
 774 423 l 1
 791 386 800 344 800 300 c 0
 800 134 666 0 500 0 c 0
 414 0 337 36 282 94 c 1
 228 58 l 2
 219 52 210 50 200 50 c 0
500 850 m 0
 528 850 550 828 550 800 c 2
 550 700 l 2
 550 672 528 650 500 650 c 0
 472 650 450 672 450 700 c 2
 450 800 l 2
 450 828 472 850 500 850 c 0
EndSplineSet
Validated: 1
Substitution2: "'ss01' Add Cartouche Lines-1" kokosilaTok.cart
Substitution2: "'ss02' Add Container Lines-1" kokosilaTok.cont
EndChar

StartChar: lanpanTok
Encoding: 133 989573 133
Width: 1000
VWidth: 950
Flags: W
HStem: -50 150<357.438 440.299> -1 152<167.847 230.032 567.654 630.153> 152 100<303.504 496.496>
VStem: 50 100<406.289 841.562> 141 117<33.1719 119.9> 349 100<-40.8829 90.8829> 540 117<33.1719 119.116> 650 100<406.289 613>
LayerCount: 2
Fore
SplineSet
950 452 m 0x35
 950 427 930 402 900 402 c 0
 882 402 866 411 857 427 c 2
 750 613 l 1
 750 502 l 2
 750 309 593 152 400 152 c 0
 207 152 50 309 50 502 c 2
 50 800 l 2
 50 828 72 850 100 850 c 0
 128 850 150 828 150 800 c 2
 150 502 l 2
 150 364 262 252 400 252 c 0
 538 252 650 364 650 502 c 2
 650 800 l 2
 650 826 671 850 701 850 c 0
 718 850 734 841 743 825 c 2
 943 477 l 2
 948 469 950 461 950 452 c 0x35
399 -50 m 0xa4
 371 -50 349 -28 349 0 c 2
 349 50 l 2
 349 78 371 100 399 100 c 0
 426 100 449 78 449 50 c 2
 449 0 l 2
 449 -28 426 -50 399 -50 c 0xa4
191 -1 m 0x6c
 160 -1 141 27 141 52 c 0
 141 58 142 64 144 70 c 2
 163 120 l 2
 170 139 189 151 208 151 c 0
 239 151 258 123 258 97 c 0
 258 91 257 85 255 79 c 2
 235 30 l 1
 228 11 210 -1 191 -1 c 0x6c
657 52 m 0x66
 657 27 638 -1 607 -1 c 0
 588 -1 570 11 563 30 c 2
 544 79 l 2
 542 85 540 92 540 98 c 0
 540 123 560 151 591 151 c 0
 610 151 628 139 635 120 c 2
 654 70 l 2
 656 64 657 58 657 52 c 0x66
EndSplineSet
Validated: 1
Substitution2: "'ss01' Add Cartouche Lines-1" lanpanTok.cart
Substitution2: "'ss02' Add Container Lines-1" lanpanTok.cont
EndChar

StartChar: nTok
Encoding: 134 989574 134
Width: 1000
VWidth: 950
Flags: W
HStem: 250 100<439.527 560.473>
VStem: 300 100<-41.5625 209.304> 450 100<408.438 841.562> 600 100<-41.5625 209.304>
CounterMasks: 1 70
LayerCount: 2
Fore
SplineSet
500 250 m 0
 445 250 400 205 400 150 c 2
 400 0 l 2
 400 -28 378 -50 350 -50 c 0
 322 -50 300 -28 300 0 c 2
 300 150 l 2
 300 260 390 350 500 350 c 0
 610 350 700 260 700 150 c 2
 700 0 l 2
 700 -28 678 -50 650 -50 c 0
 622 -50 600 -28 600 0 c 2
 600 150 l 2
 600 205 555 250 500 250 c 0
500 850 m 0
 528 850 550 828 550 800 c 2
 550 450 l 2
 550 422 528 400 500 400 c 0
 472 400 450 422 450 450 c 2
 450 800 l 2
 450 828 472 850 500 850 c 0
EndSplineSet
Validated: 1
Substitution2: "'ss01' Add Cartouche Lines-1" nTok.cart
Substitution2: "'ss02' Add Container Lines-1" nTok.cont
EndChar

StartChar: misikekeTok
Encoding: 135 989575 135
Width: 1000
VWidth: 950
Flags: W
HStem: -50 100<423.917 576.083> 350 100<350 650> 750 100<423.917 576.083>
VStem: 250 100<125.684 350 450 674.316> 650 100<125.684 350 450 674.316>
CounterMasks: 1 e0
LayerCount: 2
Fore
SplineSet
500 850 m 0
 638 850 750 738 750 600 c 2
 750 200 l 2
 750 62 638 -50 500 -50 c 0
 362 -50 250 62 250 200 c 2
 250 600 l 2
 250 738 362 850 500 850 c 0
650 450 m 1
 650 600 l 2
 650 683 583 750 500 750 c 0
 417 750 350 683 350 600 c 2
 350 450 l 1
 650 450 l 1
350 350 m 1
 350 200 l 2
 350 117 417 50 500 50 c 0
 583 50 650 117 650 200 c 2
 650 350 l 1
 350 350 l 1
EndSplineSet
Validated: 1
Substitution2: "'ss01' Add Cartouche Lines-1" misikekeTok.cart
Substitution2: "'ss02' Add Container Lines-1" misikekeTok.cont
EndChar

StartChar: kuTok
Encoding: 136 989576 136
Width: 1000
VWidth: 950
Flags: W
HStem: -50 100<250 438 540 750> 150 150<573.417 676.583> 750 100<250 520>
VStem: 150 100<50 750> 550 150<173.417 276.583> 750 100<50 323 442 728>
LayerCount: 2
Fore
SplineSet
700 225 m 0
 700 184 666 150 625 150 c 0
 584 150 550 184 550 225 c 0
 550 266 584 300 625 300 c 0
 666 300 700 266 700 225 c 0
799 850 m 2
 828 850 850 829 850 799 c 2
 850 0 l 2
 850 -28 828 -50 800 -50 c 2
 200 -50 l 2
 172 -50 150 -28 150 0 c 2
 150 800 l 2
 150 828 172 850 200 850 c 2
 799 850 l 2
750 442 m 1
 750 728 l 1
 468 624 l 1
 750 442 l 1
750 323 m 1
 433 528 l 1
 540 50 l 1
 750 50 l 1
 750 323 l 1
438 50 m 1
 309 626 l 2
 308 630 308 633 308 637 c 0
 308 657 321 676 340 683 c 2
 520 750 l 1
 250 750 l 1
 250 50 l 1
 438 50 l 1
EndSplineSet
Validated: 1
Substitution2: "'ss01' Add Cartouche Lines-1" kuTok.cart
Substitution2: "'ss02' Add Container Lines-1" kuTok.cont
EndChar

StartChar: teTok
Encoding: 137 12300 137
AltUni2: 002015.ffffffff.0 002014.ffffffff.0 002013.ffffffff.0 002012.ffffffff.0 00002d.ffffffff.0 0000b7.ffffffff.0 00002c.ffffffff.0 00002e.ffffffff.0
Width: 500
VWidth: 950
Flags: W
HStem: 900 100<500 991.562>
VStem: 400 100<208.438 900>
LayerCount: 2
Fore
SplineSet
450 200 m 0
 422 200 400 222 400 250 c 2
 400 950 l 2
 400 978 422 1000 450 1000 c 2
 950 1000 l 2
 978 1000 1000 978 1000 950 c 0
 1000 922 978 900 950 900 c 2
 500 900 l 1
 500 250 l 2
 500 222 478 200 450 200 c 0
EndSplineSet
Validated: 1
EndChar

StartChar: toTok
Encoding: 138 12301 138
Width: 500
VWidth: 950
Flags: W
HStem: -200 100<8.4375 500>
VStem: 500 100<-100 591.562>
LayerCount: 2
Fore
SplineSet
550 600 m 0
 578 600 600 578 600 550 c 2
 600 -150 l 2
 600 -178 578 -200 550 -200 c 2
 50 -200 l 2
 22 -200 0 -178 0 -150 c 0
 0 -122 22 -100 50 -100 c 2
 500 -100 l 1
 500 550 l 2
 500 578 522 600 550 600 c 0
EndSplineSet
Validated: 1
EndChar

StartChar: interpunctTok
Encoding: 140 989580 140
AltUni2: 003002.ffffffff.0 00002e.ffffffff.0 00ff0e.ffffffff.0 00002c.ffffffff.0 00ff0c.ffffffff.0
Width: 1000
VWidth: 950
Flags: W
HStem: 300 200<438.358 561.642>
VStem: 400 200<338.358 461.642>
LayerCount: 2
Fore
SplineSet
600 400 m 0
 600 345 555 300 500 300 c 0
 445 300 400 345 400 400 c 0
 400 455 445 500 500 500 c 0
 555 500 600 455 600 400 c 0
EndSplineSet
Validated: 1
Substitution2: "'ss01' Add Cartouche Lines-1" interpunctTok.cart
EndChar

StartChar: doubleDot
Encoding: 141 -1 141
Width: 1000
VWidth: 950
Flags: W
HStem: 300 200<213.358 336.642 663.358 786.642>
VStem: 175 200<338.358 461.642> 625 200<338.358 461.642>
LayerCount: 2
Fore
SplineSet
825 400 m 0
 825 345 780 300 725 300 c 0
 670 300 625 345 625 400 c 0
 625 455 670 500 725 500 c 0
 780 500 825 455 825 400 c 0
375 400 m 0
 375 345 330 300 275 300 c 0
 220 300 175 345 175 400 c 0
 175 455 220 500 275 500 c 0
 330 500 375 455 375 400 c 0
EndSplineSet
Validated: 1
LCarets2: 1 0
Ligature2: "'liga' Misc-1" interpunctTok interpunctTok
Substitution2: "'ss01' Add Cartouche Lines-1" doubleDot.cart
EndChar

StartChar: colon
Encoding: 142 58 142
AltUni2: 00ff1a.ffffffff.0 00003b.ffffffff.0 00ff1b.ffffffff.0
Width: 1000
VWidth: 950
Flags: W
HStem: 75 200<438.358 561.642> 525 200<438.358 561.642>
VStem: 400 200<113.358 236.642 563.358 686.642>
LayerCount: 2
Fore
SplineSet
500 725 m 0
 555 725 600 680 600 625 c 0
 600 570 555 525 500 525 c 0
 445 525 400 570 400 625 c 0
 400 680 445 725 500 725 c 0
500 275 m 0
 555 275 600 230 600 175 c 0
 600 120 555 75 500 75 c 0
 445 75 400 120 400 175 c 0
 400 230 445 275 500 275 c 0
EndSplineSet
Validated: 1
Substitution2: "'ss01' Add Cartouche Lines-1" colon.cart
EndChar

StartChar: cartStartTok
Encoding: 144 989584 144
Width: 500
VWidth: 950
Flags: W
HStem: -200 100<380.081 533.291> 900 100<376.376 535.757>
VStem: 250 100<-69.1358 874.414>
LayerCount: 2
Fore
SplineSet
250 -50 m 2
 250 850 l 2
 250 927 317 1000 399 1000 c 2
 500 1000 l 2
 530 1000 544 977 544 953 c 0
 544 927 528 900 500 900 c 0
 360 900 350 887 350 750 c 2
 350 50 l 2
 350 -84 366 -100 500 -100 c 0
 526 -100 541 -127 541 -153 c 0
 541 -177 528 -200 500 -200 c 2
 399 -200 l 2
 317 -200 250 -133 250 -50 c 2
EndSplineSet
Validated: 1
EndChar

StartChar: cartEndTok
Encoding: 145 989585 145
Width: 500
VWidth: 950
Flags: W
HStem: -200 100<-33.2913 119.919> 900 100<-35.7574 123.624>
VStem: 150 100<-69.1358 874.414>
LayerCount: 2
Fore
SplineSet
250 -50 m 2
 250 -133 183 -200 101 -200 c 2
 0 -200 l 2
 -28 -200 -41 -177 -41 -153 c 0
 -41 -127 -26 -100 0 -100 c 0
 134 -100 150 -84 150 50 c 2
 150 750 l 2
 150 887 140 900 0 900 c 0
 -28 900 -44 927 -44 953 c 0
 -44 977 -30 1000 0 1000 c 2
 101 1000 l 2
 183 1000 250 927 250 850 c 2
 250 -50 l 2
EndSplineSet
Validated: 1
EndChar

StartChar: cartExtCombTok
Encoding: 146 989586 146
Width: 0
Flags: W
HStem: -200 100<-1041.56 41.5625> 900 100<-1041.56 41.5625>
LayerCount: 2
Fore
SplineSet
-1050 950 m 0
 -1050 978 -1028 1000 -1000 1000 c 2
 0 1000 l 2
 28 1000 50 978 50 950 c 0
 50 922 28 900 0 900 c 2
 -1000 900 l 2
 -1028 900 -1050 922 -1050 950 c 0
-1050 -150 m 0
 -1050 -122 -1028 -100 -1000 -100 c 2
 0 -100 l 2
 28 -100 50 -122 50 -150 c 0
 50 -178 28 -200 0 -200 c 2
 -1000 -200 l 2
 -1028 -200 -1050 -178 -1050 -150 c 0
EndSplineSet
Validated: 1
EndChar

StartChar: contStartCombTok
Encoding: 150 989590 150
Width: 500
Flags: W
HStem: -200 100<458.438 541.562>
VStem: 450 100<-191.562 -108.438>
LayerCount: 2
Fore
SplineSet
500 -200 m 0
 472 -200 450 -178 450 -150 c 0
 450 -122 472 -100 500 -100 c 0
 528 -100 550 -122 550 -150 c 0
 550 -178 528 -200 500 -200 c 0
EndSplineSet
Validated: 1
EndChar

StartChar: contEndTok
Encoding: 151 989591 151
Width: 500
Flags: W
HStem: -200 100<-41.5625 41.5625>
VStem: -50 100<-191.562 -108.438>
LayerCount: 2
Fore
SplineSet
0 -200 m 0
 -28 -200 -50 -178 -50 -150 c 0
 -50 -122 -28 -100 0 -100 c 0
 28 -100 50 -122 50 -150 c 0
 50 -178 28 -200 0 -200 c 0
EndSplineSet
Validated: 1
EndChar

StartChar: contExtCombTok
Encoding: 152 989592 152
Width: 0
Flags: W
HStem: -200 100<-1041.56 41.5625>
LayerCount: 2
Fore
SplineSet
-1050 -150 m 0
 -1050 -122 -1028 -100 -1000 -100 c 2
 0 -100 l 2
 28 -100 50 -122 50 -150 c 0
 50 -178 28 -200 0 -200 c 2
 -1000 -200 l 2
 -1028 -200 -1050 -178 -1050 -150 c 0
EndSplineSet
Validated: 1
EndChar

StartChar: tripleDot
Encoding: 157 -1 157
Width: 1000
VWidth: 950
Flags: W
HStem: 300 200<88.3579 211.642 438.358 561.642 788.358 911.642>
VStem: 50 200<338.358 461.642> 400 200<338.358 461.642> 750 200<338.358 461.642>
CounterMasks: 1 70
LayerCount: 2
Fore
SplineSet
600 400 m 0
 600 345 555 300 500 300 c 0
 445 300 400 345 400 400 c 0
 400 455 445 500 500 500 c 0
 555 500 600 455 600 400 c 0
950 400 m 0
 950 345 905 300 850 300 c 0
 795 300 750 345 750 400 c 0
 750 455 795 500 850 500 c 0
 905 500 950 455 950 400 c 0
250 400 m 0
 250 345 205 300 150 300 c 0
 95 300 50 345 50 400 c 0
 50 455 95 500 150 500 c 0
 205 500 250 455 250 400 c 0
EndSplineSet
Validated: 1
Ligature2: "'liga' Misc-1" interpunctTok interpunctTok interpunctTok
EndChar

StartChar: itanTok
Encoding: 159 -1 159
Width: 1000
Flags: W
HStem: -100 100<369.225 626.618> -52 312<250.438 332.957> -52 100<38.4375 145> 51 200<488.358 611.642> 300 100<300 700> 492 75<325.745 392 467 532 607 674.255> 632 75<325.745 392 467 532 607 674.255> 800 100<373.382 626.618>
VStem: 0 100<269.102 526.618> 200 100<400 591.562> 242 100<94 251.562> 392 75<425.745 492 567 632 707 774.255> 450 200<89.3579 212.642> 532 75<425.745 492 567 632 707 774.255> 700 100<400 591.562> 900 100<273.382 526.618>
LayerCount: 2
Fore
SplineSet
900 400 m 0x8fa3
 900 621 721 800 500 800 c 0
 279 800 100 621 100 400 c 0
 100 277 155 167 242 94 c 1
 242 210 l 2
 242 238 264 260 292 260 c 0x4fa3
 320 260 342 238 342 210 c 2
 342 32 l 1
 390 11 444 0 500 0 c 0
 721 0 900 179 900 400 c 0x8fa3
145 48 m 1x2f83
 55 138 0 263 0 400 c 0
 0 676 224 900 500 900 c 0
 776 900 1000 676 1000 400 c 0
 1000 124 776 -100 500 -100 c 0x8f83
 424 -100 351 -83 286 -52 c 1x4f83
 80 -52 l 2
 52 -52 30 -30 30 -2 c 0
 30 26 52 48 80 48 c 2
 145 48 l 1x2f83
467 632 m 1x0f97
 467 567 l 1
 532 567 l 1
 532 632 l 1
 467 632 l 1x0f97
430 778 m 0
 451 778 467 761 467 740 c 2
 467 707 l 1
 532 707 l 1
 532 740 l 2
 532 761 549 778 570 778 c 0
 591 778 607 761 607 740 c 2
 607 707 l 1
 640 707 l 2
 661 707 678 691 678 670 c 0
 678 649 661 632 640 632 c 2
 607 632 l 1
 607 567 l 1
 640 567 l 2
 661 567 678 551 678 530 c 0
 678 509 661 492 640 492 c 2
 607 492 l 1
 607 460 l 2
 607 439 591 422 570 422 c 0
 549 422 532 439 532 460 c 2
 532 492 l 1
 467 492 l 1
 467 460 l 2
 467 439 451 422 430 422 c 0
 409 422 392 439 392 460 c 2
 392 492 l 1
 360 492 l 2
 339 492 322 509 322 530 c 0
 322 551 339 567 360 567 c 2
 392 567 l 1
 392 632 l 1
 360 632 l 2
 339 632 322 649 322 670 c 0
 322 691 339 707 360 707 c 2
 392 707 l 1
 392 740 l 2
 392 761 409 778 430 778 c 0
550 51 m 0x1f8b
 495 51 450 96 450 151 c 0
 450 206 495 251 550 251 c 0
 605 251 650 206 650 151 c 0
 650 96 605 51 550 51 c 0x1f8b
250 600 m 0
 278 600 300 578 300 550 c 2
 300 400 l 1
 700 400 l 1
 700 550 l 2
 700 578 722 600 750 600 c 0
 778 600 800 578 800 550 c 2
 800 350 l 2
 800 322 778 300 750 300 c 2
 250 300 l 2
 222 300 200 322 200 350 c 2
 200 550 l 2x0fc3
 200 578 222 600 250 600 c 0
EndSplineSet
Validated: 1
Ligature2: "'liga' Misc-1" ijoTok tanTok anpaTok nanpaTok
Substitution2: "'ss02' Add Container Lines-1" itanTok.cont
Substitution2: "'ss01' Add Cartouche Lines-1" itanTok.cart
EndChar

StartChar: pakeTok
Encoding: 160 989600 160
Width: 1000
VWidth: 900
Flags: W
HStem: 0 21G<486 514> 700 100<108.438 450 550 891.562>
VStem: 450 100<8.4375 700>
LayerCount: 2
Fore
SplineSet
150 800 m 2
 850 800 l 2
 878 800 900 778 900 750 c 0
 900 722 878 700 850 700 c 2
 550 700 l 1
 550 50 l 2
 550 22 528 0 500 0 c 0
 472 0 450 22 450 50 c 2
 450 700 l 1
 150 700 l 2
 122 700 100 722 100 750 c 0
 100 778 122 800 150 800 c 2
EndSplineSet
Validated: 1
Substitution2: "'ss01' Add Cartouche Lines-1" pakeTok.cart
Substitution2: "'ss02' Add Container Lines-1" pakeTok.cont
EndChar

StartChar: apejaTok
Encoding: 161 989601 161
Width: 1000
VWidth: 900
Flags: W
HStem: -50 100<443.938 555.789> 219 100<444.701 555.038> 450 100<259.938 371.789 628.211 740.062> 719 100<260.701 371.038 628.962 739.299>
VStem: 131 100<578.962 689.299> 315 100<78.962 189.299> 400 100<579.143 688.949> 500 100<579.143 688.949> 584 100<78.211 190.062> 769 100<578.962 689.299>
LayerCount: 2
Fore
SplineSet
250 200 m 0xf940
 224 200 200 222 200 250 c 0
 200 265 207 279 219 289 c 2
 469 489 l 2
 478 496 489 500 500 500 c 0
 511 500 522 496 531 489 c 2
 781 289 l 2
 793 279 800 265 800 250 c 0
 800 222 776 200 750 200 c 0
 739 200 728 204 719 211 c 2
 500 386 l 1
 281 211 l 2
 272 204 261 200 250 200 c 0xf940
684 819 m 0xfac0
 786 819 869 736 869 634 c 0
 869 532 786 450 684 450 c 0
 582 450 500 532 500 634 c 1
 500 532 418 450 316 450 c 0
 214 450 131 532 131 634 c 0
 131 736 214 819 316 819 c 0
 418 819 500 736 500 634 c 1
 500 736 582 819 684 819 c 0xfac0
684 719 m 0
 637 719 600 681 600 634 c 0xf940
 600 587 637 550 684 550 c 0
 731 550 769 587 769 634 c 0
 769 681 731 719 684 719 c 0
316 719 m 0
 269 719 231 681 231 634 c 0
 231 587 269 550 316 550 c 0
 363 550 400 587 400 634 c 0xfa40
 400 681 363 719 316 719 c 0
500 319 m 0xfd40
 602 319 684 236 684 134 c 0xf8c0
 684 32 602 -50 500 -50 c 0
 398 -50 315 32 315 134 c 0
 315 236 398 319 500 319 c 0xfd40
500 219 m 0xf940
 453 219 415 181 415 134 c 0
 415 87 453 50 500 50 c 0xfd40
 547 50 584 87 584 134 c 0xf8c0
 584 181 547 219 500 219 c 0xf940
EndSplineSet
Validated: 5
Substitution2: "'ss01' Add Cartouche Lines-1" apejaTok.cart
Substitution2: "'ss02' Add Container Lines-1" apejaTok.cont
EndChar

StartChar: majunaTok
Encoding: 162 989602 162
Width: 1000
VWidth: 900
Flags: W
HStem: 150 100<58.4375 341.562 658.438 941.562> 350 300<458.438 541.562>
VStem: 50 300<158.438 241.562> 450 100<358.438 641.562> 650 300<158.438 241.562>
CounterMasks: 1 38
LayerCount: 2
Fore
SplineSet
650 300 m 0
 623 300 600 323 600 350 c 0
 600 363 605 375 615 385 c 2
 765 535 l 2
 775 545 787 550 800 550 c 0
 827 550 850 527 850 500 c 0
 850 487 845 475 835 465 c 2
 685 315 l 2
 675 305 663 300 650 300 c 0
150 500 m 0
 150 527 173 550 200 550 c 0
 213 550 225 545 235 535 c 2
 385 385 l 2
 395 375 400 363 400 350 c 0
 400 323 377 300 350 300 c 0
 337 300 325 305 315 315 c 2
 165 465 l 2
 155 475 150 487 150 500 c 0
50 200 m 0
 50 228 72 250 100 250 c 2
 300 250 l 2
 328 250 350 228 350 200 c 0
 350 172 328 150 300 150 c 2
 100 150 l 2
 72 150 50 172 50 200 c 0
500 650 m 0
 528 650 550 628 550 600 c 2
 550 400 l 2
 550 372 528 350 500 350 c 0
 472 350 450 372 450 400 c 2
 450 600 l 2
 450 628 472 650 500 650 c 0
650 200 m 0
 650 228 672 250 700 250 c 2
 900 250 l 2
 928 250 950 228 950 200 c 0
 950 172 928 150 900 150 c 2
 700 150 l 2
 672 150 650 172 650 200 c 0
EndSplineSet
Validated: 1
Substitution2: "'ss01' Add Cartouche Lines-1" majunaTok.cart
Substitution2: "'ss02' Add Container Lines-1" majunaTok.cont
EndChar

StartChar: poweTok
Encoding: 163 989603 163
Width: 1000
Flags: W
HStem: 150 100<58.4375 941.562>
LayerCount: 2
Fore
SplineSet
50 200 m 0
 50 228 72 250 100 250 c 2
 900 250 l 2
 928 250 950 228 950 200 c 0
 950 172 928 150 900 150 c 2
 100 150 l 2
 72 150 50 172 50 200 c 0
650 400 m 0
 650 373 627 350 600 350 c 0
 587 350 575 355 565 365 c 2
 500 429 l 1
 435 365 l 2
 425 355 413 350 400 350 c 0
 373 350 350 373 350 400 c 0
 350 413 355 425 365 435 c 2
 429 500 l 1
 365 565 l 2
 355 575 350 587 350 600 c 0
 350 627 373 650 400 650 c 0
 413 650 425 645 435 635 c 2
 500 571 l 1
 565 635 l 2
 575 645 587 650 600 650 c 0
 627 650 650 627 650 600 c 0
 650 587 645 575 635 565 c 2
 571 500 l 1
 635 435 l 2
 645 425 650 413 650 400 c 0
EndSplineSet
Validated: 1
Substitution2: "'ss01' Add Cartouche Lines-1" poweTok.cart
Substitution2: "'ss02' Add Container Lines-1" poweTok.cont
EndChar

StartChar: piContTok
Encoding: 656 989587 656
Width: 500
VWidth: 950
Flags: W
HStem: -200 100<300 741.562>
VStem: 200 100<-100 891.562>
LayerCount: 2
Fore
SplineSet
250 900 m 0
 278 900 300 878 300 850 c 2
 300 -100 l 1
 700 -100 l 2
 728 -100 750 -122 750 -150 c 0
 750 -178 728 -200 700 -200 c 2
 250 -200 l 2
 222 -200 200 -178 200 -150 c 2
 200 850 l 2
 200 878 222 900 250 900 c 0
EndSplineSet
Validated: 1
Ligature2: "'liga' Substite Container Glyphs-1" piTok contStartCombTok
LCarets2: 1 0
EndChar

StartChar: tawaContTok
Encoding: 657 -1 657
Width: 500
VWidth: 950
Flags: W
HStem: -200 100<539 741.562> -50 100<164 341.562>
LayerCount: 2
Fore
SplineSet
100 -50 m 2
 73 -50 50 -27 50 1 c 0
 50 5 50 8 51 12 c 2
 251 812 l 2
 257 834 277 850 300 850 c 0
 323 850 344 834 349 812 c 2
 539 -100 l 1
 700 -100 l 2
 728 -100 750 -122 750 -150 c 0
 750 -178 728 -200 700 -200 c 2
 500 -200 l 2
 477 -200 457 -184 451 -162 c 1
 300 594 l 1
 164 50 l 1
 300 50 l 2
 328 50 350 28 350 0 c 0
 350 -28 328 -50 300 -50 c 2
 100 -50 l 2
EndSplineSet
Validated: 1
LCarets2: 1 0
Ligature2: "'liga' Substite Container Glyphs-1" tawaTok contStartCombTok
EndChar

StartChar: aTok_joinStackTok
Encoding: 768 -1 768
Width: 1000
VWidth: 950
Flags: W
HStem: -50 100<439.527 561.352> 250 100<439.527 561.59>
VStem: 300 100<89.5269 210.473> 600 200<-12.5 177.5>
LayerCount: 2
Fore
SplineSet
800 -0 m 0
 800 -25 780 -50 750 -50 c 0
 732 -50 715 -41 706 -24 c 2
 670 44 l 1
 634 -12 572 -50 500 -50 c 0
 390 -50 300 40 300 150 c 0
 300 260 390 350 500 350 c 0
 581 350 650 302 682 233 c 0
 683 232 683 231 684 230 c 2
 794 24 l 2
 798 16 800 8 800 -0 c 0
500 50 m 0
 555 50 600 95 600 150 c 0
 600 205 555 250 500 250 c 0
 445 250 400 205 400 150 c 0
 400 95 445 50 500 50 c 0
EndSplineSet
Validated: 1
Ligature2: "'liga' Joiner Step 3-1" aTok joinStackTok
MultipleSubs2: "'ccmp' Joiner Step 2-1" aTok_joinStackTok joinStackTok
Ligature2: "'liga' Joiner Step 1-1" aTok joinStackTok
EndChar

StartChar: anpaTok_joinStackTok
Encoding: 773 -1 773
Width: 1000
VWidth: 950
Flags: W
HStem: -50 150<448.417 551.583> 150 200<58.4375 141.562 858.438 941.562>
VStem: 50 100<250 341.562> 425 150<-26.5827 76.5827> 850 100<250 341.562>
CounterMasks: 1 38
LayerCount: 2
Fore
SplineSet
100 350 m 0
 128 350 150 328 150 300 c 2
 150 250 l 1
 850 250 l 1
 850 300 l 2
 850 328 872 350 900 350 c 0
 928 350 950 328 950 300 c 2
 950 200 l 2
 950 172 928 150 900 150 c 2
 100 150 l 2
 72 150 50 172 50 200 c 2
 50 300 l 2
 50 328 72 350 100 350 c 0
575 25 m 0
 575 -16 541 -50 500 -50 c 0
 459 -50 425 -16 425 25 c 0
 425 66 459 100 500 100 c 0
 541 100 575 66 575 25 c 0
EndSplineSet
Validated: 1
Ligature2: "'liga' Joiner Step 3-1" anpaTok joinStackTok
MultipleSubs2: "'ccmp' Joiner Step 2-1" anpaTok_joinStackTok joinStackTok
Ligature2: "'liga' Joiner Step 1-1" anpaTok joinStackTok
EndChar

StartChar: oTok_joinStackTok
Encoding: 836 -1 836
Width: 1000
VWidth: 950
Flags: W
HStem: -50 100<439.527 560.473> 250 100<439.527 560.473>
VStem: 300 100<89.5269 210.473> 600 100<89.5269 210.473>
LayerCount: 2
Fore
SplineSet
500 -50 m 0
 390 -50 300 40 300 150 c 0
 300 260 390 350 500 350 c 0
 610 350 700 260 700 150 c 0
 700 40 610 -50 500 -50 c 0
500 50 m 0
 555 50 600 95 600 150 c 0
 600 205 555 250 500 250 c 0
 445 250 400 205 400 150 c 0
 400 95 445 50 500 50 c 0
EndSplineSet
Validated: 1
Ligature2: "'liga' Joiner Step 3-1" oTok joinStackTok
MultipleSubs2: "'ccmp' Joiner Step 2-1" oTok_joinStackTok joinStackTok
Ligature2: "'liga' Joiner Step 1-1" oTok joinStackTok
EndChar

StartChar: pokiTok_joinStackTok
Encoding: 851 -1 851
Width: 1000
VWidth: 950
Flags: W
HStem: -50 100<150 850>
VStem: 50 100<50 341.562> 850 100<50 341.562>
LayerCount: 2
Fore
SplineSet
100 350 m 0
 128 350 150 328 150 300 c 2
 150 50 l 1
 850 50 l 1
 850 300 l 2
 850 328 872 350 900 350 c 0
 928 350 950 328 950 300 c 2
 950 0 l 2
 950 -28 928 -50 900 -50 c 2
 100 -50 l 2
 72 -50 50 -28 50 0 c 2
 50 300 l 2
 50 328 72 350 100 350 c 0
EndSplineSet
Validated: 1
Ligature2: "'liga' Joiner Step 3-1" pokiTok joinStackTok
MultipleSubs2: "'ccmp' Joiner Step 2-1" pokiTok_joinStackTok joinStackTok
Ligature2: "'liga' Joiner Step 1-1" pokiTok joinStackTok
EndChar

StartChar: utaTok_joinStackTok
Encoding: 880 -1 880
Width: 1000
VWidth: 950
Flags: W
HStem: -50 80<366.916 633.084> 270 80<154 846>
LayerCount: 2
Fore
SplineSet
50 310 m 0
 50 332 72 350 100 350 c 2
 900 350 l 2
 928 350 950 332 950 310 c 0
 950 111 749 -50 500 -50 c 0
 251 -50 50 111 50 310 c 0
154 270 m 1
 178 134 324 30 500 30 c 0
 676 30 822 134 846 270 c 1
 154 270 l 1
EndSplineSet
Validated: 1
Ligature2: "'liga' Joiner Step 3-1" utaTok joinStackTok
MultipleSubs2: "'ccmp' Joiner Step 2-1" utaTok_joinStackTok joinStackTok
Ligature2: "'liga' Joiner Step 1-1" utaTok joinStackTok
EndChar

StartChar: kinTok_joinStackTok
Encoding: 889 -1 889
Width: 1000
VWidth: 950
Flags: W
VStem: 450 100<-41.5625 63 237 341.562>
LayerCount: 2
Fore
SplineSet
320 225 m 0
 320 254 345 275 370 275 c 0
 379 275 387 273 395 268 c 2
 450 237 l 1
 450 300 l 2
 450 328 472 350 500 350 c 0
 528 350 550 328 550 300 c 2
 550 237 l 1
 605 268 l 2
 613 273 621 275 630 275 c 0
 655 275 680 254 680 225 c 0
 680 208 671 191 655 182 c 2
 600 150 l 1
 655 118 l 2
 671 109 680 92 680 75 c 0
 680 46 655 25 630 25 c 0
 621 25 613 27 605 32 c 2
 550 63 l 1
 550 0 l 2
 550 -28 528 -50 500 -50 c 0
 472 -50 450 -28 450 0 c 2
 450 63 l 1
 395 32 l 2
 387 27 379 25 370 25 c 0
 345 25 320 46 320 75 c 0
 320 92 329 109 345 118 c 2
 400 150 l 1
 345 182 l 2
 329 191 320 208 320 225 c 0
EndSplineSet
Validated: 1
Ligature2: "'liga' Joiner Step 3-1" kinTok joinStackTok
MultipleSubs2: "'ccmp' Joiner Step 2-1" kinTok_joinStackTok joinStackTok
Ligature2: "'liga' Joiner Step 1-1" kinTok joinStackTok
EndChar

StartChar: nTok_joinStackTok
Encoding: 902 -1 902
Width: 1000
VWidth: 950
Flags: W
HStem: 250 100<439.527 560.473>
VStem: 300 100<-41.5625 209.304> 600 100<-41.5625 209.304>
LayerCount: 2
Fore
SplineSet
500 250 m 0
 445 250 400 205 400 150 c 2
 400 0 l 2
 400 -28 378 -50 350 -50 c 0
 322 -50 300 -28 300 0 c 2
 300 150 l 2
 300 260 390 350 500 350 c 0
 610 350 700 260 700 150 c 2
 700 0 l 2
 700 -28 678 -50 650 -50 c 0
 622 -50 600 -28 600 0 c 2
 600 150 l 2
 600 205 555 250 500 250 c 0
EndSplineSet
Validated: 1
Ligature2: "'liga' Joiner Step 3-1" nTok joinStackTok
MultipleSubs2: "'ccmp' Joiner Step 2-1" nTok_joinStackTok joinStackTok
Ligature2: "'liga' Joiner Step 1-1" nTok joinStackTok
EndChar

